<?xml version="1.0" encoding="utf-8"?>
<svg xmlns="http://www.w3.org/2000/svg" xmlns:xlink="http://www.w3.org/1999/xlink" width="600" height="400" viewBox="0 0 600 400">
<defs>
  <clipPath id="clip1400">
    <rect x="0" y="0" width="600" height="400"/>
  </clipPath>
</defs>
<polygon clip-path="url(#clip1400)" points="
0,400 600,400 600,0 0,0 
  " fill="#ffffff" fill-opacity="1"/>
<defs>
  <clipPath id="clip1401">
    <rect x="120" y="0" width="421" height="400"/>
  </clipPath>
</defs>
<polygon clip-path="url(#clip1400)" points="
29.4661,375.869 580.315,375.869 580.315,11.811 29.4661,11.811 
  " fill="#ffffff" fill-opacity="1"/>
<defs>
  <clipPath id="clip1402">
    <rect x="29" y="11" width="552" height="365"/>
  </clipPath>
</defs>
<polyline clip-path="url(#clip1402)" style="stroke:#000000; stroke-width:0.5; stroke-opacity:0.1; fill:none" points="
  29.4661,375.869 29.4661,11.811 
  "/>
<polyline clip-path="url(#clip1402)" style="stroke:#000000; stroke-width:0.5; stroke-opacity:0.1; fill:none" points="
  167.178,375.869 167.178,11.811 
  "/>
<polyline clip-path="url(#clip1402)" style="stroke:#000000; stroke-width:0.5; stroke-opacity:0.1; fill:none" points="
  304.891,375.869 304.891,11.811 
  "/>
<polyline clip-path="url(#clip1402)" style="stroke:#000000; stroke-width:0.5; stroke-opacity:0.1; fill:none" points="
  442.603,375.869 442.603,11.811 
  "/>
<polyline clip-path="url(#clip1402)" style="stroke:#000000; stroke-width:0.5; stroke-opacity:0.1; fill:none" points="
  580.315,375.869 580.315,11.811 
  "/>
<polyline clip-path="url(#clip1402)" style="stroke:#000000; stroke-width:0.5; stroke-opacity:0.1; fill:none" points="
  29.4661,326.091 580.315,326.091 
  "/>
<polyline clip-path="url(#clip1402)" style="stroke:#000000; stroke-width:0.5; stroke-opacity:0.1; fill:none" points="
  29.4661,247.567 580.315,247.567 
  "/>
<polyline clip-path="url(#clip1402)" style="stroke:#000000; stroke-width:0.5; stroke-opacity:0.1; fill:none" points="
  29.4661,169.044 580.315,169.044 
  "/>
<polyline clip-path="url(#clip1402)" style="stroke:#000000; stroke-width:0.5; stroke-opacity:0.1; fill:none" points="
  29.4661,90.5211 580.315,90.5211 
  "/>
<polyline clip-path="url(#clip1402)" style="stroke:#000000; stroke-width:0.5; stroke-opacity:0.1; fill:none" points="
  29.4661,11.998 580.315,11.998 
  "/>
<polyline clip-path="url(#clip1400)" style="stroke:#000000; stroke-width:1; stroke-opacity:1; fill:none" points="
  29.4661,375.869 580.315,375.869 
  "/>
<polyline clip-path="url(#clip1400)" style="stroke:#000000; stroke-width:1; stroke-opacity:1; fill:none" points="
  29.4661,375.869 29.4661,11.811 
  "/>
<polyline clip-path="url(#clip1400)" style="stroke:#000000; stroke-width:1; stroke-opacity:1; fill:none" points="
  29.4661,375.869 29.4661,370.408 
  "/>
<polyline clip-path="url(#clip1400)" style="stroke:#000000; stroke-width:1; stroke-opacity:1; fill:none" points="
  167.178,375.869 167.178,370.408 
  "/>
<polyline clip-path="url(#clip1400)" style="stroke:#000000; stroke-width:1; stroke-opacity:1; fill:none" points="
  304.891,375.869 304.891,370.408 
  "/>
<polyline clip-path="url(#clip1400)" style="stroke:#000000; stroke-width:1; stroke-opacity:1; fill:none" points="
  442.603,375.869 442.603,370.408 
  "/>
<polyline clip-path="url(#clip1400)" style="stroke:#000000; stroke-width:1; stroke-opacity:1; fill:none" points="
  580.315,375.869 580.315,370.408 
  "/>
<polyline clip-path="url(#clip1400)" style="stroke:#000000; stroke-width:1; stroke-opacity:1; fill:none" points="
  29.4661,326.091 37.7289,326.091 
  "/>
<polyline clip-path="url(#clip1400)" style="stroke:#000000; stroke-width:1; stroke-opacity:1; fill:none" points="
  29.4661,247.567 37.7289,247.567 
  "/>
<polyline clip-path="url(#clip1400)" style="stroke:#000000; stroke-width:1; stroke-opacity:1; fill:none" points="
  29.4661,169.044 37.7289,169.044 
  "/>
<polyline clip-path="url(#clip1400)" style="stroke:#000000; stroke-width:1; stroke-opacity:1; fill:none" points="
  29.4661,90.5211 37.7289,90.5211 
  "/>
<polyline clip-path="url(#clip1400)" style="stroke:#000000; stroke-width:1; stroke-opacity:1; fill:none" points="
  29.4661,11.998 37.7289,11.998 
  "/>
<g clip-path="url(#clip1400)">
<text style="fill:#000000; fill-opacity:1; font-family:Arial,Helvetica Neue,Helvetica,sans-serif; font-size:12; text-anchor:middle;" transform="rotate(0, 29.4661, 389.669)" x="29.4661" y="389.669">-4</text>
</g>
<g clip-path="url(#clip1400)">
<text style="fill:#000000; fill-opacity:1; font-family:Arial,Helvetica Neue,Helvetica,sans-serif; font-size:12; text-anchor:middle;" transform="rotate(0, 167.178, 389.669)" x="167.178" y="389.669">-2</text>
</g>
<g clip-path="url(#clip1400)">
<text style="fill:#000000; fill-opacity:1; font-family:Arial,Helvetica Neue,Helvetica,sans-serif; font-size:12; text-anchor:middle;" transform="rotate(0, 304.891, 389.669)" x="304.891" y="389.669">0</text>
</g>
<g clip-path="url(#clip1400)">
<text style="fill:#000000; fill-opacity:1; font-family:Arial,Helvetica Neue,Helvetica,sans-serif; font-size:12; text-anchor:middle;" transform="rotate(0, 442.603, 389.669)" x="442.603" y="389.669">2</text>
</g>
<g clip-path="url(#clip1400)">
<text style="fill:#000000; fill-opacity:1; font-family:Arial,Helvetica Neue,Helvetica,sans-serif; font-size:12; text-anchor:middle;" transform="rotate(0, 580.315, 389.669)" x="580.315" y="389.669">4</text>
</g>
<g clip-path="url(#clip1400)">
<text style="fill:#000000; fill-opacity:1; font-family:Arial,Helvetica Neue,Helvetica,sans-serif; font-size:12; text-anchor:end;" transform="rotate(0, 23.4661, 330.591)" x="23.4661" y="330.591">-2</text>
</g>
<g clip-path="url(#clip1400)">
<text style="fill:#000000; fill-opacity:1; font-family:Arial,Helvetica Neue,Helvetica,sans-serif; font-size:12; text-anchor:end;" transform="rotate(0, 23.4661, 252.067)" x="23.4661" y="252.067">-1</text>
</g>
<g clip-path="url(#clip1400)">
<text style="fill:#000000; fill-opacity:1; font-family:Arial,Helvetica Neue,Helvetica,sans-serif; font-size:12; text-anchor:end;" transform="rotate(0, 23.4661, 173.544)" x="23.4661" y="173.544">0</text>
</g>
<g clip-path="url(#clip1400)">
<text style="fill:#000000; fill-opacity:1; font-family:Arial,Helvetica Neue,Helvetica,sans-serif; font-size:12; text-anchor:end;" transform="rotate(0, 23.4661, 95.0211)" x="23.4661" y="95.0211">1</text>
</g>
<g clip-path="url(#clip1400)">
<text style="fill:#000000; fill-opacity:1; font-family:Arial,Helvetica Neue,Helvetica,sans-serif; font-size:12; text-anchor:end;" transform="rotate(0, 23.4661, 16.498)" x="23.4661" y="16.498">2</text>
</g>
<polyline clip-path="url(#clip1402)" style="stroke:#009af9; stroke-width:1; stroke-opacity:1; fill:none" points="
  29.4661,169.044 29.7351,169.044 30.0041,169.044 30.273,169.044 30.542,169.044 30.811,169.044 31.08,169.044 31.3489,169.044 31.6179,169.044 31.8869,169.044 
  32.1558,169.044 32.4248,169.044 32.6938,169.044 32.9627,169.044 33.2317,169.044 33.5007,169.044 33.7696,169.044 34.0386,169.044 34.3076,169.044 34.5766,169.044 
  34.8455,169.044 35.1145,169.044 35.3835,169.044 35.6524,169.044 35.9214,169.044 36.1904,169.044 36.4593,169.044 36.7283,169.044 36.9973,169.044 37.2662,169.044 
  37.5352,169.044 37.8042,169.044 38.0732,169.044 38.3421,169.044 38.6111,169.044 38.8801,169.044 39.149,169.044 39.418,169.044 39.687,169.044 39.9559,169.044 
  40.2249,169.044 40.4939,169.044 40.7628,169.044 41.0318,169.044 41.3008,169.044 41.5697,169.044 41.8387,169.044 42.1077,169.045 42.3767,169.045 42.6456,169.045 
  42.9146,169.044 43.1836,169.044 43.4525,169.044 43.7215,169.044 43.9905,169.044 44.2594,169.044 44.5284,169.044 44.7974,169.044 45.0663,169.044 45.3353,169.044 
  45.6043,169.044 45.8733,169.044 46.1422,169.044 46.4112,169.044 46.6802,169.043 46.9491,169.044 47.2181,169.044 47.4871,169.044 47.756,169.044 48.025,169.044 
  48.294,169.044 48.5629,169.044 48.8319,169.045 49.1009,169.045 49.3699,169.044 49.6388,169.044 49.9078,169.044 50.1768,169.044 50.4457,169.044 50.7147,169.044 
  50.9837,169.043 51.2526,169.044 51.5216,169.045 51.7906,169.045 52.0595,169.046 52.3285,169.046 52.5975,169.046 52.8665,169.046 53.1354,169.047 53.4044,169.047 
  53.6734,169.048 53.9423,169.048 54.2113,169.048 54.4803,169.049 54.7492,169.05 55.0182,169.051 55.2872,169.052 55.5561,169.05 55.8251,169.049 56.0941,169.048 
  56.3631,169.047 56.632,169.046 56.901,169.045 57.17,169.044 57.4389,169.042 57.7079,169.042 57.9769,169.042 58.2458,169.041 58.5148,169.041 58.7838,169.04 
  59.0527,169.039 59.3217,169.039 59.5907,169.038 59.8597,169.037 60.1286,169.037 60.3976,169.036 60.6666,169.035 60.9355,169.035 61.2045,169.034 61.4735,169.034 
  61.7424,169.034 62.0114,169.033 62.2804,169.031 62.5493,169.031 62.8183,169.03 63.0873,169.028 63.3563,169.028 63.6252,169.026 63.8942,169.025 64.1632,169.027 
  64.4321,169.028 64.7011,169.03 64.9701,169.032 65.239,169.032 65.508,169.033 65.777,169.034 66.0459,169.035 66.3149,169.037 66.5839,169.04 66.8528,169.041 
  67.1218,169.042 67.3908,169.046 67.6598,169.048 67.9287,169.051 68.1977,169.056 68.4667,169.052 68.7356,169.049 69.0046,169.048 69.2736,169.044 69.5425,169.045 
  69.8115,169.045 70.0805,169.043 70.3494,169.043 70.6184,169.041 70.8874,169.038 71.1564,169.038 71.4253,169.039 71.6943,169.035 71.9633,169.034 72.2322,169.031 
  72.5012,169.026 72.7702,169.035 73.0391,169.042 73.3081,169.046 73.5771,169.053 73.846,169.059 74.115,169.063 74.384,169.071 74.653,169.08 74.9219,169.079 
  75.1909,169.08 75.4599,169.083 75.7288,169.084 75.9978,169.086 76.2668,169.09 76.5357,169.091 76.8047,169.092 77.0737,169.101 77.3426,169.107 77.6116,169.114 
  77.8806,169.124 78.1496,169.125 78.4185,169.128 78.6875,169.132 78.9565,169.132 79.2254,169.143 79.4944,169.154 79.7634,169.158 80.0323,169.162 80.3013,169.174 
  80.5703,169.179 80.8392,169.189 81.1082,169.203 81.3772,169.184 81.6462,169.169 81.9151,169.158 82.1841,169.14 82.4531,169.132 82.722,169.124 82.991,169.108 
  83.26,169.094 83.5289,169.086 83.7979,169.075 84.0669,169.067 84.3358,169.06 84.6048,169.043 84.8738,169.031 85.1428,169.017 85.4117,169 85.6807,169 
  85.9497,168.997 86.2186,168.991 86.4876,168.988 86.7566,168.983 87.0255,168.976 87.2945,168.973 87.5635,168.971 87.8324,168.96 88.1014,168.952 88.3704,168.944 
  88.6394,168.934 88.9083,168.928 89.1773,168.922 89.4463,168.914 89.7152,168.908 89.9842,168.9 90.2532,168.892 90.5221,168.886 90.7911,168.88 91.0601,168.869 
  91.329,168.862 91.598,168.852 91.867,168.841 92.1359,168.841 92.4049,168.841 92.6739,168.835 92.9429,168.831 93.2118,168.832 93.4808,168.827 93.7498,168.828 
  94.0187,168.831 94.2877,168.812 94.5567,168.797 94.8256,168.783 95.0946,168.764 95.3636,168.759 95.6325,168.751 95.9015,168.74 96.1705,168.734 96.4395,168.719 
  96.7084,168.703 96.9774,168.696 97.2464,168.691 97.5153,168.67 97.7843,168.661 98.0533,168.645 98.3222,168.624 98.5912,168.65 98.8602,168.672 99.1291,168.683 
  99.3981,168.704 99.6671,168.722 99.9361,168.735 100.205,168.76 100.474,168.789 100.743,168.786 101.012,168.788 101.281,168.799 101.55,168.803 101.819,168.813 
  102.088,168.829 102.357,168.834 102.626,168.839 102.895,168.87 103.164,168.893 103.433,168.92 103.702,168.954 103.971,168.962 104.24,168.979 104.509,168.996 
  104.777,169.006 105.046,169.044 105.315,169.084 105.584,169.102 105.853,169.121 106.122,169.168 106.391,169.191 106.66,169.231 106.929,169.283 107.198,169.238 
  107.467,169.203 107.736,169.188 108.005,169.152 108.274,169.131 108.543,169.118 108.812,169.08 109.081,169.039 109.35,169.051 109.619,169.053 109.888,169.045 
  110.157,169.049 110.426,169.036 110.695,169.02 110.964,169.017 111.233,169.013 111.502,168.988 111.771,168.973 112.04,168.949 112.309,168.918 112.578,168.926 
  112.847,168.919 113.116,168.917 113.385,168.93 113.653,168.884 113.922,168.837 114.191,168.828 114.46,168.815 114.729,168.765 114.998,168.754 115.267,168.712 
  115.536,168.653 115.805,168.754 116.074,168.835 116.343,168.894 116.612,168.993 116.881,169.033 117.15,169.08 117.419,169.158 117.688,169.227 117.957,169.284 
  118.226,169.354 118.495,169.405 118.764,169.448 119.033,169.548 119.302,169.618 119.571,169.702 119.84,169.806 120.109,169.79 120.378,169.791 120.647,169.812 
  120.916,169.805 121.185,169.838 121.454,169.87 121.723,169.879 121.992,169.894 122.26,169.928 122.529,169.951 122.798,169.989 123.067,170.037 123.336,170.036 
  123.605,170.059 123.874,170.075 124.143,170.074 124.412,170.167 124.681,170.255 124.95,170.312 125.219,170.387 125.488,170.472 125.757,170.537 126.026,170.631 
  126.295,170.738 126.564,170.74 126.833,170.751 127.102,170.797 127.371,170.824 127.64,170.847 127.909,170.896 128.178,170.905 128.447,170.903 128.716,171.033 
  128.985,171.131 129.254,171.23 129.523,171.365 129.792,171.387 130.061,171.44 130.33,171.502 130.599,171.527 130.868,171.654 131.136,171.788 131.405,171.835 
  131.674,171.882 131.943,172.039 132.212,172.1 132.481,172.224 132.75,172.394 133.019,172.171 133.288,171.99 133.557,171.878 133.826,171.672 134.095,171.561 
  134.364,171.457 134.633,171.263 134.902,171.07 135.171,171.009 135.44,170.91 135.709,170.806 135.978,170.736 136.247,170.564 136.516,170.416 136.785,170.282 
  137.054,170.123 137.323,170.034 137.592,169.946 137.861,169.822 138.13,169.708 138.399,169.628 138.668,169.521 138.937,169.44 139.206,169.379 139.475,169.191 
  139.743,169.011 140.012,168.886 140.281,168.743 140.55,168.569 140.819,168.443 141.088,168.268 141.357,168.072 141.626,168.094 141.895,168.088 142.164,168.046 
  142.433,168.057 142.702,168.002 142.971,167.946 143.24,167.938 143.509,167.923 143.778,167.854 144.047,167.804 144.316,167.746 144.585,167.671 144.854,167.658 
  145.123,167.623 145.392,167.587 145.661,167.568 145.93,167.471 146.199,167.379 146.468,167.31 146.737,167.227 147.006,167.139 147.275,167.064 147.544,166.967 
  147.813,166.861 148.082,166.828 148.351,166.785 148.619,166.72 148.888,166.668 149.157,166.611 149.426,166.539 149.695,166.49 149.964,166.445 150.233,166.323 
  150.502,166.216 150.771,166.11 151.04,165.981 151.309,165.909 151.578,165.82 151.847,165.723 152.116,165.641 152.385,165.511 152.654,165.377 152.923,165.279 
  153.192,165.178 153.461,165.029 153.73,164.921 153.999,164.78 154.268,164.618 154.537,164.629 154.806,164.612 155.075,164.578 155.344,164.59 155.613,164.51 
  155.882,164.447 156.151,164.412 156.42,164.354 156.689,164.331 156.958,164.323 157.226,164.259 157.495,164.187 157.764,164.219 158.033,164.182 158.302,164.184 
  158.571,164.226 158.84,163.988 159.109,163.775 159.378,163.632 159.647,163.43 159.916,163.252 160.185,163.106 160.454,162.885 160.723,162.649 160.992,162.612 
  161.261,162.547 161.53,162.434 161.799,162.363 162.068,162.258 162.337,162.127 162.606,162.059 162.875,161.998 163.144,161.782 163.413,161.614 163.682,161.428 
  163.951,161.196 164.22,161.145 164.489,161.037 164.758,160.932 165.027,160.891 165.296,160.639 165.565,160.382 165.833,160.279 166.102,160.166 166.371,159.887 
  166.64,159.77 166.909,159.536 167.178,159.229 167.447,159.595 167.716,159.881 167.985,160.067 168.254,160.42 168.523,160.56 168.792,160.714 169.061,161.01 
  169.33,161.284 169.599,161.439 169.868,161.654 170.137,161.827 170.406,161.957 170.675,162.302 170.944,162.557 171.213,162.839 171.482,163.19 171.751,163.192 
  172.02,163.237 172.289,163.358 172.558,163.401 172.827,163.53 173.096,163.675 173.365,163.744 173.634,163.82 173.903,164.025 174.172,164.198 174.441,164.377 
  174.709,164.596 174.978,164.708 175.247,164.856 175.516,165.017 175.785,165.151 176.054,165.391 176.323,165.636 176.592,165.829 176.861,166.039 177.13,166.306 
  177.399,166.53 177.668,166.797 177.937,167.097 178.206,167.193 178.475,167.304 178.744,167.495 179.013,167.653 179.282,167.778 179.551,167.972 179.82,168.08 
  180.089,168.158 180.358,168.559 180.627,168.888 180.896,169.213 181.165,169.627 181.434,169.791 181.703,170.02 181.972,170.278 182.241,170.457 182.51,170.852 
  182.779,171.265 183.048,171.493 183.316,171.721 183.585,172.19 183.854,172.452 184.123,172.855 184.392,173.358 184.661,173.006 184.93,172.758 185.199,172.642 
  185.468,172.316 185.737,172.255 186.006,172.183 186.275,171.93 186.544,171.705 186.813,171.65 187.082,171.519 187.351,171.437 187.62,171.416 187.889,171.126 
  188.158,170.947 188.427,170.743 188.696,170.456 188.965,170.588 189.234,170.673 189.503,170.665 189.772,170.751 190.041,170.748 190.31,170.723 190.579,170.792 
  190.848,170.861 191.117,170.755 191.386,170.69 191.655,170.631 191.924,170.525 192.192,170.539 192.461,170.526 192.73,170.486 192.999,170.477 193.268,170.391 
  193.537,170.293 193.806,170.256 194.075,170.216 194.344,170.078 194.613,170.002 194.882,169.882 195.151,169.716 195.42,169.824 195.689,169.919 195.958,169.898 
  196.227,169.921 196.496,170.016 196.765,170.007 197.034,170.123 197.303,170.289 197.572,169.965 197.841,169.746 198.11,169.548 198.379,169.22 198.648,169.239 
  198.917,169.177 199.186,169.064 199.455,169.056 199.724,168.798 199.993,168.508 200.262,168.468 200.531,168.44 200.799,168.064 201.068,167.971 201.337,167.701 
  201.606,167.292 201.875,168.039 202.144,168.667 202.413,169.078 202.682,169.761 202.951,170.197 203.22,170.595 203.489,171.266 203.758,171.946 204.027,172.174 
  204.296,172.512 204.565,172.898 204.834,173.174 205.103,173.723 205.372,174.234 205.641,174.669 205.91,175.165 206.179,175.59 206.448,175.985 206.717,176.479 
  206.986,176.979 207.255,177.291 207.524,177.703 207.793,178.054 208.062,178.321 208.331,179.013 208.6,179.693 208.869,180.151 209.138,180.657 209.407,181.346 
  209.675,181.823 209.944,182.487 210.213,183.249 210.482,183.09 210.751,183.037 211.02,183.153 211.289,183.053 211.558,183.178 211.827,183.33 212.096,183.27 
  212.365,183.214 212.634,183.492 212.903,183.687 213.172,183.864 213.441,184.127 213.71,184.165 213.979,184.25 214.248,184.388 214.517,184.474 214.786,184.677 
  215.055,184.903 215.324,185.035 215.593,185.176 215.862,185.479 216.131,185.689 216.4,185.972 216.669,186.334 216.938,186.287 217.207,186.263 217.476,186.436 
  217.745,186.558 218.014,186.553 218.282,186.731 218.551,186.733 218.82,186.66 219.089,187.391 219.358,188.001 219.627,188.528 219.896,189.262 220.165,189.633 
  220.434,190.066 220.703,190.641 220.972,191.142 221.241,191.708 221.51,192.338 221.779,192.806 222.048,193.245 222.317,194.02 222.586,194.582 222.855,195.274 
  223.124,196.091 223.393,196.029 223.662,196.1 223.931,196.285 224.2,196.252 224.469,196.594 224.738,196.887 225.007,197.024 225.276,197.239 225.545,197.443 
  225.814,197.565 226.083,197.879 226.352,198.25 226.621,198.178 226.889,198.365 227.158,198.43 227.427,198.333 227.696,199.266 227.965,200.122 228.234,200.685 
  228.503,201.457 228.772,202.213 229.041,202.811 229.31,203.698 229.579,204.669 229.848,204.76 230.117,204.951 230.386,205.391 230.655,205.654 230.924,205.981 
  231.193,206.471 231.462,206.651 231.731,206.773 232,207.773 232.269,208.531 232.538,209.332 232.807,210.382 233.076,210.568 233.345,211 233.614,211.459 
  233.883,211.623 234.152,212.685 234.421,213.782 234.69,214.174 234.959,214.589 235.228,215.821 235.497,216.295 235.765,217.292 236.034,218.635 236.303,216.853 
  236.572,215.428 236.841,214.503 237.11,212.815 237.379,212.001 237.648,211.181 237.917,209.671 238.186,208.218 238.455,207.548 238.724,206.587 238.993,205.708 
  239.262,205.061 239.531,203.506 239.8,202.254 240.069,200.99 240.338,199.459 240.607,199.047 240.876,198.53 241.145,197.69 241.414,197.075 241.683,196.377 
  241.952,195.535 242.221,194.974 242.49,194.472 242.759,193.177 243.028,191.986 243.297,190.983 243.566,189.814 243.835,188.79 244.104,187.859 244.372,186.706 
  244.641,185.539 244.91,184.922 245.179,184.186 245.448,183.442 245.717,182.849 245.986,181.873 246.255,180.997 246.524,180.189 246.793,179.278 247.062,178.654 
  247.331,178.062 247.6,177.246 247.869,176.446 248.138,175.948 248.407,175.202 248.676,174.659 248.945,174.247 249.214,172.771 249.483,171.484 249.752,170.291 
  250.021,168.825 250.29,167.947 250.559,166.956 250.828,165.814 251.097,164.827 251.366,163.575 251.635,162.246 251.904,161.281 252.173,160.358 252.442,158.84 
  252.711,157.76 252.98,156.422 253.248,154.857 253.517,155.07 253.786,155.083 254.055,154.784 254.324,154.911 254.593,154.577 254.862,154.219 255.131,154.258 
  255.4,154.274 255.669,153.757 255.938,153.404 256.207,153.034 256.476,152.514 256.745,152.485 257.014,152.308 257.283,152.099 257.552,152.022 257.821,151.444 
  258.09,150.893 258.359,150.512 258.628,150.034 258.897,149.516 259.166,149.092 259.435,148.523 259.704,147.894 259.973,147.753 260.242,147.558 260.511,147.2 
  260.78,146.928 261.049,146.65 261.318,146.256 261.587,146.02 261.855,145.819 262.124,145.056 262.393,144.382 262.662,143.757 262.931,142.984 263.2,142.48 
  263.469,141.925 263.738,141.27 264.007,140.67 264.276,139.998 264.545,139.283 264.814,138.684 265.083,138.099 265.352,137.276 265.621,136.603 265.89,135.828 
  266.159,134.961 266.428,134.725 266.697,134.387 266.966,133.964 267.235,133.696 267.504,133.143 267.773,132.624 268.042,132.21 268.311,131.731 268.58,131.27 
  268.849,130.86 269.118,130.302 269.387,129.7 269.656,129.402 269.925,128.908 270.194,128.503 270.462,128.205 270.731,127.14 271,126.14 271.269,125.314 
  271.538,124.314 271.807,123.405 272.076,122.559 272.345,121.513 272.614,120.433 272.883,119.802 273.152,119.094 273.421,118.282 273.69,117.563 273.959,116.72 
  274.228,115.833 274.497,115.069 274.766,114.297 275.035,113.261 275.304,112.305 275.573,111.303 275.842,110.216 276.111,109.446 276.38,108.568 276.649,107.69 
  276.918,106.922 277.187,105.759 277.456,104.58 277.725,103.68 277.994,102.759 278.263,101.509 278.532,100.552 278.801,99.3806 279.07,98.0619 279.338,97.9815 
  279.607,97.7742 279.876,97.3108 280.145,97.1302 280.414,96.7235 280.683,96.2443 280.952,96.069 281.221,95.9179 281.49,95.1649 281.759,94.5289 282.028,93.9905 
  282.297,93.3138 282.566,92.8864 282.835,92.465 283.104,91.8984 283.373,91.3697 283.642,90.9951 283.911,90.5247 284.18,90.1678 284.449,89.8821 284.718,89.168 
  284.987,88.6276 285.256,88.0243 285.525,87.253 285.794,87.1829 286.063,87.1031 286.332,86.609 286.601,86.1801 286.87,86.1298 287.139,85.6645 287.408,85.5459 
  287.677,85.6119 287.945,83.9014 288.214,82.4364 288.483,81.197 288.752,79.5103 289.021,78.5117 289.29,77.4284 289.559,76.0045 289.828,74.6966 290.097,73.4729 
  290.366,72.1014 290.635,70.9719 290.904,69.9346 291.173,68.2412 291.442,66.9092 291.711,65.3976 291.98,63.6597 292.249,63.3727 292.518,62.8838 292.787,62.1704 
  293.056,61.8088 293.325,60.9143 293.594,60.0579 293.863,59.4798 294.132,58.809 294.401,57.9864 294.67,57.3023 294.939,56.3946 295.208,55.376 295.477,55.0022 
  295.746,54.2936 296.015,53.7083 296.284,53.3461 296.553,51.6781 296.821,50.0932 297.09,48.9177 297.359,47.488 297.628,45.9904 297.897,44.7413 298.166,43.1063 
  298.435,41.3306 298.704,40.8596 298.973,40.2601 299.242,39.258 299.511,38.5094 299.78,37.7492 300.049,36.7015 300.318,36.14 300.587,35.696 300.856,33.7577 
  301.125,32.2069 301.394,30.6234 301.663,28.6237 301.932,27.9815 302.201,26.9693 302.47,25.8824 302.739,25.2477 303.008,23.3027 303.277,21.2903 303.546,20.3539 
  303.815,19.4018 304.084,17.1561 304.353,16.0809 304.622,14.2149 304.891,11.811 305.16,14.2149 305.428,16.0809 305.697,17.1561 305.966,19.4018 306.235,20.3539 
  306.504,21.2903 306.773,23.3027 307.042,25.2477 307.311,25.8824 307.58,26.9693 307.849,27.9815 308.118,28.6237 308.387,30.6234 308.656,32.2069 308.925,33.7577 
  309.194,35.696 309.463,36.14 309.732,36.7015 310.001,37.7492 310.27,38.5094 310.539,39.258 310.808,40.2601 311.077,40.8596 311.346,41.3306 311.615,43.1063 
  311.884,44.7413 312.153,45.9904 312.422,47.488 312.691,48.9177 312.96,50.0932 313.229,51.6781 313.498,53.3461 313.767,53.7083 314.036,54.2936 314.304,55.0022 
  314.573,55.376 314.842,56.3946 315.111,57.3023 315.38,57.9864 315.649,58.809 315.918,59.4798 316.187,60.0579 316.456,60.9143 316.725,61.8088 316.994,62.1704 
  317.263,62.8838 317.532,63.3727 317.801,63.6597 318.07,65.3976 318.339,66.9092 318.608,68.2412 318.877,69.9346 319.146,70.9719 319.415,72.1014 319.684,73.4729 
  319.953,74.6966 320.222,76.0045 320.491,77.4284 320.76,78.5117 321.029,79.5103 321.298,81.197 321.567,82.4364 321.836,83.9014 322.105,85.6119 322.374,85.5459 
  322.643,85.6645 322.911,86.1298 323.18,86.1801 323.449,86.609 323.718,87.1031 323.987,87.1829 324.256,87.253 324.525,88.0243 324.794,88.6276 325.063,89.168 
  325.332,89.8821 325.601,90.1678 325.87,90.5247 326.139,90.9951 326.408,91.3697 326.677,91.8984 326.946,92.465 327.215,92.8864 327.484,93.3138 327.753,93.9905 
  328.022,94.5289 328.291,95.1649 328.56,95.9179 328.829,96.069 329.098,96.2443 329.367,96.7235 329.636,97.1302 329.905,97.3108 330.174,97.7742 330.443,97.9815 
  330.712,98.0619 330.981,99.3806 331.25,100.552 331.518,101.509 331.787,102.759 332.056,103.68 332.325,104.58 332.594,105.759 332.863,106.922 333.132,107.69 
  333.401,108.568 333.67,109.446 333.939,110.216 334.208,111.303 334.477,112.305 334.746,113.261 335.015,114.297 335.284,115.069 335.553,115.833 335.822,116.72 
  336.091,117.563 336.36,118.282 336.629,119.094 336.898,119.802 337.167,120.433 337.436,121.513 337.705,122.559 337.974,123.405 338.243,124.314 338.512,125.314 
  338.781,126.14 339.05,127.14 339.319,128.205 339.588,128.503 339.857,128.908 340.126,129.402 340.394,129.7 340.663,130.302 340.932,130.86 341.201,131.27 
  341.47,131.731 341.739,132.21 342.008,132.624 342.277,133.143 342.546,133.696 342.815,133.964 343.084,134.387 343.353,134.725 343.622,134.961 343.891,135.828 
  344.16,136.603 344.429,137.276 344.698,138.099 344.967,138.684 345.236,139.283 345.505,139.998 345.774,140.67 346.043,141.27 346.312,141.925 346.581,142.48 
  346.85,142.984 347.119,143.757 347.388,144.382 347.657,145.056 347.926,145.819 348.195,146.02 348.464,146.256 348.733,146.65 349.001,146.928 349.27,147.2 
  349.539,147.558 349.808,147.753 350.077,147.894 350.346,148.523 350.615,149.092 350.884,149.516 351.153,150.034 351.422,150.512 351.691,150.893 351.96,151.444 
  352.229,152.022 352.498,152.099 352.767,152.308 353.036,152.485 353.305,152.514 353.574,153.034 353.843,153.404 354.112,153.757 354.381,154.274 354.65,154.258 
  354.919,154.219 355.188,154.577 355.457,154.911 355.726,154.784 355.995,155.083 356.264,155.07 356.533,154.857 356.802,156.422 357.071,157.76 357.34,158.84 
  357.609,160.358 357.877,161.281 358.146,162.246 358.415,163.575 358.684,164.827 358.953,165.814 359.222,166.956 359.491,167.947 359.76,168.825 360.029,170.291 
  360.298,171.484 360.567,172.771 360.836,174.247 361.105,174.659 361.374,175.202 361.643,175.948 361.912,176.446 362.181,177.246 362.45,178.062 362.719,178.654 
  362.988,179.278 363.257,180.189 363.526,180.997 363.795,181.873 364.064,182.849 364.333,183.442 364.602,184.186 364.871,184.922 365.14,185.539 365.409,186.706 
  365.678,187.859 365.947,188.79 366.216,189.814 366.484,190.983 366.753,191.986 367.022,193.177 367.291,194.472 367.56,194.974 367.829,195.535 368.098,196.377 
  368.367,197.075 368.636,197.69 368.905,198.53 369.174,199.047 369.443,199.459 369.712,200.99 369.981,202.254 370.25,203.506 370.519,205.061 370.788,205.708 
  371.057,206.587 371.326,207.548 371.595,208.218 371.864,209.671 372.133,211.181 372.402,212.001 372.671,212.815 372.94,214.503 373.209,215.428 373.478,216.853 
  373.747,218.635 374.016,217.292 374.285,216.295 374.554,215.821 374.823,214.589 375.091,214.174 375.36,213.782 375.629,212.685 375.898,211.623 376.167,211.459 
  376.436,211 376.705,210.568 376.974,210.382 377.243,209.332 377.512,208.531 377.781,207.773 378.05,206.773 378.319,206.651 378.588,206.471 378.857,205.981 
  379.126,205.654 379.395,205.391 379.664,204.951 379.933,204.76 380.202,204.669 380.471,203.698 380.74,202.811 381.009,202.213 381.278,201.457 381.547,200.685 
  381.816,200.122 382.085,199.266 382.354,198.333 382.623,198.43 382.892,198.365 383.161,198.178 383.43,198.25 383.699,197.879 383.967,197.565 384.236,197.443 
  384.505,197.239 384.774,197.024 385.043,196.887 385.312,196.594 385.581,196.252 385.85,196.285 386.119,196.1 386.388,196.029 386.657,196.091 386.926,195.274 
  387.195,194.582 387.464,194.02 387.733,193.245 388.002,192.806 388.271,192.338 388.54,191.708 388.809,191.142 389.078,190.641 389.347,190.066 389.616,189.633 
  389.885,189.262 390.154,188.528 390.423,188.001 390.692,187.391 390.961,186.66 391.23,186.733 391.499,186.731 391.768,186.553 392.037,186.558 392.306,186.436 
  392.574,186.263 392.843,186.287 393.112,186.334 393.381,185.972 393.65,185.689 393.919,185.479 394.188,185.176 394.457,185.035 394.726,184.903 394.995,184.677 
  395.264,184.474 395.533,184.388 395.802,184.25 396.071,184.165 396.34,184.127 396.609,183.864 396.878,183.687 397.147,183.492 397.416,183.214 397.685,183.27 
  397.954,183.33 398.223,183.178 398.492,183.053 398.761,183.153 399.03,183.037 399.299,183.09 399.568,183.249 399.837,182.487 400.106,181.823 400.375,181.346 
  400.644,180.657 400.913,180.151 401.182,179.693 401.45,179.013 401.719,178.321 401.988,178.054 402.257,177.703 402.526,177.291 402.795,176.979 403.064,176.479 
  403.333,175.985 403.602,175.59 403.871,175.165 404.14,174.669 404.409,174.234 404.678,173.723 404.947,173.174 405.216,172.898 405.485,172.512 405.754,172.174 
  406.023,171.946 406.292,171.266 406.561,170.595 406.83,170.197 407.099,169.761 407.368,169.078 407.637,168.667 407.906,168.039 408.175,167.292 408.444,167.701 
  408.713,167.971 408.982,168.064 409.251,168.44 409.52,168.468 409.789,168.508 410.057,168.798 410.326,169.056 410.595,169.064 410.864,169.177 411.133,169.239 
  411.402,169.22 411.671,169.548 411.94,169.746 412.209,169.965 412.478,170.289 412.747,170.123 413.016,170.007 413.285,170.016 413.554,169.921 413.823,169.898 
  414.092,169.919 414.361,169.824 414.63,169.716 414.899,169.882 415.168,170.002 415.437,170.078 415.706,170.216 415.975,170.256 416.244,170.293 416.513,170.391 
  416.782,170.477 417.051,170.486 417.32,170.526 417.589,170.539 417.858,170.525 418.127,170.631 418.396,170.69 418.665,170.755 418.933,170.861 419.202,170.792 
  419.471,170.723 419.74,170.748 420.009,170.751 420.278,170.665 420.547,170.673 420.816,170.588 421.085,170.456 421.354,170.743 421.623,170.947 421.892,171.126 
  422.161,171.416 422.43,171.437 422.699,171.519 422.968,171.65 423.237,171.705 423.506,171.93 423.775,172.183 424.044,172.255 424.313,172.316 424.582,172.642 
  424.851,172.758 425.12,173.006 425.389,173.358 425.658,172.855 425.927,172.452 426.196,172.19 426.465,171.721 426.734,171.493 427.003,171.265 427.272,170.852 
  427.54,170.457 427.809,170.278 428.078,170.02 428.347,169.791 428.616,169.627 428.885,169.213 429.154,168.888 429.423,168.559 429.692,168.158 429.961,168.08 
  430.23,167.972 430.499,167.778 430.768,167.653 431.037,167.495 431.306,167.304 431.575,167.193 431.844,167.097 432.113,166.797 432.382,166.53 432.651,166.306 
  432.92,166.039 433.189,165.829 433.458,165.636 433.727,165.391 433.996,165.151 434.265,165.017 434.534,164.856 434.803,164.708 435.072,164.596 435.341,164.377 
  435.61,164.198 435.879,164.025 436.147,163.82 436.416,163.744 436.685,163.675 436.954,163.53 437.223,163.401 437.492,163.358 437.761,163.237 438.03,163.192 
  438.299,163.19 438.568,162.839 438.837,162.557 439.106,162.302 439.375,161.957 439.644,161.827 439.913,161.654 440.182,161.439 440.451,161.284 440.72,161.01 
  440.989,160.714 441.258,160.56 441.527,160.42 441.796,160.067 442.065,159.881 442.334,159.595 442.603,159.229 442.872,159.536 443.141,159.77 443.41,159.887 
  443.679,160.166 443.948,160.279 444.217,160.382 444.486,160.639 444.755,160.891 445.023,160.932 445.292,161.037 445.561,161.145 445.83,161.196 446.099,161.428 
  446.368,161.614 446.637,161.782 446.906,161.998 447.175,162.059 447.444,162.127 447.713,162.258 447.982,162.363 448.251,162.434 448.52,162.547 448.789,162.612 
  449.058,162.649 449.327,162.885 449.596,163.106 449.865,163.252 450.134,163.43 450.403,163.632 450.672,163.775 450.941,163.988 451.21,164.226 451.479,164.184 
  451.748,164.182 452.017,164.219 452.286,164.187 452.555,164.259 452.824,164.323 453.093,164.331 453.362,164.354 453.63,164.412 453.899,164.447 454.168,164.51 
  454.437,164.59 454.706,164.578 454.975,164.612 455.244,164.629 455.513,164.618 455.782,164.78 456.051,164.921 456.32,165.029 456.589,165.178 456.858,165.279 
  457.127,165.377 457.396,165.511 457.665,165.641 457.934,165.723 458.203,165.82 458.472,165.909 458.741,165.981 459.01,166.11 459.279,166.216 459.548,166.323 
  459.817,166.445 460.086,166.49 460.355,166.539 460.624,166.611 460.893,166.668 461.162,166.72 461.431,166.785 461.7,166.828 461.969,166.861 462.238,166.967 
  462.506,167.064 462.775,167.139 463.044,167.227 463.313,167.31 463.582,167.379 463.851,167.471 464.12,167.568 464.389,167.587 464.658,167.623 464.927,167.658 
  465.196,167.671 465.465,167.746 465.734,167.804 466.003,167.854 466.272,167.923 466.541,167.938 466.81,167.946 467.079,168.002 467.348,168.057 467.617,168.046 
  467.886,168.088 468.155,168.094 468.424,168.072 468.693,168.268 468.962,168.443 469.231,168.569 469.5,168.743 469.769,168.886 470.038,169.011 470.307,169.191 
  470.576,169.379 470.845,169.44 471.113,169.521 471.382,169.628 471.651,169.708 471.92,169.822 472.189,169.946 472.458,170.034 472.727,170.123 472.996,170.282 
  473.265,170.416 473.534,170.564 473.803,170.736 474.072,170.806 474.341,170.91 474.61,171.009 474.879,171.07 475.148,171.263 475.417,171.457 475.686,171.561 
  475.955,171.672 476.224,171.878 476.493,171.99 476.762,172.171 477.031,172.394 477.3,172.224 477.569,172.1 477.838,172.039 478.107,171.882 478.376,171.835 
  478.645,171.788 478.914,171.654 479.183,171.527 479.452,171.502 479.72,171.44 479.989,171.387 480.258,171.365 480.527,171.23 480.796,171.131 481.065,171.033 
  481.334,170.903 481.603,170.905 481.872,170.896 482.141,170.847 482.41,170.824 482.679,170.797 482.948,170.751 483.217,170.74 483.486,170.738 483.755,170.631 
  484.024,170.537 484.293,170.472 484.562,170.387 484.831,170.312 485.1,170.255 485.369,170.167 485.638,170.074 485.907,170.075 486.176,170.059 486.445,170.036 
  486.714,170.037 486.983,169.989 487.252,169.951 487.521,169.928 487.79,169.894 488.059,169.879 488.328,169.87 488.596,169.838 488.865,169.805 489.134,169.812 
  489.403,169.791 489.672,169.79 489.941,169.806 490.21,169.702 490.479,169.618 490.748,169.548 491.017,169.448 491.286,169.405 491.555,169.354 491.824,169.284 
  492.093,169.227 492.362,169.158 492.631,169.08 492.9,169.033 493.169,168.993 493.438,168.894 493.707,168.835 493.976,168.754 494.245,168.653 494.514,168.712 
  494.783,168.754 495.052,168.765 495.321,168.815 495.59,168.828 495.859,168.837 496.128,168.884 496.397,168.93 496.666,168.917 496.935,168.919 497.203,168.926 
  497.472,168.918 497.741,168.949 498.01,168.973 498.279,168.988 498.548,169.013 498.817,169.017 499.086,169.02 499.355,169.036 499.624,169.049 499.893,169.045 
  500.162,169.053 500.431,169.051 500.7,169.039 500.969,169.08 501.238,169.118 501.507,169.131 501.776,169.152 502.045,169.188 502.314,169.203 502.583,169.238 
  502.852,169.283 503.121,169.231 503.39,169.191 503.659,169.168 503.928,169.121 504.197,169.102 504.466,169.084 504.735,169.044 505.004,169.006 505.273,168.996 
  505.542,168.979 505.811,168.962 506.079,168.954 506.348,168.92 506.617,168.893 506.886,168.87 507.155,168.839 507.424,168.834 507.693,168.829 507.962,168.813 
  508.231,168.803 508.5,168.799 508.769,168.788 509.038,168.786 509.307,168.789 509.576,168.76 509.845,168.735 510.114,168.722 510.383,168.704 510.652,168.683 
  510.921,168.672 511.19,168.65 511.459,168.624 511.728,168.645 511.997,168.661 512.266,168.67 512.535,168.691 512.804,168.696 513.073,168.703 513.342,168.719 
  513.611,168.734 513.88,168.74 514.149,168.751 514.418,168.759 514.686,168.764 514.955,168.783 515.224,168.797 515.493,168.812 515.762,168.831 516.031,168.828 
  516.3,168.827 516.569,168.832 516.838,168.831 517.107,168.835 517.376,168.841 517.645,168.841 517.914,168.841 518.183,168.852 518.452,168.862 518.721,168.869 
  518.99,168.88 519.259,168.886 519.528,168.892 519.797,168.9 520.066,168.908 520.335,168.914 520.604,168.922 520.873,168.928 521.142,168.934 521.411,168.944 
  521.68,168.952 521.949,168.96 522.218,168.971 522.487,168.973 522.756,168.976 523.025,168.983 523.294,168.988 523.562,168.991 523.831,168.997 524.1,169 
  524.369,169 524.638,169.017 524.907,169.031 525.176,169.043 525.445,169.06 525.714,169.067 525.983,169.075 526.252,169.086 526.521,169.094 526.79,169.108 
  527.059,169.124 527.328,169.132 527.597,169.14 527.866,169.158 528.135,169.169 528.404,169.184 528.673,169.203 528.942,169.189 529.211,169.179 529.48,169.174 
  529.749,169.162 530.018,169.158 530.287,169.154 530.556,169.143 530.825,169.132 531.094,169.132 531.363,169.128 531.632,169.125 531.901,169.124 532.169,169.114 
  532.438,169.107 532.707,169.101 532.976,169.092 533.245,169.091 533.514,169.09 533.783,169.086 534.052,169.084 534.321,169.083 534.59,169.08 534.859,169.079 
  535.128,169.08 535.397,169.071 535.666,169.063 535.935,169.059 536.204,169.053 536.473,169.046 536.742,169.042 537.011,169.035 537.28,169.026 537.549,169.031 
  537.818,169.034 538.087,169.035 538.356,169.039 538.625,169.038 538.894,169.038 539.163,169.041 539.432,169.043 539.701,169.043 539.97,169.045 540.239,169.045 
  540.508,169.044 540.776,169.048 541.045,169.049 541.314,169.052 541.583,169.056 541.852,169.051 542.121,169.048 542.39,169.046 542.659,169.042 542.928,169.041 
  543.197,169.04 543.466,169.037 543.735,169.035 544.004,169.034 544.273,169.033 544.542,169.032 544.811,169.032 545.08,169.03 545.349,169.028 545.618,169.027 
  545.887,169.025 546.156,169.026 546.425,169.028 546.694,169.028 546.963,169.03 547.232,169.031 547.501,169.031 547.77,169.033 548.039,169.034 548.308,169.034 
  548.577,169.034 548.846,169.035 549.115,169.035 549.384,169.036 549.652,169.037 549.921,169.037 550.19,169.038 550.459,169.039 550.728,169.039 550.997,169.04 
  551.266,169.041 551.535,169.041 551.804,169.042 552.073,169.042 552.342,169.042 552.611,169.044 552.88,169.045 553.149,169.046 553.418,169.047 553.687,169.048 
  553.956,169.049 554.225,169.05 554.494,169.052 554.763,169.051 555.032,169.05 555.301,169.049 555.57,169.048 555.839,169.048 556.108,169.048 556.377,169.047 
  556.646,169.047 556.915,169.046 557.184,169.046 557.453,169.046 557.722,169.046 557.991,169.045 558.259,169.045 558.528,169.044 558.797,169.043 559.066,169.044 
  559.335,169.044 559.604,169.044 559.873,169.044 560.142,169.044 560.411,169.044 560.68,169.045 560.949,169.045 561.218,169.044 561.487,169.044 561.756,169.044 
  562.025,169.044 562.294,169.044 562.563,169.044 562.832,169.044 563.101,169.043 563.37,169.044 563.639,169.044 563.908,169.044 564.177,169.044 564.446,169.044 
  564.715,169.044 564.984,169.044 565.253,169.044 565.522,169.044 565.791,169.044 566.06,169.044 566.329,169.044 566.598,169.044 566.867,169.044 567.135,169.045 
  567.404,169.045 567.673,169.045 567.942,169.044 568.211,169.044 568.48,169.044 568.749,169.044 569.018,169.044 569.287,169.044 569.556,169.044 569.825,169.044 
  570.094,169.044 570.363,169.044 570.632,169.044 570.901,169.044 571.17,169.044 571.439,169.044 571.708,169.044 571.977,169.044 572.246,169.044 572.515,169.044 
  572.784,169.044 573.053,169.044 573.322,169.044 573.591,169.044 573.86,169.044 574.129,169.044 574.398,169.044 574.667,169.044 574.936,169.044 575.205,169.044 
  575.474,169.044 575.742,169.044 576.011,169.044 576.28,169.044 576.549,169.044 576.818,169.044 577.087,169.044 577.356,169.044 577.625,169.044 577.894,169.044 
  578.163,169.044 578.432,169.044 578.701,169.044 578.97,169.044 579.239,169.044 579.508,169.044 579.777,169.044 580.046,169.044 580.315,169.044 
  "/>
<polyline clip-path="url(#clip1402)" style="stroke:#e26f46; stroke-width:1; stroke-opacity:1; fill:none" points="
  167.178,169.044 167.447,169.044 167.716,169.044 167.985,169.044 168.254,169.044 168.523,169.044 168.792,169.044 169.061,169.044 169.33,169.044 169.599,169.044 
  169.868,169.044 170.137,169.044 170.406,169.044 170.675,169.044 170.944,169.044 171.213,169.044 171.482,169.044 171.751,169.044 172.02,169.044 172.289,169.044 
  172.558,169.044 172.827,169.044 173.096,169.044 173.365,169.044 173.634,169.044 173.903,169.044 174.172,169.044 174.441,169.044 174.709,169.044 174.978,169.044 
  175.247,169.044 175.516,169.044 175.785,169.044 176.054,169.044 176.323,169.044 176.592,169.044 176.861,169.045 177.13,169.044 177.399,169.044 177.668,169.044 
  177.937,169.044 178.206,169.044 178.475,169.045 178.744,169.045 179.013,169.045 179.282,169.046 179.551,169.046 179.82,169.047 180.089,169.048 180.358,169.047 
  180.627,169.045 180.896,169.045 181.165,169.043 181.434,169.043 181.703,169.043 181.972,169.042 182.241,169.041 182.51,169.04 182.779,169.04 183.048,169.039 
  183.316,169.039 183.585,169.038 183.854,169.037 184.123,169.036 184.392,169.034 184.661,169.036 184.93,169.038 185.199,169.039 185.468,169.039 185.737,169.042 
  186.006,169.043 186.275,169.046 186.544,169.05 186.813,169.047 187.082,169.044 187.351,169.044 187.62,169.044 187.889,169.041 188.158,169.042 188.427,169.039 
  188.696,169.035 188.965,169.043 189.234,169.049 189.503,169.054 189.772,169.062 190.041,169.062 190.31,169.064 190.579,169.067 190.848,169.068 191.117,169.076 
  191.386,169.084 191.655,169.086 191.924,169.088 192.192,169.099 192.461,169.103 192.73,169.111 192.999,169.124 193.268,169.106 193.537,169.092 193.806,169.084 
  194.075,169.069 194.344,169.06 194.613,169.052 194.882,169.037 195.151,169.022 195.42,169.021 195.689,169.016 195.958,169.01 196.227,169.007 196.496,168.998 
  196.765,168.989 197.034,168.983 197.303,168.976 197.572,168.968 197.841,168.962 198.11,168.953 198.379,168.943 198.648,168.943 198.917,168.938 199.186,168.936 
  199.455,168.938 199.724,168.92 199.993,168.904 200.262,168.898 200.531,168.889 200.799,168.874 201.068,168.868 201.337,168.853 201.606,168.834 201.875,168.858 
  202.144,168.874 202.413,168.889 202.682,168.917 202.951,168.916 203.22,168.924 203.489,168.936 203.758,168.942 204.027,168.969 204.296,168.999 204.565,169.011 
  204.834,169.025 205.103,169.064 205.372,169.083 205.641,169.118 205.91,169.164 206.179,169.123 206.448,169.098 206.717,169.081 206.986,169.042 207.255,169.048 
  207.524,169.047 207.793,169.032 208.062,169.028 208.331,169.008 208.6,168.981 208.869,168.982 209.138,168.987 209.407,168.941 209.675,168.93 209.944,168.9 
  210.213,168.85 210.482,168.94 210.751,169.019 211.02,169.062 211.289,169.135 211.558,169.199 211.827,169.246 212.096,169.332 212.365,169.426 212.634,169.417 
  212.903,169.423 213.172,169.455 213.441,169.467 213.71,169.494 213.979,169.537 214.248,169.546 214.517,169.552 214.786,169.645 215.055,169.713 215.324,169.79 
  215.593,169.893 215.862,169.9 216.131,169.938 216.4,169.975 216.669,169.98 216.938,170.095 217.207,170.214 217.476,170.252 217.745,170.295 218.014,170.429 
  218.282,170.478 218.551,170.589 218.82,170.739 219.089,170.533 219.358,170.37 219.627,170.262 219.896,170.067 220.165,169.981 220.434,169.892 220.703,169.726 
  220.972,169.572 221.241,169.49 221.51,169.376 221.779,169.282 222.048,169.213 222.317,169.034 222.586,168.899 222.855,168.755 223.124,168.576 223.393,168.568 
  223.662,168.542 223.931,168.476 224.2,168.448 224.469,168.389 224.738,168.318 225.007,168.287 225.276,168.259 225.545,168.149 225.814,168.056 226.083,167.971 
  226.352,167.865 226.621,167.805 226.889,167.739 227.158,167.657 227.427,167.586 227.696,167.506 227.965,167.417 228.234,167.353 228.503,167.293 228.772,167.179 
  229.041,167.095 229.31,166.996 229.579,166.875 229.848,166.875 230.117,166.873 230.386,166.814 230.655,166.773 230.924,166.776 231.193,166.726 231.462,166.736 
  231.731,166.772 232,166.562 232.269,166.401 232.538,166.258 232.807,166.05 233.076,165.999 233.345,165.916 233.614,165.803 233.883,165.734 234.152,165.577 
  234.421,165.401 234.69,165.334 234.959,165.278 235.228,165.055 235.497,164.958 235.765,164.79 236.034,164.557 236.303,164.835 236.572,165.072 236.841,165.189 
  237.11,165.419 237.379,165.605 237.648,165.742 237.917,166.016 238.186,166.322 238.455,166.292 238.724,166.314 238.993,166.425 239.262,166.471 239.531,166.582 
  239.8,166.743 240.069,166.803 240.338,166.859 240.607,167.182 240.876,167.434 241.145,167.714 241.414,168.076 241.683,168.166 241.952,168.344 242.221,168.533 
  242.49,168.633 242.759,169.038 243.028,169.462 243.297,169.657 243.566,169.865 243.835,170.361 244.104,170.612 244.372,171.038 244.641,171.592 244.91,171.11 
  245.179,170.732 245.448,170.578 245.717,170.192 245.986,169.972 246.255,169.826 246.524,169.422 246.793,168.988 247.062,169.112 247.331,169.138 247.6,169.059 
  247.869,169.104 248.138,168.963 248.407,168.793 248.676,168.773 248.945,168.735 249.214,168.46 249.483,168.289 249.752,168.031 250.021,167.686 250.29,167.773 
  250.559,167.701 250.828,167.671 251.097,167.805 251.366,167.305 251.635,166.807 251.904,166.71 252.173,166.563 252.442,166.026 252.711,165.897 252.98,165.444 
  253.248,164.808 253.517,165.902 253.786,166.769 254.055,167.401 254.324,168.465 254.593,168.91 254.862,169.417 255.131,170.27 255.4,171.032 255.669,171.615 
  255.938,172.348 256.207,172.898 256.476,173.347 256.745,174.399 257.014,175.15 257.283,176.029 257.552,177.11 257.821,176.996 258.09,177.04 258.359,177.295 
  258.628,177.268 258.897,177.624 259.166,177.978 259.435,178.092 259.704,178.259 259.973,178.671 260.242,178.968 260.511,179.389 260.78,179.916 261.049,179.968 
  261.318,180.237 261.587,180.46 261.855,180.531 262.124,181.413 262.393,182.264 262.662,182.819 262.931,183.521 263.2,184.374 263.469,185.019 263.738,185.93 
  264.007,186.972 264.276,186.981 264.545,187.075 264.814,187.529 265.083,187.795 265.352,187.98 265.621,188.449 265.89,188.506 266.159,188.438 266.428,189.776 
  266.697,190.783 266.966,191.775 267.235,193.15 267.504,193.393 267.773,193.924 268.042,194.567 268.311,194.848 268.58,196.094 268.849,197.421 269.118,197.882 
  269.387,198.331 269.656,199.904 269.925,200.518 270.194,201.752 270.462,203.445 270.731,201.213 271,199.384 271.269,198.288 271.538,196.264 271.807,195.077 
  272.076,194.019 272.345,192.028 272.614,190.004 272.883,189.519 273.152,188.657 273.421,187.626 273.69,186.963 273.959,185.381 274.228,183.916 274.497,182.714 
  274.766,181.304 275.035,180.103 275.304,179.006 275.573,177.572 275.842,176.106 276.111,175.298 276.38,174.139 276.649,173.183 276.918,172.516 277.187,170.385 
  277.456,168.288 277.725,166.961 277.994,165.466 278.263,163.321 278.532,161.91 278.801,159.85 279.07,157.441 279.338,158.246 279.607,158.68 279.876,158.511 
  280.145,159.09 280.414,158.905 280.683,158.61 280.952,159.06 281.221,159.502 281.49,158.713 281.759,158.213 282.028,157.803 282.297,157.077 282.566,157.108 
  282.835,157.002 283.104,156.676 283.373,156.513 283.642,156.07 283.911,155.513 284.18,155.273 284.449,155.032 284.718,154.142 284.987,153.584 285.256,152.787 
  285.525,151.688 285.794,152.057 286.063,152.354 286.332,151.9 286.601,151.617 286.87,151.861 287.139,151.395 287.408,151.577 287.677,152.051 287.945,149.442 
  288.214,147.276 288.483,145.457 288.752,142.849 289.021,141.534 289.29,140.019 289.559,137.935 289.828,136.089 290.097,134.184 290.366,132.027 290.635,130.385 
  290.904,128.874 291.173,126.147 291.442,124.138 291.711,121.719 291.98,118.862 292.249,118.938 292.518,118.585 292.787,117.809 293.056,117.751 293.325,116.524 
  293.594,115.41 293.863,114.838 294.132,114.039 294.401,113.093 294.67,112.422 294.939,111.201 295.208,109.768 295.477,109.725 295.746,108.91 296.015,108.415 
  296.284,108.413 296.553,105.37 296.821,102.528 297.09,100.602 297.359,98.0712 297.628,95.4456 297.897,93.3557 298.166,90.3776 298.435,87.0923 298.704,86.6922 
  298.973,85.9919 299.242,84.4096 299.511,83.3866 299.78,82.2916 300.049,80.5763 300.318,79.9172 300.587,79.4975 300.856,75.8566 301.125,73.0462 301.394,70.1567 
  301.663,66.3657 301.932,65.4972 302.201,63.8266 302.47,61.9873 302.739,61.1182 303.008,57.424 303.277,53.5716 303.546,52.0477 303.815,50.4914 304.084,46.0988 
  304.353,44.2394 304.622,40.6751 304.891,35.9289 305.16,41.5974 305.428,46.1403 305.697,48.8652 305.966,54.0924 306.235,56.7695 306.504,59.2735 306.773,64.1726 
  307.042,69.0283 307.311,70.4832 307.58,72.9247 307.849,75.4771 308.118,77.1481 308.387,81.5282 308.656,85.2718 308.925,88.6599 309.194,92.7536 309.463,94.8228 
  309.732,96.9027 310.001,99.9634 310.27,102.72 310.539,104.663 310.808,107.329 311.077,109.27 311.346,110.706 311.615,115.458 311.884,120.001 312.153,123.15 
  312.422,126.794 312.691,131.145 312.96,134.302 313.229,138.728 313.498,143.672 313.767,143.172 314.036,143.382 314.304,144.468 314.573,144.25 314.842,145.713 
  315.111,147.179 315.38,147.472 315.649,147.936 315.918,149.72 316.187,151.043 316.456,152.578 316.725,154.54 316.994,154.954 317.263,155.944 317.532,156.938 
  317.801,157.495 318.07,160.085 318.339,162.548 318.608,164.41 318.877,166.694 319.146,169.005 319.415,171.014 319.684,173.597 319.953,176.376 320.222,177.447 
  320.491,178.74 320.76,180.555 321.029,182.058 321.298,183.717 321.567,185.722 321.836,187.192 322.105,188.588 322.374,191.692 322.643,194.46 322.911,197.213 
  323.18,200.45 323.449,202.519 323.718,204.916 323.987,207.522 324.256,209.811 324.525,213.034 324.794,216.368 325.063,218.969 325.332,221.618 325.601,225.273 
  325.87,228.106 326.139,231.595 326.408,235.516 326.677,235.917 326.946,236.904 327.215,238.244 327.484,238.68 327.753,240.905 328.022,242.811 328.291,244.151 
  328.56,245.923 328.829,247.125 329.098,248.007 329.367,249.964 329.636,252.095 329.905,252.182 330.174,253.599 330.443,254.287 330.712,254.191 330.981,259.488 
  331.25,264.344 331.518,267.772 331.787,272.332 332.056,276.59 332.325,280.144 332.594,285.168 332.863,290.553 333.132,291.812 333.401,293.584 333.67,296.461 
  333.939,298.494 334.208,301.023 334.477,304.218 334.746,306.026 335.015,307.634 335.284,312.941 335.553,317.192 335.822,321.701 336.091,327.284 336.36,329.027 
  336.629,331.899 336.898,334.844 337.167,336.464 337.436,342.229 337.705,348.142 337.974,350.868 338.243,353.717 338.512,360.235 338.781,363.344 339.05,368.825 
  339.319,375.869 339.588,368.825 339.857,363.344 340.126,360.235 340.394,353.717 340.663,350.868 340.932,348.142 341.201,342.229 341.47,336.464 341.739,334.844 
  342.008,331.899 342.277,329.027 342.546,327.284 342.815,321.701 343.084,317.192 343.353,312.941 343.622,307.634 343.891,306.026 344.16,304.218 344.429,301.023 
  344.698,298.494 344.967,296.461 345.236,293.584 345.505,291.812 345.774,290.553 346.043,285.168 346.312,280.144 346.581,276.59 346.85,272.332 347.119,267.772 
  347.388,264.344 347.657,259.488 347.926,254.191 348.195,254.287 348.464,253.599 348.733,252.182 349.001,252.095 349.27,249.964 349.539,248.007 349.808,247.125 
  350.077,245.923 350.346,244.151 350.615,242.811 350.884,240.905 351.153,238.68 351.422,238.244 351.691,236.904 351.96,235.917 352.229,235.516 352.498,231.595 
  352.767,228.106 353.036,225.273 353.305,221.618 353.574,218.969 353.843,216.368 354.112,213.034 354.381,209.811 354.65,207.522 354.919,204.916 355.188,202.519 
  355.457,200.45 355.726,197.213 355.995,194.46 356.264,191.692 356.533,188.588 356.802,187.192 357.071,185.722 357.34,183.717 357.609,182.058 357.877,180.555 
  358.146,178.74 358.415,177.447 358.684,176.376 358.953,173.597 359.222,171.014 359.491,169.005 359.76,166.694 360.029,164.41 360.298,162.548 360.567,160.085 
  360.836,157.495 361.105,156.938 361.374,155.944 361.643,154.954 361.912,154.54 362.181,152.578 362.45,151.043 362.719,149.72 362.988,147.936 363.257,147.472 
  363.526,147.179 363.795,145.713 364.064,144.25 364.333,144.468 364.602,143.382 364.871,143.172 365.14,143.672 365.409,138.728 365.678,134.302 365.947,131.145 
  366.216,126.794 366.484,123.15 366.753,120.001 367.022,115.458 367.291,110.706 367.56,109.27 367.829,107.329 368.098,104.663 368.367,102.72 368.636,99.9634 
  368.905,96.9027 369.174,94.8228 369.443,92.7536 369.712,88.6599 369.981,85.2718 370.25,81.5282 370.519,77.1481 370.788,75.4771 371.057,72.9247 371.326,70.4832 
  371.595,69.0283 371.864,64.1726 372.133,59.2735 372.402,56.7695 372.671,54.0924 372.94,48.8652 373.209,46.1403 373.478,41.5974 373.747,35.9289 374.016,40.6751 
  374.285,44.2394 374.554,46.0988 374.823,50.4914 375.091,52.0477 375.36,53.5716 375.629,57.424 375.898,61.1182 376.167,61.9873 376.436,63.8266 376.705,65.4972 
  376.974,66.3657 377.243,70.1567 377.512,73.0462 377.781,75.8566 378.05,79.4975 378.319,79.9172 378.588,80.5763 378.857,82.2916 379.126,83.3866 379.395,84.4096 
  379.664,85.9919 379.933,86.6922 380.202,87.0923 380.471,90.3776 380.74,93.3557 381.009,95.4456 381.278,98.0712 381.547,100.602 381.816,102.528 382.085,105.37 
  382.354,108.413 382.623,108.415 382.892,108.91 383.161,109.725 383.43,109.768 383.699,111.201 383.967,112.422 384.236,113.093 384.505,114.039 384.774,114.838 
  385.043,115.41 385.312,116.524 385.581,117.751 385.85,117.809 386.119,118.585 386.388,118.938 386.657,118.862 386.926,121.719 387.195,124.138 387.464,126.147 
  387.733,128.874 388.002,130.385 388.271,132.027 388.54,134.184 388.809,136.089 389.078,137.935 389.347,140.019 389.616,141.534 389.885,142.849 390.154,145.457 
  390.423,147.276 390.692,149.442 390.961,152.051 391.23,151.577 391.499,151.395 391.768,151.861 392.037,151.617 392.306,151.9 392.574,152.354 392.843,152.057 
  393.112,151.688 393.381,152.787 393.65,153.584 393.919,154.142 394.188,155.032 394.457,155.273 394.726,155.513 394.995,156.07 395.264,156.513 395.533,156.676 
  395.802,157.002 396.071,157.108 396.34,157.077 396.609,157.803 396.878,158.213 397.147,158.713 397.416,159.502 397.685,159.06 397.954,158.61 398.223,158.905 
  398.492,159.09 398.761,158.511 399.03,158.68 399.299,158.246 399.568,157.441 399.837,159.85 400.106,161.91 400.375,163.321 400.644,165.466 400.913,166.961 
  401.182,168.288 401.45,170.385 401.719,172.516 401.988,173.183 402.257,174.139 402.526,175.298 402.795,176.106 403.064,177.572 403.333,179.006 403.602,180.103 
  403.871,181.304 404.14,182.714 404.409,183.916 404.678,185.381 404.947,186.963 405.216,187.626 405.485,188.657 405.754,189.519 406.023,190.004 406.292,192.028 
  406.561,194.019 406.83,195.077 407.099,196.264 407.368,198.288 407.637,199.384 407.906,201.213 408.175,203.445 408.444,201.752 408.713,200.518 408.982,199.904 
  409.251,198.331 409.52,197.882 409.789,197.421 410.057,196.094 410.326,194.848 410.595,194.567 410.864,193.924 411.133,193.393 411.402,193.15 411.671,191.775 
  411.94,190.783 412.209,189.776 412.478,188.438 412.747,188.506 413.016,188.449 413.285,187.98 413.554,187.795 413.823,187.529 414.092,187.075 414.361,186.981 
  414.63,186.972 414.899,185.93 415.168,185.019 415.437,184.374 415.706,183.521 415.975,182.819 416.244,182.264 416.513,181.413 416.782,180.531 417.051,180.46 
  417.32,180.237 417.589,179.968 417.858,179.916 418.127,179.389 418.396,178.968 418.665,178.671 418.933,178.259 419.202,178.092 419.471,177.978 419.74,177.624 
  420.009,177.268 420.278,177.295 420.547,177.04 420.816,176.996 421.085,177.11 421.354,176.029 421.623,175.15 421.892,174.399 422.161,173.347 422.43,172.898 
  422.699,172.348 422.968,171.615 423.237,171.032 423.506,170.27 423.775,169.417 424.044,168.91 424.313,168.465 424.582,167.401 424.851,166.769 425.12,165.902 
  425.389,164.808 425.658,165.444 425.927,165.897 426.196,166.026 426.465,166.563 426.734,166.71 427.003,166.807 427.272,167.305 427.54,167.805 427.809,167.671 
  428.078,167.701 428.347,167.773 428.616,167.686 428.885,168.031 429.154,168.289 429.423,168.46 429.692,168.735 429.961,168.773 430.23,168.793 430.499,168.963 
  430.768,169.104 431.037,169.059 431.306,169.138 431.575,169.112 431.844,168.988 432.113,169.422 432.382,169.826 432.651,169.972 432.92,170.192 433.189,170.578 
  433.458,170.732 433.727,171.11 433.996,171.592 434.265,171.038 434.534,170.612 434.803,170.361 435.072,169.865 435.341,169.657 435.61,169.462 435.879,169.038 
  436.147,168.633 436.416,168.533 436.685,168.344 436.954,168.166 437.223,168.076 437.492,167.714 437.761,167.434 438.03,167.182 438.299,166.859 438.568,166.803 
  438.837,166.743 439.106,166.582 439.375,166.471 439.644,166.425 439.913,166.314 440.182,166.292 440.451,166.322 440.72,166.016 440.989,165.742 441.258,165.605 
  441.527,165.419 441.796,165.189 442.065,165.072 442.334,164.835 442.603,164.557 442.872,164.79 443.141,164.958 443.41,165.055 443.679,165.278 443.948,165.334 
  444.217,165.401 444.486,165.577 444.755,165.734 445.023,165.803 445.292,165.916 445.561,165.999 445.83,166.05 446.099,166.258 446.368,166.401 446.637,166.562 
  446.906,166.772 447.175,166.736 447.444,166.726 447.713,166.776 447.982,166.773 448.251,166.814 448.52,166.873 448.789,166.875 449.058,166.875 449.327,166.996 
  449.596,167.095 449.865,167.179 450.134,167.293 450.403,167.353 450.672,167.417 450.941,167.506 451.21,167.586 451.479,167.657 451.748,167.739 452.017,167.805 
  452.286,167.865 452.555,167.971 452.824,168.056 453.093,168.149 453.362,168.259 453.63,168.287 453.899,168.318 454.168,168.389 454.437,168.448 454.706,168.476 
  454.975,168.542 455.244,168.568 455.513,168.576 455.782,168.755 456.051,168.899 456.32,169.034 456.589,169.213 456.858,169.282 457.127,169.376 457.396,169.49 
  457.665,169.572 457.934,169.726 458.203,169.892 458.472,169.981 458.741,170.067 459.01,170.262 459.279,170.37 459.548,170.533 459.817,170.739 460.086,170.589 
  460.355,170.478 460.624,170.429 460.893,170.295 461.162,170.252 461.431,170.214 461.7,170.095 461.969,169.98 462.238,169.975 462.506,169.938 462.775,169.9 
  463.044,169.893 463.313,169.79 463.582,169.713 463.851,169.645 464.12,169.552 464.389,169.546 464.658,169.537 464.927,169.494 465.196,169.467 465.465,169.455 
  465.734,169.423 466.003,169.417 466.272,169.426 466.541,169.332 466.81,169.246 467.079,169.199 467.348,169.135 467.617,169.062 467.886,169.019 468.155,168.94 
  468.424,168.85 468.693,168.9 468.962,168.93 469.231,168.941 469.5,168.987 469.769,168.982 470.038,168.981 470.307,169.008 470.576,169.028 470.845,169.032 
  471.113,169.047 471.382,169.048 471.651,169.042 471.92,169.081 472.189,169.098 472.458,169.123 472.727,169.164 472.996,169.118 473.265,169.083 473.534,169.064 
  473.803,169.025 474.072,169.011 474.341,168.999 474.61,168.969 474.879,168.942 475.148,168.936 475.417,168.924 475.686,168.916 475.955,168.917 476.224,168.889 
  476.493,168.874 476.762,168.858 477.031,168.834 477.3,168.853 477.569,168.868 477.838,168.874 478.107,168.889 478.376,168.898 478.645,168.904 478.914,168.92 
  479.183,168.938 479.452,168.936 479.72,168.938 479.989,168.943 480.258,168.943 480.527,168.953 480.796,168.962 481.065,168.968 481.334,168.976 481.603,168.983 
  481.872,168.989 482.141,168.998 482.41,169.007 482.679,169.01 482.948,169.016 483.217,169.021 483.486,169.022 483.755,169.037 484.024,169.052 484.293,169.06 
  484.562,169.069 484.831,169.084 485.1,169.092 485.369,169.106 485.638,169.124 485.907,169.111 486.176,169.103 486.445,169.099 486.714,169.088 486.983,169.086 
  487.252,169.084 487.521,169.076 487.79,169.068 488.059,169.067 488.328,169.064 488.596,169.062 488.865,169.062 489.134,169.054 489.403,169.049 489.672,169.043 
  489.941,169.035 490.21,169.039 490.479,169.042 490.748,169.041 491.017,169.044 491.286,169.044 491.555,169.044 491.824,169.047 492.093,169.05 492.362,169.046 
  492.631,169.043 492.9,169.042 493.169,169.039 493.438,169.039 493.707,169.038 493.976,169.036 494.245,169.034 494.514,169.036 494.783,169.037 495.052,169.038 
  495.321,169.039 495.59,169.039 495.859,169.04 496.128,169.04 496.397,169.041 496.666,169.042 496.935,169.043 497.203,169.043 497.472,169.043 497.741,169.045 
  498.01,169.045 498.279,169.047 498.548,169.048 498.817,169.047 499.086,169.046 499.355,169.046 499.624,169.045 499.893,169.045 500.162,169.045 500.431,169.044 
  500.7,169.044 500.969,169.044 501.238,169.044 501.507,169.044 501.776,169.045 502.045,169.044 502.314,169.044 502.583,169.044 502.852,169.044 503.121,169.044 
  503.39,169.044 503.659,169.044 503.928,169.044 504.197,169.044 504.466,169.044 504.735,169.044 505.004,169.044 505.273,169.044 505.542,169.044 505.811,169.044 
  506.079,169.044 506.348,169.044 506.617,169.044 506.886,169.044 507.155,169.044 507.424,169.044 507.693,169.044 507.962,169.044 508.231,169.044 508.5,169.044 
  508.769,169.044 509.038,169.044 509.307,169.044 509.576,169.044 509.845,169.044 510.114,169.044 510.383,169.044 510.652,169.044 510.921,169.044 511.19,169.044 
  511.459,169.044 
  "/>
<polygon clip-path="url(#clip1400)" points="
389.273,78.051 562.315,78.051 562.315,32.691 389.273,32.691 
  " fill="#ffffff" fill-opacity="1"/>
<polyline clip-path="url(#clip1400)" style="stroke:#000000; stroke-width:1; stroke-opacity:1; fill:none" points="
  389.273,78.051 562.315,78.051 562.315,32.691 389.273,32.691 389.273,78.051 
  "/>
<polyline clip-path="url(#clip1400)" style="stroke:#009af9; stroke-width:1; stroke-opacity:1; fill:none" points="
  395.273,47.811 431.273,47.811 
  "/>
<g clip-path="url(#clip1400)">
<text style="fill:#000000; fill-opacity:1; font-family:Arial,Helvetica Neue,Helvetica,sans-serif; font-size:12; text-anchor:start;" transform="rotate(0, 437.273, 52.311)" x="437.273" y="52.311">dual scaling of cdf24</text>
</g>
<polyline clip-path="url(#clip1400)" style="stroke:#e26f46; stroke-width:1; stroke-opacity:1; fill:none" points="
  395.273,62.931 431.273,62.931 
  "/>
<g clip-path="url(#clip1400)">
<text style="fill:#000000; fill-opacity:1; font-family:Arial,Helvetica Neue,Helvetica,sans-serif; font-size:12; text-anchor:start;" transform="rotate(0, 437.273, 67.431)" x="437.273" y="67.431">dual wavelet of cdf24</text>
</g>
</svg>
