<?xml version="1.0" encoding="utf-8"?>
<svg xmlns="http://www.w3.org/2000/svg" xmlns:xlink="http://www.w3.org/1999/xlink" width="600" height="400" viewBox="0 0 600 400">
<defs>
  <clipPath id="clip1900">
    <rect x="0" y="0" width="600" height="400"/>
  </clipPath>
</defs>
<polygon clip-path="url(#clip1900)" points="
0,400 600,400 600,0 0,0 
  " fill="#ffffff" fill-opacity="1"/>
<defs>
  <clipPath id="clip1901">
    <rect x="120" y="0" width="421" height="400"/>
  </clipPath>
</defs>
<polygon clip-path="url(#clip1900)" points="
39.502,375.869 580.315,375.869 580.315,11.811 39.502,11.811 
  " fill="#ffffff" fill-opacity="1"/>
<defs>
  <clipPath id="clip1902">
    <rect x="39" y="11" width="542" height="365"/>
  </clipPath>
</defs>
<polyline clip-path="url(#clip1902)" style="stroke:#000000; stroke-width:0.5; stroke-opacity:0.1; fill:none" points="
  39.502,375.869 39.502,11.811 
  "/>
<polyline clip-path="url(#clip1902)" style="stroke:#000000; stroke-width:0.5; stroke-opacity:0.1; fill:none" points="
  116.761,375.869 116.761,11.811 
  "/>
<polyline clip-path="url(#clip1902)" style="stroke:#000000; stroke-width:0.5; stroke-opacity:0.1; fill:none" points="
  194.02,375.869 194.02,11.811 
  "/>
<polyline clip-path="url(#clip1902)" style="stroke:#000000; stroke-width:0.5; stroke-opacity:0.1; fill:none" points="
  271.279,375.869 271.279,11.811 
  "/>
<polyline clip-path="url(#clip1902)" style="stroke:#000000; stroke-width:0.5; stroke-opacity:0.1; fill:none" points="
  348.538,375.869 348.538,11.811 
  "/>
<polyline clip-path="url(#clip1902)" style="stroke:#000000; stroke-width:0.5; stroke-opacity:0.1; fill:none" points="
  425.797,375.869 425.797,11.811 
  "/>
<polyline clip-path="url(#clip1902)" style="stroke:#000000; stroke-width:0.5; stroke-opacity:0.1; fill:none" points="
  503.056,375.869 503.056,11.811 
  "/>
<polyline clip-path="url(#clip1902)" style="stroke:#000000; stroke-width:0.5; stroke-opacity:0.1; fill:none" points="
  580.315,375.869 580.315,11.811 
  "/>
<polyline clip-path="url(#clip1902)" style="stroke:#000000; stroke-width:0.5; stroke-opacity:0.1; fill:none" points="
  39.502,361.843 580.315,361.843 
  "/>
<polyline clip-path="url(#clip1902)" style="stroke:#000000; stroke-width:0.5; stroke-opacity:0.1; fill:none" points="
  39.502,297.049 580.315,297.049 
  "/>
<polyline clip-path="url(#clip1902)" style="stroke:#000000; stroke-width:0.5; stroke-opacity:0.1; fill:none" points="
  39.502,232.255 580.315,232.255 
  "/>
<polyline clip-path="url(#clip1902)" style="stroke:#000000; stroke-width:0.5; stroke-opacity:0.1; fill:none" points="
  39.502,167.461 580.315,167.461 
  "/>
<polyline clip-path="url(#clip1902)" style="stroke:#000000; stroke-width:0.5; stroke-opacity:0.1; fill:none" points="
  39.502,102.667 580.315,102.667 
  "/>
<polyline clip-path="url(#clip1902)" style="stroke:#000000; stroke-width:0.5; stroke-opacity:0.1; fill:none" points="
  39.502,37.8732 580.315,37.8732 
  "/>
<polyline clip-path="url(#clip1900)" style="stroke:#000000; stroke-width:1; stroke-opacity:1; fill:none" points="
  39.502,375.869 580.315,375.869 
  "/>
<polyline clip-path="url(#clip1900)" style="stroke:#000000; stroke-width:1; stroke-opacity:1; fill:none" points="
  39.502,375.869 39.502,11.811 
  "/>
<polyline clip-path="url(#clip1900)" style="stroke:#000000; stroke-width:1; stroke-opacity:1; fill:none" points="
  39.502,375.869 39.502,370.408 
  "/>
<polyline clip-path="url(#clip1900)" style="stroke:#000000; stroke-width:1; stroke-opacity:1; fill:none" points="
  116.761,375.869 116.761,370.408 
  "/>
<polyline clip-path="url(#clip1900)" style="stroke:#000000; stroke-width:1; stroke-opacity:1; fill:none" points="
  194.02,375.869 194.02,370.408 
  "/>
<polyline clip-path="url(#clip1900)" style="stroke:#000000; stroke-width:1; stroke-opacity:1; fill:none" points="
  271.279,375.869 271.279,370.408 
  "/>
<polyline clip-path="url(#clip1900)" style="stroke:#000000; stroke-width:1; stroke-opacity:1; fill:none" points="
  348.538,375.869 348.538,370.408 
  "/>
<polyline clip-path="url(#clip1900)" style="stroke:#000000; stroke-width:1; stroke-opacity:1; fill:none" points="
  425.797,375.869 425.797,370.408 
  "/>
<polyline clip-path="url(#clip1900)" style="stroke:#000000; stroke-width:1; stroke-opacity:1; fill:none" points="
  503.056,375.869 503.056,370.408 
  "/>
<polyline clip-path="url(#clip1900)" style="stroke:#000000; stroke-width:1; stroke-opacity:1; fill:none" points="
  580.315,375.869 580.315,370.408 
  "/>
<polyline clip-path="url(#clip1900)" style="stroke:#000000; stroke-width:1; stroke-opacity:1; fill:none" points="
  39.502,361.843 47.6142,361.843 
  "/>
<polyline clip-path="url(#clip1900)" style="stroke:#000000; stroke-width:1; stroke-opacity:1; fill:none" points="
  39.502,297.049 47.6142,297.049 
  "/>
<polyline clip-path="url(#clip1900)" style="stroke:#000000; stroke-width:1; stroke-opacity:1; fill:none" points="
  39.502,232.255 47.6142,232.255 
  "/>
<polyline clip-path="url(#clip1900)" style="stroke:#000000; stroke-width:1; stroke-opacity:1; fill:none" points="
  39.502,167.461 47.6142,167.461 
  "/>
<polyline clip-path="url(#clip1900)" style="stroke:#000000; stroke-width:1; stroke-opacity:1; fill:none" points="
  39.502,102.667 47.6142,102.667 
  "/>
<polyline clip-path="url(#clip1900)" style="stroke:#000000; stroke-width:1; stroke-opacity:1; fill:none" points="
  39.502,37.8732 47.6142,37.8732 
  "/>
<g clip-path="url(#clip1900)">
<text style="fill:#000000; fill-opacity:1; font-family:Arial,Helvetica Neue,Helvetica,sans-serif; font-size:12; text-anchor:middle;" transform="rotate(0, 39.502, 389.669)" x="39.502" y="389.669">-2</text>
</g>
<g clip-path="url(#clip1900)">
<text style="fill:#000000; fill-opacity:1; font-family:Arial,Helvetica Neue,Helvetica,sans-serif; font-size:12; text-anchor:middle;" transform="rotate(0, 116.761, 389.669)" x="116.761" y="389.669">-1</text>
</g>
<g clip-path="url(#clip1900)">
<text style="fill:#000000; fill-opacity:1; font-family:Arial,Helvetica Neue,Helvetica,sans-serif; font-size:12; text-anchor:middle;" transform="rotate(0, 194.02, 389.669)" x="194.02" y="389.669">0</text>
</g>
<g clip-path="url(#clip1900)">
<text style="fill:#000000; fill-opacity:1; font-family:Arial,Helvetica Neue,Helvetica,sans-serif; font-size:12; text-anchor:middle;" transform="rotate(0, 271.279, 389.669)" x="271.279" y="389.669">1</text>
</g>
<g clip-path="url(#clip1900)">
<text style="fill:#000000; fill-opacity:1; font-family:Arial,Helvetica Neue,Helvetica,sans-serif; font-size:12; text-anchor:middle;" transform="rotate(0, 348.538, 389.669)" x="348.538" y="389.669">2</text>
</g>
<g clip-path="url(#clip1900)">
<text style="fill:#000000; fill-opacity:1; font-family:Arial,Helvetica Neue,Helvetica,sans-serif; font-size:12; text-anchor:middle;" transform="rotate(0, 425.797, 389.669)" x="425.797" y="389.669">3</text>
</g>
<g clip-path="url(#clip1900)">
<text style="fill:#000000; fill-opacity:1; font-family:Arial,Helvetica Neue,Helvetica,sans-serif; font-size:12; text-anchor:middle;" transform="rotate(0, 503.056, 389.669)" x="503.056" y="389.669">4</text>
</g>
<g clip-path="url(#clip1900)">
<text style="fill:#000000; fill-opacity:1; font-family:Arial,Helvetica Neue,Helvetica,sans-serif; font-size:12; text-anchor:middle;" transform="rotate(0, 580.315, 389.669)" x="580.315" y="389.669">5</text>
</g>
<g clip-path="url(#clip1900)">
<text style="fill:#000000; fill-opacity:1; font-family:Arial,Helvetica Neue,Helvetica,sans-serif; font-size:12; text-anchor:end;" transform="rotate(0, 33.502, 366.343)" x="33.502" y="366.343">-1.0</text>
</g>
<g clip-path="url(#clip1900)">
<text style="fill:#000000; fill-opacity:1; font-family:Arial,Helvetica Neue,Helvetica,sans-serif; font-size:12; text-anchor:end;" transform="rotate(0, 33.502, 301.549)" x="33.502" y="301.549">-0.5</text>
</g>
<g clip-path="url(#clip1900)">
<text style="fill:#000000; fill-opacity:1; font-family:Arial,Helvetica Neue,Helvetica,sans-serif; font-size:12; text-anchor:end;" transform="rotate(0, 33.502, 236.755)" x="33.502" y="236.755">0.0</text>
</g>
<g clip-path="url(#clip1900)">
<text style="fill:#000000; fill-opacity:1; font-family:Arial,Helvetica Neue,Helvetica,sans-serif; font-size:12; text-anchor:end;" transform="rotate(0, 33.502, 171.961)" x="33.502" y="171.961">0.5</text>
</g>
<g clip-path="url(#clip1900)">
<text style="fill:#000000; fill-opacity:1; font-family:Arial,Helvetica Neue,Helvetica,sans-serif; font-size:12; text-anchor:end;" transform="rotate(0, 33.502, 107.167)" x="33.502" y="107.167">1.0</text>
</g>
<g clip-path="url(#clip1900)">
<text style="fill:#000000; fill-opacity:1; font-family:Arial,Helvetica Neue,Helvetica,sans-serif; font-size:12; text-anchor:end;" transform="rotate(0, 33.502, 42.3732)" x="33.502" y="42.3732">1.5</text>
</g>
<polyline clip-path="url(#clip1902)" style="stroke:#009af9; stroke-width:1; stroke-opacity:1; fill:none" points="
  194.02,232.255 194.322,231.855 194.624,231.405 194.925,230.993 195.227,230.448 195.529,230.034 195.831,229.573 196.133,228.998 196.434,228.413 196.736,227.984 
  197.038,227.535 197.34,227.031 197.642,226.553 197.943,225.952 198.245,225.332 198.547,224.731 198.849,224.089 199.15,223.63 199.452,223.176 199.754,222.676 
  200.056,222.221 200.358,221.685 200.659,221.152 200.961,220.651 201.263,220.136 201.565,219.503 201.867,218.857 202.168,218.219 202.47,217.54 202.772,216.908 
  203.074,216.262 203.376,215.58 203.677,214.897 203.979,214.403 204.281,213.922 204.583,213.412 204.885,212.957 205.186,212.419 205.488,211.894 205.79,211.414 
  206.092,210.927 206.394,210.359 206.695,209.789 206.997,209.232 207.299,208.654 207.601,208.123 207.902,207.59 208.204,207.038 208.506,206.495 208.808,205.83 
  209.11,205.15 209.411,204.483 209.713,203.777 210.015,203.105 210.317,202.42 210.619,201.701 210.92,200.978 211.222,200.309 211.524,199.635 211.826,198.943 
  212.128,198.26 212.429,197.538 212.731,196.811 213.033,196.092 213.335,195.359 213.637,194.825 213.938,194.31 214.24,193.768 214.542,193.287 214.844,192.736 
  215.146,192.202 215.447,191.72 215.749,191.237 216.051,190.663 216.353,190.093 216.654,189.545 216.956,188.976 217.258,188.465 217.56,187.957 217.862,187.432 
  218.163,186.922 218.465,186.321 218.767,185.713 219.069,185.12 219.371,184.501 219.672,183.913 219.974,183.319 220.276,182.704 220.578,182.09 220.88,181.525 
  221.181,180.962 221.483,180.389 221.785,179.829 222.087,179.241 222.389,178.655 222.69,178.08 222.992,177.5 223.294,176.801 223.596,176.088 223.898,175.385 
  224.199,174.642 224.501,173.941 224.803,173.225 225.105,172.475 225.406,171.723 225.708,171.012 226.01,170.296 226.312,169.564 226.614,168.838 226.915,168.077 
  227.217,167.311 227.519,166.549 227.821,165.774 228.123,165.062 228.424,164.352 228.726,163.627 229.028,162.918 229.33,162.182 229.632,161.448 229.933,160.725 
  230.235,159.997 230.537,159.232 230.839,158.463 231.141,157.697 231.442,156.918 231.744,156.155 232.046,155.388 232.348,154.609 232.649,153.831 232.951,153.252 
  233.253,152.695 233.555,152.116 233.857,151.601 234.158,151.014 234.46,150.448 234.762,149.936 235.064,149.426 235.366,148.837 235.667,148.254 235.969,147.695 
  236.271,147.121 236.573,146.605 236.875,146.095 237.176,145.573 237.478,145.068 237.78,144.462 238.082,143.849 238.384,143.257 238.685,142.637 238.987,142.057 
  239.289,141.472 239.591,140.865 239.893,140.263 240.194,139.719 240.496,139.178 240.798,138.629 241.1,138.098 241.401,137.538 241.703,136.982 242.005,136.441 
  242.307,135.897 242.609,135.263 242.91,134.621 243.212,133.988 243.514,133.327 243.816,132.702 244.118,132.068 244.419,131.409 244.721,130.752 245.023,130.128 
  245.325,129.502 245.627,128.867 245.928,128.239 246.23,127.586 246.532,126.932 246.834,126.282 247.136,125.626 247.437,125.024 247.739,124.427 248.041,123.82 
  248.343,123.228 248.645,122.617 248.946,122.01 249.248,121.416 249.55,120.82 249.852,120.196 250.153,119.572 250.455,118.953 250.757,118.326 251.059,117.715 
  251.361,117.104 251.662,116.486 251.964,115.871 252.266,115.136 252.568,114.385 252.87,113.647 253.171,112.869 253.473,112.129 253.775,111.375 254.077,110.587 
  254.379,109.796 254.68,109.053 254.982,108.305 255.284,107.54 255.586,106.784 255.888,105.989 256.189,105.19 256.491,104.396 256.793,103.591 257.095,102.835 
  257.397,102.081 257.698,101.313 258,100.558 258.302,99.7799 258.604,99.0022 258.905,98.2332 259.207,97.4598 259.509,96.6531 259.811,95.8423 260.113,95.0333 
  260.414,94.2128 260.716,93.4049 261.018,92.5926 261.32,91.77 261.622,90.9467 261.923,90.1876 262.225,89.433 262.527,88.6689 262.829,87.9239 263.131,87.1513 
  263.432,86.3833 263.734,85.6311 264.036,84.8766 264.338,84.0944 264.64,83.3121 264.941,82.5349 265.243,81.7504 265.545,80.9824 265.847,80.214 266.149,79.4393 
  266.45,78.6678 266.752,77.8569 267.054,77.041 267.356,76.2299 267.657,75.4059 267.959,74.5938 268.261,73.7773 268.563,72.9502 268.865,72.122 269.166,71.3118 
  269.468,70.5002 269.77,69.6832 270.072,68.8696 270.374,68.0432 270.675,67.2155 270.977,66.3904 271.279,65.5616 271.581,65.9046 271.883,66.3934 272.184,66.7664 
  272.486,67.5304 272.788,67.9058 273.09,68.4209 273.392,69.2651 273.693,70.1389 273.995,70.5523 274.297,71.0224 274.599,71.6491 274.901,72.1995 275.202,73.1114 
  275.504,74.0736 275.806,74.9813 276.108,76.0061 276.409,76.4943 276.711,76.9665 277.013,77.5733 277.315,78.045 277.617,78.7518 277.918,79.451 278.22,80.0519 
  278.522,80.6945 278.824,81.678 279.126,82.6994 279.427,83.6966 279.729,84.8086 280.031,85.7843 280.333,86.8006 280.635,87.9179 280.936,89.0381 281.238,89.5956 
  281.54,90.1142 281.842,90.7164 282.144,91.1513 282.445,91.8318 282.747,92.4732 283.049,92.9756 283.351,93.499 283.653,94.263 283.954,95.0282 284.256,95.7505 
  284.558,96.5361 284.86,97.1792 285.161,97.827 285.463,98.5288 285.765,99.2036 286.067,100.233 286.369,101.308 286.67,102.341 286.972,103.49 287.274,104.532 
  287.576,105.615 287.878,106.793 288.179,107.982 288.481,109.009 288.783,110.051 289.085,111.142 289.387,112.203 289.688,113.379 289.99,114.567 290.292,115.733 
  290.594,116.933 290.896,117.561 291.197,118.131 291.499,118.778 291.801,119.246 292.103,119.916 292.404,120.532 292.706,121.001 293.008,121.469 293.31,122.197 
  293.612,122.914 293.913,123.566 294.215,124.276 294.517,124.816 294.819,125.348 295.121,125.926 295.422,126.461 295.724,127.254 296.026,128.069 296.328,128.835 
  296.63,129.676 296.931,130.426 297.233,131.194 297.535,132.019 297.837,132.84 298.139,133.516 298.44,134.189 298.742,134.887 299.044,135.545 299.346,136.281 
  299.648,137.011 299.949,137.709 300.251,138.419 300.553,139.472 300.855,140.565 301.156,141.626 301.458,142.801 301.76,143.854 302.062,144.948 302.364,146.138 
  302.665,147.335 302.967,148.408 303.269,149.497 303.571,150.629 303.873,151.742 304.174,152.955 304.476,154.183 304.778,155.397 305.08,156.644 305.382,157.71 
  305.683,158.767 305.985,159.866 306.287,160.918 306.589,162.046 306.891,163.169 307.192,164.256 307.494,165.355 307.796,166.562 308.098,167.779 308.4,168.985 
  308.701,170.226 309.003,171.419 309.305,172.624 309.607,173.858 309.908,175.091 310.21,175.722 310.512,176.285 310.814,176.913 311.116,177.345 311.417,177.991 
  311.719,178.572 312.021,178.987 312.323,179.396 312.625,180.042 312.926,180.665 313.228,181.216 313.53,181.81 313.832,182.227 314.134,182.625 314.435,183.056 
  314.737,183.433 315.039,184.114 315.341,184.812 315.643,185.445 315.944,186.161 316.246,186.755 316.548,187.362 316.85,188.031 317.152,188.687 317.453,189.164 
  317.755,189.63 318.057,190.118 318.359,190.551 318.66,191.067 318.962,191.569 319.264,192.025 319.566,192.488 319.868,193.222 320.169,193.979 320.471,194.704 
  320.773,195.514 321.075,196.213 321.377,196.936 321.678,197.732 321.98,198.523 322.282,199.208 322.584,199.9 322.886,200.617 323.187,201.311 323.489,202.077 
  323.791,202.848 324.093,203.599 324.395,204.369 324.696,204.975 324.998,205.565 325.3,206.181 325.602,206.748 325.904,207.372 326.205,207.983 326.507,208.553 
  326.809,209.125 327.111,209.781 327.412,210.436 327.714,211.073 328.016,211.73 328.318,212.339 328.62,212.947 328.921,213.573 329.223,214.188 329.525,215.161 
  329.827,216.177 330.129,217.155 330.43,218.251 330.732,219.23 331.034,220.251 331.336,221.37 331.638,222.498 331.939,223.477 332.241,224.471 332.543,225.513 
  332.845,226.528 333.147,227.655 333.448,228.795 333.75,229.916 334.052,231.071 334.354,232.073 334.656,233.07 334.957,234.105 335.259,235.101 335.561,236.163 
  335.863,237.223 336.164,238.254 336.466,239.296 336.768,240.436 337.07,241.587 337.372,242.73 337.673,243.906 337.975,245.042 338.277,246.189 338.579,247.365 
  338.881,248.541 339.182,249.523 339.484,250.489 339.786,251.482 340.088,252.415 340.39,253.43 340.691,254.428 340.993,255.377 341.295,256.331 341.597,257.366 
  341.899,258.4 342.2,259.416 342.502,260.452 342.804,261.437 343.106,262.421 343.408,263.421 343.709,264.41 344.011,265.516 344.313,266.634 344.615,267.736 
  344.916,268.875 345.218,269.976 345.52,271.089 345.822,272.231 346.124,273.374 346.425,274.461 346.727,275.551 347.029,276.655 347.331,277.747 347.633,278.875 
  347.934,280.005 348.236,281.126 348.538,282.255 348.84,282.268 349.142,282.142 349.443,282.13 349.745,281.747 350.047,281.734 350.349,281.589 350.651,281.132 
  350.952,280.649 351.254,280.61 351.556,280.518 351.858,280.279 352.159,280.115 352.461,279.606 352.763,279.051 353.065,278.551 353.367,277.941 353.668,277.838 
  353.97,277.751 354.272,277.539 354.574,277.455 354.876,277.151 355.177,276.855 355.479,276.653 355.781,276.413 356.083,275.852 356.385,275.256 356.686,274.685 
  356.988,274.006 357.29,273.457 357.592,272.871 357.894,272.191 358.195,271.509 358.497,271.377 358.799,271.284 359.101,271.113 359.403,271.106 359.704,270.863 
  360.006,270.66 360.308,270.594 360.61,270.51 360.911,270.194 361.213,269.878 361.515,269.606 361.817,269.275 362.119,269.085 362.42,268.892 362.722,268.648 
  363.024,268.433 363.326,267.876 363.628,267.278 363.929,266.722 364.231,266.056 364.533,265.496 364.835,264.898 365.137,264.209 365.438,263.513 365.74,262.975 
  366.042,262.425 366.344,261.83 366.646,261.266 366.947,260.592 367.249,259.909 367.551,259.25 367.853,258.559 368.155,258.396 368.456,258.289 368.758,258.112 
  369.06,258.101 369.362,257.905 369.663,257.761 369.965,257.753 370.267,257.748 370.569,257.503 370.871,257.27 371.172,257.098 371.474,256.874 371.776,256.808 
  372.078,256.751 372.38,256.652 372.681,256.595 372.983,256.302 373.285,255.99 373.587,255.725 373.889,255.391 374.19,255.143 374.492,254.881 374.794,254.566 
  375.096,254.258 375.398,254.082 375.699,253.912 376.001,253.72 376.303,253.565 376.605,253.341 376.907,253.123 377.208,252.936 377.51,252.739 377.812,252.226 
  378.114,251.677 378.415,251.158 378.717,250.535 379.019,250.026 379.321,249.482 379.623,248.848 379.924,248.211 380.226,247.689 380.528,247.154 380.83,246.58 
  381.132,246.026 381.433,245.38 381.735,244.721 382.037,244.077 382.339,243.403 382.641,242.898 382.942,242.403 383.244,241.87 383.546,241.383 383.848,240.826 
  384.15,240.275 384.451,239.758 384.753,239.232 385.055,238.607 385.357,237.975 385.659,237.353 385.96,236.701 386.262,236.093 386.564,235.478 386.866,234.835 
  387.167,234.195 387.469,234.165 387.771,234.206 388.073,234.182 388.375,234.359 388.676,234.322 388.978,234.352 389.28,234.552 389.582,234.76 389.884,234.73 
  390.185,234.725 390.487,234.795 390.789,234.823 391.091,235.032 391.393,235.263 391.694,235.462 391.996,235.718 392.298,235.67 392.6,235.606 392.902,235.61 
  393.203,235.533 393.505,235.58 393.807,235.617 394.109,235.592 394.411,235.584 394.712,235.756 395.014,235.943 395.316,236.11 395.618,236.333 395.919,236.476 
  396.221,236.633 396.523,236.84 396.825,237.042 397.127,236.97 397.428,236.876 397.73,236.817 398.032,236.674 398.334,236.645 398.636,236.594 398.937,236.471 
  399.239,236.354 399.541,236.347 399.843,236.336 400.145,236.3 400.446,236.29 400.748,236.208 401.05,236.125 401.352,236.062 401.654,235.982 401.955,236.072 
  402.257,236.179 402.559,236.261 402.861,236.396 403.163,236.474 403.464,236.568 403.766,236.704 404.068,236.841 404.37,236.895 404.671,236.952 404.973,237.029 
  405.275,237.087 405.577,237.196 405.879,237.308 406.18,237.404 406.482,237.512 406.784,237.266 407.086,236.978 407.388,236.73 407.689,236.367 407.991,236.122 
  408.293,235.837 408.595,235.456 408.897,235.069 409.198,234.832 409.5,234.582 409.802,234.286 410.104,234.019 410.406,233.643 410.707,233.255 411.009,232.888 
  411.311,232.489 411.613,232.245 411.915,232.008 412.216,231.734 412.518,231.501 412.82,231.205 413.122,230.914 413.423,230.652 413.725,230.381 414.027,230.014 
  414.329,229.639 414.631,229.274 414.932,228.878 415.234,228.523 415.536,228.159 415.838,227.769 416.14,227.38 416.441,227.188 416.743,227.013 417.045,226.814 
  417.347,226.676 417.649,226.459 417.95,226.26 418.252,226.112 418.554,225.962 418.856,225.732 419.158,225.506 419.459,225.298 419.761,225.074 420.063,224.902 
  420.365,224.733 420.666,224.55 420.968,224.38 421.27,224.095 421.572,223.8 421.874,223.523 422.175,223.211 422.477,222.939 422.779,222.658 423.081,222.349 
  423.383,222.04 423.684,221.79 423.986,221.539 424.288,221.275 424.59,221.027 424.892,220.743 425.193,220.46 425.495,220.189 425.797,219.91 426.099,219.95 
  426.401,220.029 426.702,220.075 427.004,220.226 427.306,220.273 427.608,220.357 427.91,220.529 428.211,220.709 428.513,220.758 428.815,220.821 429.117,220.927 
  429.418,221.01 429.72,221.192 430.022,221.386 430.324,221.563 430.626,221.772 430.927,221.842 431.229,221.907 431.531,222.007 431.833,222.072 432.135,222.197 
  432.436,222.319 432.738,222.416 433.04,222.524 433.342,222.72 433.644,222.925 433.945,223.124 434.247,223.353 434.549,223.546 434.851,223.749 435.153,223.978 
  435.454,224.207 435.756,224.268 436.058,224.316 436.36,224.387 436.662,224.407 436.963,224.498 437.265,224.575 437.567,224.611 437.869,224.65 438.17,224.761 
  438.472,224.87 438.774,224.965 439.076,225.078 439.378,225.147 439.679,225.215 439.981,225.298 440.283,225.372 440.585,225.548 440.887,225.735 441.188,225.909 
  441.49,226.115 441.792,226.289 442.094,226.473 442.396,226.683 442.697,226.895 442.999,227.059 443.301,227.225 443.603,227.404 443.905,227.573 444.206,227.773 
  444.508,227.976 444.81,228.171 445.112,228.375 445.414,228.447 445.715,228.506 446.017,228.582 446.319,228.617 446.621,228.697 446.922,228.764 447.224,228.798 
  447.526,228.831 447.828,228.923 448.13,229.013 448.431,229.087 448.733,229.175 449.035,229.223 449.337,229.268 449.639,229.324 449.94,229.37 450.242,229.473 
  450.544,229.58 450.846,229.675 451.148,229.787 451.449,229.879 451.751,229.973 452.053,230.08 452.355,230.186 452.657,230.259 452.958,230.33 453.26,230.407 
  453.562,230.475 453.864,230.559 454.166,230.642 454.467,230.717 454.769,230.794 455.071,230.952 455.373,231.119 455.674,231.278 455.976,231.464 456.278,231.62 
  456.58,231.786 456.882,231.974 457.183,232.163 457.485,232.322 457.787,232.485 458.089,232.657 458.391,232.825 458.692,233.015 458.994,233.209 459.296,233.399 
  459.598,233.597 459.9,233.751 460.201,233.903 460.503,234.064 460.805,234.214 461.107,234.381 461.409,234.546 461.71,234.703 462.012,234.862 462.314,235.046 
  462.616,235.232 462.918,235.416 463.219,235.606 463.521,235.786 463.823,235.967 464.125,236.155 464.426,236.343 464.728,236.32 465.03,236.273 465.332,236.247 
  465.634,236.152 465.935,236.13 466.237,236.083 466.539,235.978 466.841,235.869 467.143,235.842 467.444,235.806 467.746,235.743 468.048,235.695 468.35,235.583 
  468.652,235.463 468.953,235.354 469.255,235.225 469.557,235.198 469.859,235.175 470.161,235.129 470.462,235.109 470.764,235.047 471.066,234.988 471.368,234.948 
  471.67,234.903 471.971,234.795 472.273,234.682 472.575,234.575 472.877,234.448 473.178,234.347 473.48,234.241 473.782,234.118 474.084,233.995 474.386,233.968 
  474.687,233.948 474.989,233.915 475.291,233.911 475.593,233.866 475.895,233.829 476.196,233.816 476.498,233.8 476.8,233.745 477.102,233.691 477.404,233.645 
  477.705,233.59 478.007,233.559 478.309,233.528 478.611,233.489 478.913,233.456 479.214,233.363 479.516,233.263 479.818,233.172 480.12,233.061 480.421,232.97 
  480.723,232.872 481.025,232.759 481.327,232.646 481.629,232.56 481.93,232.473 482.232,232.379 482.534,232.29 482.836,232.183 483.138,232.075 483.439,231.972 
  483.741,231.863 484.043,231.872 484.345,231.894 484.647,231.901 484.948,231.947 485.25,231.953 485.552,231.971 485.854,232.02 486.156,232.071 486.457,232.071 
  486.759,232.075 487.061,232.094 487.363,232.102 487.665,232.146 487.966,232.193 488.268,232.232 488.57,232.282 488.872,232.279 489.173,232.274 489.475,232.28 
  489.777,232.272 490.079,232.284 490.381,232.294 490.682,232.294 490.984,232.296 491.286,232.329 491.588,232.364 491.89,232.396 492.191,232.436 492.493,232.463 
  492.795,232.492 493.097,232.529 493.399,232.565 493.7,232.534 494.002,232.498 494.304,232.468 494.606,232.418 494.908,232.393 495.209,232.362 495.511,232.313 
  495.813,232.264 496.115,232.241 496.417,232.216 496.718,232.184 497.02,232.157 497.322,232.112 497.624,232.065 497.925,232.023 498.227,231.975 498.529,231.965 
  498.831,231.958 499.133,231.944 499.434,231.941 499.736,231.924 500.038,231.909 500.34,231.903 500.642,231.897 500.943,231.87 501.245,231.843 501.547,231.819 
  501.849,231.79 502.151,231.771 502.452,231.752 502.754,231.728 503.056,231.707 503.358,231.711 503.66,231.718 503.961,231.724 504.263,231.738 504.565,231.742 
  504.867,231.749 505.169,231.763 505.47,231.778 505.772,231.784 506.074,231.791 506.376,231.802 506.677,231.811 506.979,231.827 507.281,231.845 507.583,231.862 
  507.885,231.881 508.186,231.884 508.488,231.887 508.79,231.893 509.092,231.895 509.394,231.903 509.695,231.911 509.997,231.916 510.299,231.921 510.601,231.935 
  510.903,231.95 511.204,231.964 511.506,231.98 511.808,231.993 512.11,232.006 512.412,232.022 512.713,232.037 513.015,232.045 513.317,232.052 513.619,232.06 
  513.921,232.067 514.222,232.076 514.524,232.086 514.826,232.093 515.128,232.101 515.429,232.112 515.731,232.123 516.033,232.134 516.335,232.145 516.637,232.154 
  516.938,232.164 517.24,232.175 517.542,232.185 517.844,232.2 518.146,232.217 518.447,232.233 518.749,232.251 519.051,232.267 519.353,232.283 519.655,232.302 
  519.956,232.32 520.258,232.336 520.56,232.353 520.862,232.37 521.164,232.387 521.465,232.405 521.767,232.424 522.069,232.443 522.371,232.462 522.673,232.459 
  522.974,232.452 523.276,232.449 523.578,232.438 523.88,232.434 524.181,232.429 524.483,232.417 524.785,232.404 525.087,232.402 525.389,232.398 525.69,232.392 
  525.992,232.388 526.294,232.376 526.596,232.364 526.898,232.353 527.199,232.341 527.501,232.338 527.803,232.337 528.105,232.333 528.407,232.332 528.708,232.326 
  529.01,232.321 529.312,232.319 529.614,232.315 529.916,232.306 530.217,232.295 530.519,232.286 530.821,232.275 531.123,232.266 531.425,232.257 531.726,232.246 
  532.028,232.236 532.33,232.237 532.632,232.24 532.933,232.241 533.235,232.246 533.537,232.246 533.839,232.248 534.141,232.252 534.442,232.256 534.744,232.256 
  535.046,232.256 535.348,232.257 535.65,232.257 535.951,232.261 536.253,232.264 536.555,232.267 536.857,232.271 537.159,232.267 537.46,232.263 537.762,232.261 
  538.064,232.256 538.366,232.253 538.668,232.25 538.969,232.246 539.271,232.241 539.573,232.24 539.875,232.24 540.176,232.238 540.478,232.237 540.78,232.235 
  541.082,232.232 541.384,232.23 541.685,232.228 541.987,232.228 542.289,232.229 542.591,232.23 542.893,232.231 543.194,232.232 543.496,232.233 543.798,232.235 
  544.1,232.237 544.402,232.237 544.703,232.237 545.005,232.238 545.307,232.239 545.609,232.24 545.911,232.242 546.212,232.243 546.514,232.244 546.816,232.245 
  547.118,232.246 547.42,232.247 547.721,232.248 548.023,232.249 548.325,232.25 548.627,232.251 548.928,232.252 549.23,232.253 549.532,232.255 549.834,232.257 
  550.136,232.258 550.437,232.26 550.739,232.262 551.041,232.264 551.343,232.266 551.645,232.265 551.946,232.264 552.248,232.264 552.55,232.263 552.852,232.262 
  553.154,232.262 553.455,232.261 553.757,232.259 554.059,232.259 554.361,232.259 554.663,232.259 554.964,232.258 555.266,232.257 555.568,232.256 555.87,232.255 
  556.172,232.254 556.473,232.254 556.775,232.255 557.077,232.255 557.379,232.255 557.68,232.255 557.982,232.255 558.284,232.256 558.586,232.256 558.888,232.256 
  559.189,232.255 559.491,232.255 559.793,232.255 560.095,232.254 560.397,232.254 560.698,232.254 561,232.254 561.302,232.254 561.604,232.254 561.906,232.254 
  562.207,232.254 562.509,232.254 562.811,232.254 563.113,232.255 563.415,232.255 563.716,232.255 564.018,232.255 564.32,232.255 564.622,232.255 564.924,232.255 
  565.225,232.255 565.527,232.256 565.829,232.256 566.131,232.256 566.432,232.256 566.734,232.256 567.036,232.255 567.338,232.255 567.64,232.255 567.941,232.255 
  568.243,232.255 568.545,232.255 568.847,232.255 569.149,232.255 569.45,232.255 569.752,232.255 570.054,232.255 570.356,232.255 570.658,232.255 570.959,232.255 
  571.261,232.255 571.563,232.255 571.865,232.255 572.167,232.255 572.468,232.255 572.77,232.255 573.072,232.255 573.374,232.255 573.676,232.255 573.977,232.255 
  574.279,232.255 574.581,232.255 574.883,232.255 575.184,232.255 575.486,232.255 575.788,232.255 576.09,232.255 576.392,232.255 576.693,232.255 576.995,232.255 
  577.297,232.255 577.599,232.255 577.901,232.255 578.202,232.255 578.504,232.255 578.806,232.255 579.108,232.255 579.41,232.255 579.711,232.255 580.013,232.255 
  580.315,232.255 
  "/>
<polyline clip-path="url(#clip1902)" style="stroke:#e26f46; stroke-width:1; stroke-opacity:1; fill:none" points="
  39.502,232.255 39.8038,232.213 40.1056,232.165 40.4074,232.122 40.7092,232.064 41.011,232.02 41.3128,231.971 41.6146,231.91 41.9164,231.848 42.2182,231.803 
  42.5199,231.755 42.8217,231.702 43.1235,231.651 43.4253,231.588 43.7271,231.522 44.0289,231.458 44.3307,231.39 44.6325,231.342 44.9343,231.294 45.2361,231.241 
  45.5379,231.193 45.8397,231.136 46.1415,231.079 46.4433,231.026 46.745,230.972 47.0468,230.905 47.3486,230.837 47.6504,230.769 47.9522,230.697 48.254,230.63 
  48.5558,230.562 48.8576,230.49 49.1594,230.417 49.4612,230.365 49.763,230.314 50.0648,230.26 50.3666,230.212 50.6684,230.155 50.9701,230.099 51.2719,230.048 
  51.5737,229.997 51.8755,229.937 52.1773,229.876 52.4791,229.817 52.7809,229.756 53.0827,229.7 53.3845,229.643 53.6863,229.585 53.9881,229.527 54.2899,229.457 
  54.5917,229.385 54.8935,229.314 55.1952,229.24 55.497,229.169 55.7988,229.096 56.1006,229.02 56.4024,228.943 56.7042,228.872 57.006,228.801 57.3078,228.728 
  57.6096,228.656 57.9114,228.579 58.2132,228.502 58.515,228.426 58.8168,228.348 59.1186,228.292 59.4203,228.237 59.7221,228.18 60.0239,228.129 60.3257,228.071 
  60.6275,228.014 60.9293,227.963 61.2311,227.912 61.5329,227.851 61.8347,227.791 62.1365,227.733 62.4383,227.672 62.7401,227.618 63.0419,227.565 63.3437,227.509 
  63.6454,227.455 63.9472,227.391 64.249,227.327 64.5508,227.264 64.8526,227.199 65.1544,227.136 65.4562,227.073 65.758,227.008 66.0598,226.943 66.3616,226.883 
  66.6634,226.824 66.9652,226.763 67.267,226.704 67.5688,226.642 67.8706,226.58 68.1723,226.519 68.4741,226.457 68.7759,226.383 69.0777,226.308 69.3795,226.233 
  69.6813,226.155 69.9831,226.08 70.2849,226.005 70.5867,225.925 70.8885,225.845 71.1903,225.77 71.4921,225.694 71.7939,225.617 72.0957,225.54 72.3974,225.459 
  72.6992,225.378 73.001,225.298 73.3028,225.216 73.6046,225.14 73.9064,225.065 74.2082,224.988 74.51,224.913 74.8118,224.835 75.1136,224.757 75.4154,224.681 
  75.7172,224.604 76.019,224.523 76.3208,224.441 76.6225,224.36 76.9243,224.278 77.2261,224.197 77.5279,224.116 77.8297,224.033 78.1315,223.951 78.4333,223.89 
  78.7351,223.831 79.0369,223.769 79.3387,223.715 79.6405,223.653 79.9423,223.593 80.2441,223.539 80.5459,223.485 80.8476,223.422 81.1494,223.36 81.4512,223.301 
  81.753,223.24 82.0548,223.186 82.3566,223.132 82.6584,223.077 82.9602,223.023 83.262,222.959 83.5638,222.894 83.8656,222.831 84.1674,222.766 84.4692,222.704 
  84.771,222.642 85.0727,222.578 85.3745,222.514 85.6763,222.457 85.9781,222.399 86.2799,222.341 86.5817,222.285 86.8835,222.226 87.1853,222.167 87.4871,222.11 
  87.7889,222.052 88.0907,221.985 88.3925,221.917 88.6943,221.85 88.9961,221.78 89.2978,221.714 89.5996,221.646 89.9014,221.577 90.2032,221.507 90.505,221.441 
  90.8068,221.375 91.1086,221.308 91.4104,221.241 91.7122,221.172 92.014,221.103 92.3158,221.034 92.6176,220.964 92.9194,220.901 93.2212,220.837 93.523,220.773 
  93.8247,220.71 94.1265,220.646 94.4283,220.581 94.7301,220.518 95.0319,220.455 95.3337,220.389 95.6355,220.323 95.9373,220.258 96.2391,220.191 96.5409,220.127 
  96.8427,220.062 97.1445,219.996 97.4463,219.931 97.7481,219.853 98.0498,219.774 98.3516,219.696 98.6534,219.613 98.9552,219.535 99.257,219.455 99.5588,219.372 
  99.8606,219.288 100.162,219.209 100.464,219.13 100.766,219.049 101.068,218.969 101.37,218.885 101.671,218.8 101.973,218.716 102.275,218.631 102.577,218.551 
  102.879,218.471 103.18,218.39 103.482,218.31 103.784,218.227 104.086,218.145 104.387,218.064 104.689,217.982 104.991,217.896 105.293,217.811 105.595,217.725 
  105.896,217.638 106.198,217.552 106.5,217.466 106.802,217.379 107.104,217.292 107.405,217.212 107.707,217.132 108.009,217.051 108.311,216.972 108.613,216.89 
  108.914,216.809 109.216,216.729 109.518,216.649 109.82,216.567 110.122,216.484 110.423,216.401 110.725,216.318 111.027,216.237 111.329,216.156 111.631,216.074 
  111.932,215.992 112.234,215.906 112.536,215.82 112.838,215.734 113.139,215.647 113.441,215.561 113.743,215.474 114.045,215.387 114.347,215.299 114.648,215.213 
  114.95,215.127 115.252,215.041 115.554,214.954 115.856,214.867 116.157,214.779 116.459,214.692 116.761,214.604 117.063,214.861 117.365,215.162 117.666,215.429 
  117.968,215.811 118.27,216.079 118.572,216.388 118.874,216.795 119.175,217.21 119.477,217.491 119.779,217.789 120.081,218.133 120.383,218.456 120.684,218.884 
  120.986,219.328 121.288,219.757 121.59,220.22 121.891,220.525 122.193,220.825 122.495,221.166 122.797,221.467 123.099,221.838 123.4,222.206 123.702,222.547 
  124.004,222.899 124.306,223.353 124.608,223.818 124.909,224.276 125.211,224.768 125.513,225.22 125.815,225.685 126.117,226.18 126.418,226.676 126.72,227.007 
  127.022,227.328 127.324,227.674 127.626,227.97 127.927,228.34 128.229,228.698 128.531,229.016 128.833,229.34 129.135,229.735 129.436,230.131 129.738,230.515 
  130.04,230.917 130.342,231.278 130.643,231.641 130.945,232.02 131.247,232.392 131.549,232.868 131.851,233.357 132.152,233.835 132.454,234.347 132.756,234.828 
  133.058,235.321 133.36,235.843 133.661,236.368 133.963,236.846 134.265,237.329 134.567,237.827 134.869,238.316 135.17,238.839 135.472,239.366 135.774,239.887 
  136.076,240.418 136.378,240.78 136.679,241.125 136.981,241.493 137.283,241.808 137.585,242.183 137.887,242.543 138.188,242.859 138.49,243.175 138.792,243.569 
  139.094,243.96 139.395,244.332 139.697,244.721 139.999,245.06 140.301,245.397 140.603,245.748 140.904,246.087 141.206,246.502 141.508,246.925 141.81,247.333 
  142.112,247.764 142.413,248.168 142.715,248.577 143.017,249.005 143.319,249.43 143.621,249.814 143.922,250.196 144.224,250.587 144.526,250.966 144.828,251.368 
  145.13,251.769 145.431,252.16 145.733,252.556 146.035,253.053 146.337,253.563 146.639,254.063 146.94,254.598 147.242,255.097 147.544,255.608 147.846,256.148 
  148.147,256.69 148.449,257.196 148.751,257.707 149.053,258.231 149.355,258.75 149.656,259.298 149.958,259.852 150.26,260.401 150.562,260.961 150.864,261.467 
  151.165,261.971 151.467,262.488 151.769,262.99 152.071,263.516 152.373,264.041 152.674,264.555 152.976,265.073 153.278,265.624 153.58,266.177 153.882,266.728 
  154.183,267.29 154.485,267.838 154.787,268.389 155.089,268.949 155.391,269.509 155.692,269.896 155.994,270.263 156.296,270.65 156.598,270.98 156.899,271.372 
  157.201,271.746 157.503,272.073 157.805,272.398 158.107,272.792 158.408,273.179 158.71,273.546 159.012,273.926 159.314,274.255 159.616,274.579 159.917,274.913 
  160.219,275.232 160.521,275.639 160.823,276.051 161.125,276.445 161.426,276.863 161.728,277.246 162.03,277.634 162.332,278.04 162.634,278.442 162.935,278.793 
  163.237,279.141 163.539,279.495 163.841,279.835 164.142,280.199 164.444,280.559 164.746,280.906 165.048,281.255 165.35,281.683 165.651,282.118 165.953,282.544 
  166.255,282.995 166.557,283.414 166.859,283.841 167.16,284.289 167.462,284.735 167.764,285.152 168.066,285.571 168.368,285.998 168.669,286.418 168.971,286.86 
  169.273,287.303 169.575,287.741 169.877,288.185 170.178,288.582 170.48,288.974 170.782,289.375 171.084,289.761 171.386,290.164 171.687,290.564 171.989,290.953 
  172.291,291.343 172.593,291.757 172.894,292.171 173.196,292.58 173.498,292.996 173.8,293.398 174.102,293.8 174.403,294.207 174.705,294.612 175.007,295.121 
  175.309,295.643 175.611,296.154 175.912,296.7 176.214,297.212 176.516,297.737 176.818,298.29 177.12,298.847 177.421,299.36 177.723,299.879 178.025,300.411 
  178.327,300.937 178.629,301.495 178.93,302.057 179.232,302.614 179.534,303.181 179.836,303.704 180.138,304.226 180.439,304.76 180.741,305.282 181.043,305.825 
  181.345,306.366 181.646,306.9 181.948,307.437 182.25,308.004 182.552,308.573 182.854,309.141 183.155,309.719 183.457,310.285 183.759,310.855 184.061,311.434 
  184.363,312.013 184.664,312.536 184.966,313.055 185.268,313.582 185.57,314.093 185.872,314.627 186.173,315.156 186.475,315.672 186.777,316.19 187.079,316.732 
  187.381,317.273 187.682,317.81 187.984,318.353 188.286,318.881 188.588,319.41 188.89,319.943 189.191,320.474 189.493,321.039 189.795,321.608 190.097,322.173 
  190.398,322.748 190.7,323.313 191.002,323.882 191.304,324.46 191.606,325.038 191.907,325.601 192.209,326.164 192.511,326.732 192.813,327.297 193.115,327.873 
  193.416,328.45 193.718,329.024 194.02,329.601 194.322,328.126 194.624,326.395 194.925,324.864 195.227,322.647 195.529,321.109 195.831,319.324 196.133,316.962 
  196.434,314.547 196.736,312.934 197.038,311.22 197.34,309.23 197.642,307.371 197.943,304.879 198.245,302.297 198.547,299.808 198.849,297.113 199.15,295.357 
  199.452,293.627 199.754,291.661 200.056,289.929 200.358,287.783 200.659,285.649 200.961,283.687 201.263,281.649 201.565,279.012 201.867,276.307 202.168,273.642 
  202.47,270.775 202.772,268.145 203.074,265.443 203.376,262.561 203.677,259.674 203.979,257.764 204.281,255.92 204.583,253.928 204.885,252.226 205.186,250.094 
  205.488,248.028 205.79,246.202 206.092,244.338 206.394,242.053 206.695,239.764 206.997,237.548 207.299,235.219 207.601,233.137 207.902,231.044 208.204,228.856 
  208.506,226.712 208.808,223.948 209.11,221.103 209.411,218.33 209.713,215.352 210.015,212.559 210.317,209.692 210.619,206.657 210.92,203.602 211.222,200.826 
  211.524,198.023 211.826,195.132 212.128,192.292 212.429,189.25 212.731,186.183 213.033,183.155 213.335,180.064 213.637,177.981 213.938,175.999 214.24,173.878 
  214.542,172.073 214.844,169.909 215.146,167.839 215.447,166.027 215.749,164.214 216.051,161.942 216.353,159.688 216.654,157.546 216.956,155.301 217.258,153.354 
  217.56,151.42 217.862,149.403 218.163,147.459 218.465,145.059 218.767,142.618 219.069,140.262 219.371,137.771 219.672,135.44 219.974,133.077 220.276,130.609 
  220.578,128.149 220.88,125.941 221.181,123.739 221.483,121.49 221.785,119.309 222.087,116.991 222.389,114.679 222.69,112.424 222.992,110.146 223.294,107.263 
  223.596,104.307 223.898,101.405 224.199,98.3007 224.501,95.4099 224.803,92.4468 225.105,89.3107 225.406,86.1624 225.708,83.2308 226.01,80.268 226.312,77.2282 
  226.614,74.2216 226.915,71.0357 227.217,67.8223 227.519,64.6322 227.821,61.382 228.123,58.4498 228.424,55.5298 228.726,52.5354 229.028,49.6236 229.33,46.5743 
  229.632,43.5329 229.933,40.5531 230.235,37.5513 230.537,34.3572 230.839,31.1443 231.141,27.9482 231.442,24.6892 231.744,21.512 232.046,18.3145 232.348,15.062 
  232.649,11.811 232.951,13.2123 233.253,15.1822 233.555,16.6889 233.857,19.7426 234.158,21.2292 234.46,23.2628 234.762,26.5998 235.064,30.0429 235.366,31.6664 
  235.667,33.5086 235.969,35.9611 236.271,38.1075 236.573,41.676 236.875,45.4376 237.176,48.978 237.478,52.9753 237.78,54.789 238.082,56.5266 238.384,58.7957 
  238.685,60.5058 238.987,63.1585 239.289,65.7682 239.591,67.9671 239.893,70.3242 240.194,74.0442 240.496,77.9056 240.798,81.658 241.1,85.8617 241.401,89.5034 
  241.703,93.2972 242.005,97.4867 242.307,101.676 242.609,103.686 242.91,105.539 243.212,107.709 243.514,109.226 243.816,111.688 244.118,113.993 244.419,115.754 
  244.721,117.591 245.023,120.347 245.325,123.101 245.627,125.684 245.928,128.505 246.23,130.77 246.532,133.046 246.834,135.525 247.136,137.893 247.437,141.634 
  247.739,145.545 248.041,149.284 248.343,153.471 248.645,157.235 248.946,161.151 249.248,165.432 249.55,169.747 249.852,173.43 250.153,177.161 250.455,181.079 
  250.757,184.872 251.059,189.107 251.361,193.383 251.662,197.565 251.964,201.875 252.266,203.779 252.568,205.426 252.87,207.386 253.171,208.583 253.473,210.618 
  253.775,212.416 254.077,213.586 254.379,214.742 254.68,216.971 254.982,219.141 255.284,221.028 255.586,223.147 255.888,224.543 256.189,225.893 256.491,227.425 
  256.793,228.766 257.095,231.185 257.397,233.683 257.698,235.966 258,238.556 258.302,240.748 258.604,243.002 258.905,245.49 259.207,247.946 259.509,249.784 
  259.811,251.595 260.113,253.501 260.414,255.231 260.716,257.274 261.018,259.285 261.32,261.146 261.622,263.05 261.923,266.36 262.225,269.827 262.527,273.152 
  262.829,276.939 263.131,280.208 263.432,283.633 263.734,287.449 264.036,291.279 264.338,294.585 264.64,297.949 264.941,301.48 265.243,304.918 265.545,308.762 
  265.847,312.656 266.149,316.481 266.45,320.432 266.752,323.618 267.054,326.761 267.356,330.064 267.657,333.157 267.959,336.559 268.261,339.928 268.563,343.136 
  268.865,346.381 269.166,350.065 269.468,353.777 269.77,357.435 270.072,361.226 270.374,364.81 270.675,368.426 270.977,372.157 271.279,375.869 271.581,375.269 
  271.883,374.151 272.184,373.464 272.486,371.349 272.788,370.709 273.09,369.568 273.392,367.221 273.693,364.787 273.995,364.03 274.297,363.076 274.599,361.566 
  274.901,360.342 275.202,357.812 275.504,355.109 275.806,352.614 276.108,349.703 276.409,348.867 276.711,348.114 277.013,346.869 277.315,346.164 277.617,344.576 
  277.918,343.039 278.22,341.902 278.522,340.625 278.824,338.074 279.126,335.4 279.427,332.84 279.729,329.864 280.031,327.429 280.333,324.861 280.635,321.93 
  280.936,319.011 281.238,318.056 281.54,317.247 281.842,316.16 282.144,315.665 282.445,314.323 282.747,313.127 283.049,312.426 283.351,311.662 283.653,310.081 
  283.954,308.507 284.256,307.091 284.558,305.469 284.86,304.349 285.161,303.225 285.463,301.925 285.765,300.73 286.067,298.297 286.369,295.716 286.67,293.295 
  286.972,290.474 287.274,288.042 287.576,285.478 287.878,282.588 288.179,279.673 288.481,277.335 288.783,274.959 289.085,272.42 289.387,269.998 289.688,267.183 
  289.99,264.335 290.292,261.577 290.594,258.71 290.896,258.205 291.197,257.96 291.499,257.419 291.801,257.635 292.103,257.039 292.404,256.684 292.706,256.954 
  293.008,257.246 293.31,256.503 293.612,255.827 293.913,255.436 294.215,254.83 294.517,254.939 294.819,255.103 295.121,255.1 295.422,255.293 295.724,254.433 
  296.026,253.505 296.328,252.798 296.63,251.797 296.931,251.199 297.233,250.549 297.535,249.678 297.837,248.847 298.139,248.634 298.44,248.457 298.742,248.195 
  299.044,248.116 299.346,247.739 299.648,247.402 299.949,247.222 300.251,247.009 300.553,245.444 300.855,243.736 301.156,242.175 301.458,240.176 301.76,238.69 
  302.062,237.062 302.364,235.064 302.665,233.062 302.967,231.577 303.269,230.045 303.571,228.362 303.873,226.777 304.174,224.809 304.476,222.802 304.778,220.872 
  305.08,218.829 305.382,217.537 305.683,216.298 305.985,214.913 306.287,213.741 306.589,212.279 306.891,210.858 307.192,209.604 307.494,208.323 307.796,206.626 
  308.098,204.911 308.4,203.258 308.701,201.486 309.003,199.925 309.305,198.342 309.607,196.658 309.908,195.001 310.21,195.183 310.512,195.581 310.814,195.797 
  311.116,196.622 311.417,196.803 311.719,197.196 312.021,198.103 312.323,199.043 312.625,199.282 312.926,199.605 313.228,200.159 313.53,200.593 313.832,201.577 
  314.134,202.633 314.435,203.602 314.737,204.746 315.039,204.965 315.341,205.144 315.643,205.534 315.944,205.679 316.246,206.214 316.548,206.721 316.85,207.045 
  317.152,207.426 317.453,208.363 317.755,209.35 318.057,210.281 318.359,211.391 318.66,212.258 318.962,213.178 319.264,214.252 319.566,215.318 319.868,215.601 
  320.169,215.826 320.471,216.159 320.773,216.257 321.075,216.694 321.377,217.072 321.678,217.252 321.98,217.457 322.282,217.983 322.584,218.504 322.886,218.964 
  323.187,219.503 323.489,219.844 323.791,220.186 324.093,220.596 324.395,220.963 324.696,221.831 324.998,222.758 325.3,223.62 325.602,224.643 325.904,225.508 
  326.205,226.425 326.507,227.473 326.809,228.531 327.111,229.356 327.412,230.195 327.714,231.1 328.016,231.957 328.318,232.972 328.62,234 328.921,234.99 
  329.223,236.024 329.525,235.939 329.827,235.728 330.129,235.651 330.43,235.213 330.732,235.157 331.034,234.983 331.336,234.51 331.638,234.022 331.939,234.017 
  332.241,233.975 332.543,233.795 332.845,233.712 333.147,233.29 333.448,232.836 333.75,232.457 334.052,231.982 334.354,232.007 334.656,232.06 334.957,232.005 
  335.259,232.087 335.561,231.972 335.863,231.878 336.164,231.887 336.466,231.873 336.768,231.56 337.07,231.227 337.372,230.93 337.673,230.543 337.975,230.294 
  338.277,230.023 338.579,229.673 338.881,229.335 339.182,229.622 339.484,229.97 339.786,230.246 340.088,230.722 340.39,230.955 340.691,231.25 340.993,231.714 
  341.295,232.175 341.597,232.393 341.899,232.629 342.2,232.931 342.502,233.184 342.804,233.61 343.106,234.051 343.408,234.452 343.709,234.902 344.011,234.998 
  344.313,235.066 344.615,235.197 344.916,235.226 345.218,235.386 345.52,235.522 345.822,235.577 346.124,235.641 346.425,235.894 346.727,236.151 347.029,236.376 
  347.331,236.652 347.633,236.826 347.934,237.007 348.236,237.23 348.538,237.437 348.84,237.395 349.142,237.324 349.443,237.275 349.745,237.143 350.047,237.105 
  350.349,237.039 350.651,236.901 350.952,236.76 351.254,236.703 351.556,236.635 351.858,236.537 352.159,236.452 352.461,236.296 352.763,236.13 353.065,235.973 
  353.367,235.792 353.668,235.759 353.97,235.732 354.272,235.675 354.574,235.657 354.876,235.579 355.177,235.506 355.479,235.464 355.781,235.413 356.083,235.279 
  356.385,235.139 356.686,235.008 356.988,234.851 357.29,234.733 357.592,234.608 357.894,234.461 358.195,234.317 358.497,234.244 358.799,234.175 359.101,234.095 
  359.403,234.037 359.704,233.944 360.006,233.855 360.308,233.785 360.61,233.71 360.911,233.607 361.213,233.504 361.515,233.404 361.817,233.297 362.119,233.207 
  362.42,233.115 362.722,233.016 363.024,232.921 363.326,232.772 363.628,232.617 363.929,232.467 364.231,232.3 364.533,232.148 364.835,231.99 365.137,231.817 
  365.438,231.642 365.74,231.489 366.042,231.334 366.344,231.172 366.646,231.013 366.947,230.837 367.249,230.658 367.551,230.482 367.853,230.301 368.155,230.336 
  368.456,230.395 368.758,230.429 369.06,230.534 369.362,230.564 369.663,230.618 369.965,230.73 370.267,230.846 370.569,230.871 370.871,230.904 371.172,230.963 
  371.474,231.006 371.776,231.113 372.078,231.227 372.38,231.328 372.681,231.448 372.983,231.469 373.285,231.485 373.587,231.523 373.889,231.533 374.19,231.584 
  374.492,231.631 374.794,231.657 375.096,231.689 375.398,231.78 375.699,231.876 376.001,231.965 376.303,232.072 376.605,232.153 376.907,232.238 377.208,232.339 
  377.51,232.438 377.812,232.424 378.114,232.399 378.415,232.388 378.717,232.341 379.019,232.34 379.321,232.327 379.623,232.285 379.924,232.243 380.226,232.247 
  380.528,232.248 380.83,232.237 381.132,232.236 381.433,232.204 381.735,232.17 382.037,232.144 382.339,232.11 382.641,232.141 382.942,232.179 383.244,232.205 
  383.546,232.251 383.848,232.274 384.15,232.301 384.451,232.345 384.753,232.387 385.055,232.395 385.357,232.403 385.659,232.418 385.96,232.424 386.262,232.449 
  386.564,232.474 386.866,232.492 387.167,232.513 387.469,232.508 387.771,232.499 388.073,232.494 388.375,232.48 388.676,232.473 388.978,232.464 389.28,232.448 
  389.582,232.431 389.884,232.428 390.185,232.425 390.487,232.417 390.789,232.413 391.091,232.399 391.393,232.385 391.694,232.372 391.996,232.358 392.298,232.351 
  392.6,232.344 392.902,232.335 393.203,232.328 393.505,232.317 393.807,232.307 394.109,232.298 394.411,232.288 394.712,232.273 395.014,232.257 395.316,232.242 
  395.618,232.225 395.919,232.209 396.221,232.193 396.523,232.176 396.825,232.158 397.127,232.163 397.428,232.169 397.73,232.174 398.032,232.185 398.334,232.188 
  398.636,232.193 398.937,232.204 399.239,232.215 399.541,232.217 399.843,232.219 400.145,232.224 400.446,232.227 400.748,232.236 401.05,232.246 401.352,232.254 
  401.654,232.264 401.955,232.262 402.257,232.26 402.559,232.259 402.861,232.255 403.163,232.255 403.464,232.254 403.766,232.251 404.068,232.248 404.37,232.251 
  404.671,232.255 404.973,232.258 405.275,232.262 405.577,232.263 405.879,232.264 406.18,232.266 406.482,232.268 406.784,232.267 407.086,232.266 407.388,232.266 
  407.689,232.264 407.991,232.264 408.293,232.263 408.595,232.262 408.897,232.26 409.198,232.26 409.5,232.259 409.802,232.258 410.104,232.257 410.406,232.255 
  410.707,232.254 411.009,232.252 411.311,232.25 411.613,232.251 411.915,232.252 412.216,232.252 412.518,232.253 412.82,232.253 413.122,232.254 413.423,232.255 
  413.725,232.256 414.027,232.255 414.329,232.255 414.631,232.255 414.932,232.255 415.234,232.255 415.536,232.256 415.838,232.256 416.14,232.256 416.441,232.256 
  416.743,232.256 417.045,232.256 417.347,232.255 417.649,232.255 417.95,232.255 418.252,232.255 418.554,232.255 418.856,232.255 419.158,232.255 419.459,232.255 
  419.761,232.255 420.063,232.255 420.365,232.255 420.666,232.255 420.968,232.255 421.27,232.255 421.572,232.255 421.874,232.255 422.175,232.255 422.477,232.255 
  422.779,232.255 423.081,232.255 423.383,232.255 423.684,232.255 423.986,232.255 424.288,232.255 424.59,232.255 424.892,232.255 425.193,232.255 425.495,232.255 
  425.797,232.255 
  "/>
<polygon clip-path="url(#clip1900)" points="
388.623,78.051 562.315,78.051 562.315,32.691 388.623,32.691 
  " fill="#ffffff" fill-opacity="1"/>
<polyline clip-path="url(#clip1900)" style="stroke:#000000; stroke-width:1; stroke-opacity:1; fill:none" points="
  388.623,78.051 562.315,78.051 562.315,32.691 388.623,32.691 388.623,78.051 
  "/>
<polyline clip-path="url(#clip1900)" style="stroke:#009af9; stroke-width:1; stroke-opacity:1; fill:none" points="
  394.623,47.811 430.623,47.811 
  "/>
<g clip-path="url(#clip1900)">
<text style="fill:#000000; fill-opacity:1; font-family:Arial,Helvetica Neue,Helvetica,sans-serif; font-size:12; text-anchor:start;" transform="rotate(0, 436.623, 52.311)" x="436.623" y="52.311">primal scaling of db3</text>
</g>
<polyline clip-path="url(#clip1900)" style="stroke:#e26f46; stroke-width:1; stroke-opacity:1; fill:none" points="
  394.623,62.931 430.623,62.931 
  "/>
<g clip-path="url(#clip1900)">
<text style="fill:#000000; fill-opacity:1; font-family:Arial,Helvetica Neue,Helvetica,sans-serif; font-size:12; text-anchor:start;" transform="rotate(0, 436.623, 67.431)" x="436.623" y="67.431">primal wavelet of db3</text>
</g>
</svg>
