<?xml version="1.0" encoding="utf-8"?>
<svg xmlns="http://www.w3.org/2000/svg" xmlns:xlink="http://www.w3.org/1999/xlink" width="600" height="400" viewBox="0 0 600 400">
<defs>
  <clipPath id="clip2300">
    <rect x="0" y="0" width="600" height="400"/>
  </clipPath>
</defs>
<polygon clip-path="url(#clip2300)" points="
0,400 600,400 600,0 0,0 
  " fill="#ffffff" fill-opacity="1"/>
<defs>
  <clipPath id="clip2301">
    <rect x="120" y="0" width="421" height="400"/>
  </clipPath>
</defs>
<polygon clip-path="url(#clip2300)" points="
39.502,375.869 580.315,375.869 580.315,11.811 39.502,11.811 
  " fill="#ffffff" fill-opacity="1"/>
<defs>
  <clipPath id="clip2302">
    <rect x="39" y="11" width="542" height="365"/>
  </clipPath>
</defs>
<polyline clip-path="url(#clip2302)" style="stroke:#000000; stroke-width:0.5; stroke-opacity:0.1; fill:none" points="
  39.502,375.869 39.502,11.811 
  "/>
<polyline clip-path="url(#clip2302)" style="stroke:#000000; stroke-width:0.5; stroke-opacity:0.1; fill:none" points="
  219.773,375.869 219.773,11.811 
  "/>
<polyline clip-path="url(#clip2302)" style="stroke:#000000; stroke-width:0.5; stroke-opacity:0.1; fill:none" points="
  400.044,375.869 400.044,11.811 
  "/>
<polyline clip-path="url(#clip2302)" style="stroke:#000000; stroke-width:0.5; stroke-opacity:0.1; fill:none" points="
  580.315,375.869 580.315,11.811 
  "/>
<polyline clip-path="url(#clip2302)" style="stroke:#000000; stroke-width:0.5; stroke-opacity:0.1; fill:none" points="
  39.502,341.441 580.315,341.441 
  "/>
<polyline clip-path="url(#clip2302)" style="stroke:#000000; stroke-width:0.5; stroke-opacity:0.1; fill:none" points="
  39.502,267.641 580.315,267.641 
  "/>
<polyline clip-path="url(#clip2302)" style="stroke:#000000; stroke-width:0.5; stroke-opacity:0.1; fill:none" points="
  39.502,193.84 580.315,193.84 
  "/>
<polyline clip-path="url(#clip2302)" style="stroke:#000000; stroke-width:0.5; stroke-opacity:0.1; fill:none" points="
  39.502,120.039 580.315,120.039 
  "/>
<polyline clip-path="url(#clip2302)" style="stroke:#000000; stroke-width:0.5; stroke-opacity:0.1; fill:none" points="
  39.502,46.2385 580.315,46.2385 
  "/>
<polyline clip-path="url(#clip2300)" style="stroke:#000000; stroke-width:1; stroke-opacity:1; fill:none" points="
  39.502,375.869 580.315,375.869 
  "/>
<polyline clip-path="url(#clip2300)" style="stroke:#000000; stroke-width:1; stroke-opacity:1; fill:none" points="
  39.502,375.869 39.502,11.811 
  "/>
<polyline clip-path="url(#clip2300)" style="stroke:#000000; stroke-width:1; stroke-opacity:1; fill:none" points="
  39.502,375.869 39.502,370.408 
  "/>
<polyline clip-path="url(#clip2300)" style="stroke:#000000; stroke-width:1; stroke-opacity:1; fill:none" points="
  219.773,375.869 219.773,370.408 
  "/>
<polyline clip-path="url(#clip2300)" style="stroke:#000000; stroke-width:1; stroke-opacity:1; fill:none" points="
  400.044,375.869 400.044,370.408 
  "/>
<polyline clip-path="url(#clip2300)" style="stroke:#000000; stroke-width:1; stroke-opacity:1; fill:none" points="
  580.315,375.869 580.315,370.408 
  "/>
<polyline clip-path="url(#clip2300)" style="stroke:#000000; stroke-width:1; stroke-opacity:1; fill:none" points="
  39.502,341.441 47.6142,341.441 
  "/>
<polyline clip-path="url(#clip2300)" style="stroke:#000000; stroke-width:1; stroke-opacity:1; fill:none" points="
  39.502,267.641 47.6142,267.641 
  "/>
<polyline clip-path="url(#clip2300)" style="stroke:#000000; stroke-width:1; stroke-opacity:1; fill:none" points="
  39.502,193.84 47.6142,193.84 
  "/>
<polyline clip-path="url(#clip2300)" style="stroke:#000000; stroke-width:1; stroke-opacity:1; fill:none" points="
  39.502,120.039 47.6142,120.039 
  "/>
<polyline clip-path="url(#clip2300)" style="stroke:#000000; stroke-width:1; stroke-opacity:1; fill:none" points="
  39.502,46.2385 47.6142,46.2385 
  "/>
<g clip-path="url(#clip2300)">
<text style="fill:#000000; fill-opacity:1; font-family:Arial,Helvetica Neue,Helvetica,sans-serif; font-size:12; text-anchor:middle;" transform="rotate(0, 39.502, 389.669)" x="39.502" y="389.669">-1</text>
</g>
<g clip-path="url(#clip2300)">
<text style="fill:#000000; fill-opacity:1; font-family:Arial,Helvetica Neue,Helvetica,sans-serif; font-size:12; text-anchor:middle;" transform="rotate(0, 219.773, 389.669)" x="219.773" y="389.669">0</text>
</g>
<g clip-path="url(#clip2300)">
<text style="fill:#000000; fill-opacity:1; font-family:Arial,Helvetica Neue,Helvetica,sans-serif; font-size:12; text-anchor:middle;" transform="rotate(0, 400.044, 389.669)" x="400.044" y="389.669">1</text>
</g>
<g clip-path="url(#clip2300)">
<text style="fill:#000000; fill-opacity:1; font-family:Arial,Helvetica Neue,Helvetica,sans-serif; font-size:12; text-anchor:middle;" transform="rotate(0, 580.315, 389.669)" x="580.315" y="389.669">2</text>
</g>
<g clip-path="url(#clip2300)">
<text style="fill:#000000; fill-opacity:1; font-family:Arial,Helvetica Neue,Helvetica,sans-serif; font-size:12; text-anchor:end;" transform="rotate(0, 33.502, 345.941)" x="33.502" y="345.941">-1.0</text>
</g>
<g clip-path="url(#clip2300)">
<text style="fill:#000000; fill-opacity:1; font-family:Arial,Helvetica Neue,Helvetica,sans-serif; font-size:12; text-anchor:end;" transform="rotate(0, 33.502, 272.141)" x="33.502" y="272.141">-0.5</text>
</g>
<g clip-path="url(#clip2300)">
<text style="fill:#000000; fill-opacity:1; font-family:Arial,Helvetica Neue,Helvetica,sans-serif; font-size:12; text-anchor:end;" transform="rotate(0, 33.502, 198.34)" x="33.502" y="198.34">0.0</text>
</g>
<g clip-path="url(#clip2300)">
<text style="fill:#000000; fill-opacity:1; font-family:Arial,Helvetica Neue,Helvetica,sans-serif; font-size:12; text-anchor:end;" transform="rotate(0, 33.502, 124.539)" x="33.502" y="124.539">0.5</text>
</g>
<g clip-path="url(#clip2300)">
<text style="fill:#000000; fill-opacity:1; font-family:Arial,Helvetica Neue,Helvetica,sans-serif; font-size:12; text-anchor:end;" transform="rotate(0, 33.502, 50.7385)" x="33.502" y="50.7385">1.0</text>
</g>
<polyline clip-path="url(#clip2302)" style="stroke:#009af9; stroke-width:1; stroke-opacity:1; fill:none" points="
  39.502,193.84 40.2062,193.84 40.9104,193.84 41.6146,193.84 42.3187,193.839 43.0229,193.839 43.7271,193.839 44.4313,193.84 45.1355,193.843 45.8397,193.845 
  46.5439,193.845 47.248,193.844 47.9522,193.843 48.6564,193.841 49.3606,193.837 50.0648,193.831 50.769,193.816 51.4731,193.801 52.1773,193.796 52.8815,193.795 
  53.5857,193.799 54.2899,193.805 54.9941,193.809 55.6982,193.813 56.4024,193.813 57.1066,193.815 57.8108,193.828 58.515,193.845 59.2192,193.86 59.9233,193.881 
  60.6275,193.912 61.3317,193.955 62.0359,194.032 62.7401,194.108 63.4443,194.147 64.1484,194.173 64.8526,194.188 65.5568,194.194 66.261,194.197 66.9652,194.192 
  67.6694,194.167 68.3735,194.138 69.0777,194.122 69.7819,194.108 70.4861,194.089 71.1903,194.073 71.8945,194.057 72.5986,194.045 73.3028,194.056 74.007,194.062 
  74.7112,194.036 75.4154,193.995 76.1196,193.934 76.8237,193.865 77.5279,193.799 78.2321,193.732 78.9363,193.681 79.6405,193.618 80.3447,193.511 81.0488,193.383 
  81.753,193.262 82.4572,193.112 83.1614,192.922 83.8656,192.683 84.5698,192.302 85.2739,191.924 85.9781,191.692 86.6823,191.512 87.3865,191.38 88.0907,191.28 
  88.7949,191.177 89.499,191.096 90.2032,191.056 90.9074,191.034 91.6116,191.011 92.3158,190.997 93.02,190.981 93.7241,190.985 94.4283,191.02 95.1325,191.086 
  95.8367,191.221 96.5409,191.364 97.2451,191.451 97.9492,191.524 98.6534,191.58 99.3576,191.631 100.062,191.697 100.766,191.766 101.47,191.843 102.174,191.918 
  102.879,191.977 103.583,192.033 104.287,192.103 104.991,192.161 105.695,192.195 106.399,192.202 107.104,192.11 107.808,192.029 108.512,192.066 109.216,192.151 
  109.92,192.272 110.625,192.428 111.329,192.6 112.033,192.805 112.737,193.086 113.441,193.384 114.145,193.639 114.85,193.893 115.554,194.168 116.258,194.439 
  116.962,194.706 117.666,194.956 118.371,195.113 119.075,195.295 119.779,195.614 120.483,196.001 121.187,196.475 121.891,196.987 122.596,197.491 123.3,198.005 
  124.004,198.461 124.708,198.969 125.412,199.659 126.117,200.431 126.821,201.184 127.525,202.055 128.229,203.094 128.933,204.331 129.638,206.14 130.342,207.944 
  131.046,209.167 131.75,210.184 132.454,211.025 133.158,211.739 133.863,212.46 134.567,213.089 135.271,213.518 135.975,213.888 136.679,214.318 137.384,214.732 
  138.088,215.143 138.792,215.512 139.496,215.793 140.2,216.008 140.904,216.11 141.609,216.176 142.313,216.289 143.017,216.394 143.721,216.474 144.425,216.542 
  145.13,216.586 145.834,216.622 146.538,216.707 147.242,216.758 147.946,216.682 148.65,216.547 149.355,216.397 150.059,216.176 150.763,215.871 151.467,215.464 
  152.171,214.788 152.876,214.099 153.58,213.647 154.284,213.269 154.988,212.947 155.692,212.666 156.396,212.369 157.101,212.101 157.805,211.921 158.509,211.748 
  159.213,211.507 159.917,211.248 160.622,210.981 161.326,210.703 162.03,210.429 162.734,210.144 163.438,209.816 164.142,209.492 164.847,209.215 165.551,208.959 
  166.255,208.742 166.959,208.53 167.663,208.298 168.368,208.053 169.072,207.735 169.776,207.436 170.48,207.267 171.184,207.145 171.889,206.995 172.593,206.916 
  173.297,206.945 174.001,207.105 174.705,207.677 175.409,208.229 176.114,208.33 176.818,208.257 177.522,208.028 178.226,207.69 178.93,207.349 179.635,206.932 
  180.339,206.383 181.043,205.769 181.747,205.132 182.451,204.45 183.155,203.762 183.86,203 184.564,202.118 185.268,201.122 185.972,199.87 186.676,198.585 
  187.381,197.489 188.085,196.441 188.789,195.448 189.493,194.461 190.197,193.413 190.901,192.342 191.606,191.218 192.31,190.095 193.014,189.048 193.718,188.014 
  194.422,186.914 195.127,185.862 195.831,184.909 196.535,184.072 197.239,183.654 197.943,183.188 198.647,182.202 199.352,181.006 200.056,179.648 200.76,178.131 
  201.464,176.549 202.168,174.816 202.873,172.762 203.577,170.63 204.281,168.663 204.985,166.691 205.689,164.63 206.394,162.571 207.098,160.517 207.802,158.514 
  208.506,156.867 209.21,155.113 209.914,152.807 210.619,150.222 211.323,147.286 212.027,144.187 212.731,141.111 213.435,137.986 214.14,135.087 214.844,131.974 
  215.548,128.12 216.252,123.928 216.956,119.804 217.66,115.198 218.365,109.91 219.069,103.823 219.773,95.439 220.477,87.064 221.181,81.0046 221.886,75.7612 
  222.59,71.2164 223.294,67.1715 223.998,63.0805 224.702,59.3471 225.406,56.3825 226.111,53.649 226.815,50.6939 227.519,47.8008 228.223,44.906 228.927,42.1859 
  229.632,39.8245 230.336,37.747 231.04,36.1966 231.744,34.7755 232.448,33.0624 233.152,31.3353 233.857,29.6464 234.561,27.9834 235.265,26.4189 235.969,24.8776 
  236.673,23.1698 237.378,21.5701 238.082,20.3603 238.786,19.3397 239.49,18.3928 240.194,17.6545 240.899,17.1454 241.603,16.9213 242.307,17.4101 243.011,17.9595 
  243.715,17.9207 244.419,17.716 245.124,17.3794 245.828,16.965 246.532,16.6255 247.236,16.2473 247.94,15.7105 248.645,15.1727 249.349,14.7687 250.053,14.4133 
  250.757,14.1196 251.461,13.8442 252.165,13.5373 252.87,13.2215 253.574,12.8456 254.278,12.495 254.982,12.2624 255.686,12.0856 256.391,11.947 257.095,11.859 
  257.799,11.811 258.503,11.82 259.207,11.9508 259.911,12.1074 260.616,12.1877 261.32,12.2659 262.024,12.3929 262.728,12.5056 263.432,12.5884 264.137,12.6207 
  264.841,12.4132 265.545,12.2555 266.249,12.4343 266.953,12.7647 267.657,13.2413 268.362,13.8248 269.066,14.4394 269.77,15.1345 270.474,15.9267 271.178,16.8024 
  271.883,17.7657 272.587,18.8068 273.291,19.8793 273.995,21.0557 274.699,22.3751 275.403,23.8409 276.108,25.6262 276.812,27.4619 277.516,29.0827 278.22,30.6558 
  278.924,32.1629 279.629,33.6767 280.333,35.2874 281.037,36.9505 281.741,38.7371 282.445,40.5271 283.15,42.167 283.854,43.7777 284.558,45.4975 285.262,47.1343 
  285.966,48.6111 286.67,49.8933 287.375,50.4667 288.079,51.1228 288.783,52.6604 289.487,54.5546 290.191,56.7301 290.896,59.1725 291.6,61.7224 292.304,64.5219 
  293.008,67.8418 293.712,71.2982 294.416,74.5111 295.121,77.7455 295.825,81.1216 296.529,84.5138 297.233,87.9251 297.937,91.2825 298.642,94.1417 299.346,97.1782 
  300.05,101.034 300.754,105.316 301.458,110.132 302.162,115.203 302.867,120.255 303.571,125.391 304.275,130.195 304.979,135.334 305.683,141.602 306.388,148.39 
  307.092,155.093 307.796,162.532 308.5,171.008 309.204,180.694 309.908,193.84 310.613,206.986 311.317,216.672 312.021,225.147 312.725,232.586 313.429,239.29 
  314.134,246.078 314.838,252.346 315.542,257.485 316.246,262.288 316.95,267.424 317.655,272.476 318.359,277.548 319.063,282.364 319.767,286.645 320.471,290.501 
  321.175,293.538 321.88,296.397 322.584,299.755 323.288,303.166 323.992,306.558 324.696,309.934 325.401,313.169 326.105,316.382 326.809,319.838 327.513,323.158 
  328.217,325.957 328.921,328.507 329.626,330.95 330.33,333.125 331.034,335.019 331.738,336.557 332.442,337.213 333.147,337.786 333.851,339.069 334.555,340.545 
  335.259,342.182 335.963,343.902 336.667,345.513 337.372,347.153 338.076,348.943 338.78,350.729 339.484,352.392 340.188,354.003 340.893,355.517 341.597,357.024 
  342.301,358.597 343.005,360.218 343.709,362.053 344.413,363.839 345.118,365.305 345.822,366.624 346.526,367.8 347.23,368.873 347.934,369.914 348.639,370.877 
  349.343,371.753 350.047,372.545 350.751,373.24 351.455,373.855 352.159,374.438 352.864,374.915 353.568,375.245 354.272,375.424 354.976,375.266 355.68,375.059 
  356.385,375.091 357.089,375.174 357.793,375.287 358.497,375.414 359.201,375.492 359.906,375.572 360.61,375.729 361.314,375.86 362.018,375.869 362.722,375.821 
  363.426,375.733 364.131,375.594 364.835,375.417 365.539,375.185 366.243,374.834 366.947,374.458 367.652,374.142 368.356,373.835 369.06,373.56 369.764,373.266 
  370.468,372.911 371.172,372.507 371.877,371.969 372.581,371.432 373.285,371.054 373.989,370.715 374.693,370.3 375.398,369.964 376.102,369.759 376.806,369.72 
  377.51,370.27 378.214,370.758 378.918,370.534 379.623,370.025 380.327,369.287 381.031,368.34 381.735,367.319 382.439,366.11 383.144,364.51 383.848,362.802 
  384.552,361.261 385.256,359.696 385.96,358.033 386.664,356.344 387.369,354.617 388.073,352.904 388.777,351.483 389.481,349.933 390.185,347.855 390.89,345.494 
  391.594,342.774 392.298,339.879 393.002,336.986 393.706,334.031 394.411,331.297 395.115,328.333 395.819,324.599 396.523,320.508 397.227,316.463 397.931,311.919 
  398.636,306.675 399.34,300.616 400.044,292.241 400.748,283.857 401.452,277.77 402.157,272.482 402.861,267.876 403.565,263.751 404.269,259.56 404.973,255.706 
  405.677,252.593 406.382,249.694 407.086,246.569 407.79,243.493 408.494,240.394 409.198,237.458 409.903,234.873 410.607,232.567 411.311,230.812 412.015,229.166 
  412.719,227.163 413.423,225.108 414.128,223.049 414.832,220.989 415.536,219.016 416.24,217.049 416.944,214.918 417.649,212.864 418.353,211.131 419.057,209.548 
  419.761,208.032 420.465,206.674 421.169,205.478 421.874,204.492 422.578,204.026 423.282,203.608 423.986,202.771 424.69,201.818 425.395,200.766 426.099,199.665 
  426.803,198.632 427.507,197.584 428.211,196.461 428.916,195.338 429.62,194.266 430.324,193.219 431.028,192.232 431.732,191.239 432.436,190.191 433.141,189.095 
  433.845,187.81 434.549,186.558 435.253,185.562 435.957,184.68 436.662,183.918 437.366,183.229 438.07,182.548 438.774,181.911 439.478,181.297 440.182,180.748 
  440.887,180.33 441.591,179.99 442.295,179.651 442.999,179.422 443.703,179.35 444.408,179.45 445.112,180.002 445.816,180.575 446.52,180.734 447.224,180.763 
  447.928,180.685 448.633,180.534 449.337,180.412 450.041,180.243 450.745,179.945 451.449,179.627 452.154,179.381 452.858,179.15 453.562,178.938 454.266,178.72 
  454.97,178.465 455.674,178.188 456.379,177.864 457.083,177.536 457.787,177.251 458.491,176.976 459.195,176.699 459.9,176.431 460.604,176.173 461.308,175.932 
  462.012,175.759 462.716,175.579 463.42,175.311 464.125,175.014 464.829,174.732 465.533,174.411 466.237,174.032 466.941,173.581 467.646,172.891 468.35,172.216 
  469.054,171.809 469.758,171.504 470.462,171.283 471.167,171.132 471.871,170.997 472.575,170.922 473.279,170.972 473.983,171.058 474.687,171.094 475.392,171.138 
  476.096,171.205 476.8,171.286 477.504,171.391 478.208,171.504 478.913,171.57 479.617,171.672 480.321,171.887 481.025,172.168 481.729,172.537 482.433,172.947 
  483.138,173.362 483.842,173.792 484.546,174.161 485.25,174.591 485.954,175.219 486.659,175.941 487.363,176.654 488.067,177.495 488.771,178.512 489.475,179.735 
  490.179,181.54 490.884,183.349 491.588,184.585 492.292,185.625 492.996,186.496 493.7,187.249 494.405,188.021 495.109,188.711 495.813,189.218 496.517,189.674 
  497.221,190.189 497.925,190.693 498.63,191.205 499.334,191.678 500.038,192.066 500.742,192.385 501.446,192.567 502.151,192.723 502.855,192.974 503.559,193.241 
  504.263,193.512 504.967,193.787 505.672,194.041 506.376,194.296 507.08,194.594 507.784,194.875 508.488,195.08 509.192,195.251 509.897,195.408 510.601,195.529 
  511.305,195.613 512.009,195.651 512.713,195.57 513.418,195.478 514.122,195.484 514.826,195.518 515.53,195.577 516.234,195.647 516.938,195.703 517.643,195.762 
  518.347,195.837 519.051,195.913 519.755,195.983 520.459,196.048 521.164,196.1 521.868,196.156 522.572,196.228 523.276,196.316 523.98,196.458 524.684,196.594 
  525.389,196.659 526.093,196.695 526.797,196.698 527.501,196.683 528.205,196.669 528.91,196.646 529.614,196.624 530.318,196.584 531.022,196.503 531.726,196.4 
  532.43,196.3 533.135,196.167 533.839,195.988 534.543,195.756 535.247,195.377 535.951,194.997 536.656,194.758 537.36,194.567 538.064,194.418 538.768,194.296 
  539.472,194.169 540.176,194.062 540.881,193.999 541.585,193.948 542.289,193.881 542.993,193.815 543.697,193.746 544.402,193.685 545.106,193.644 545.81,193.618 
  546.514,193.624 547.218,193.634 547.923,193.623 548.627,193.607 549.331,193.59 550.035,193.572 550.739,193.557 551.443,193.541 552.148,193.513 552.852,193.487 
  553.556,193.483 554.26,193.486 554.964,193.492 555.669,193.507 556.373,193.532 557.077,193.571 557.781,193.648 558.485,193.725 559.189,193.768 559.894,193.799 
  560.598,193.82 561.302,193.835 562.006,193.852 562.71,193.864 563.415,193.867 564.119,193.867 564.823,193.871 565.527,193.875 566.231,193.881 566.935,193.885 
  567.64,193.883 568.344,193.878 569.048,193.864 569.752,193.849 570.456,193.842 571.161,193.838 571.865,193.836 572.569,193.836 573.273,193.835 573.977,193.834 
  574.681,193.837 575.386,193.84 576.09,193.84 576.794,193.84 577.498,193.84 578.202,193.84 578.907,193.84 579.611,193.84 580.315,193.84 
  "/>
<polygon clip-path="url(#clip2300)" points="
389.273,62.931 562.315,62.931 562.315,32.691 389.273,32.691 
  " fill="#ffffff" fill-opacity="1"/>
<polyline clip-path="url(#clip2300)" style="stroke:#000000; stroke-width:1; stroke-opacity:1; fill:none" points="
  389.273,62.931 562.315,62.931 562.315,32.691 389.273,32.691 389.273,62.931 
  "/>
<polyline clip-path="url(#clip2300)" style="stroke:#009af9; stroke-width:1; stroke-opacity:1; fill:none" points="
  395.273,47.811 431.273,47.811 
  "/>
<g clip-path="url(#clip2300)">
<text style="fill:#000000; fill-opacity:1; font-family:Arial,Helvetica Neue,Helvetica,sans-serif; font-size:12; text-anchor:start;" transform="rotate(0, 437.273, 52.311)" x="437.273" y="52.311">dual wavelet of cdf13</text>
</g>
</svg>
