<?xml version="1.0" encoding="utf-8"?>
<svg xmlns="http://www.w3.org/2000/svg" xmlns:xlink="http://www.w3.org/1999/xlink" width="600" height="400" viewBox="0 0 600 400">
<defs>
  <clipPath id="clip1300">
    <rect x="0" y="0" width="600" height="400"/>
  </clipPath>
</defs>
<polygon clip-path="url(#clip1300)" points="
0,400 600,400 600,0 0,0 
  " fill="#ffffff" fill-opacity="1"/>
<defs>
  <clipPath id="clip1301">
    <rect x="120" y="0" width="421" height="400"/>
  </clipPath>
</defs>
<polygon clip-path="url(#clip1300)" points="
29.4661,380.06 580.315,380.06 580.315,11.811 29.4661,11.811 
  " fill="#ffffff" fill-opacity="1"/>
<defs>
  <clipPath id="clip1302">
    <rect x="29" y="11" width="552" height="369"/>
  </clipPath>
</defs>
<polyline clip-path="url(#clip1302)" style="stroke:#000000; stroke-width:0.5; stroke-opacity:0.1; fill:none" points="
  29.4661,380.06 29.4661,11.811 
  "/>
<polyline clip-path="url(#clip1302)" style="stroke:#000000; stroke-width:0.5; stroke-opacity:0.1; fill:none" points="
  167.178,380.06 167.178,11.811 
  "/>
<polyline clip-path="url(#clip1302)" style="stroke:#000000; stroke-width:0.5; stroke-opacity:0.1; fill:none" points="
  304.891,380.06 304.891,11.811 
  "/>
<polyline clip-path="url(#clip1302)" style="stroke:#000000; stroke-width:0.5; stroke-opacity:0.1; fill:none" points="
  442.603,380.06 442.603,11.811 
  "/>
<polyline clip-path="url(#clip1302)" style="stroke:#000000; stroke-width:0.5; stroke-opacity:0.1; fill:none" points="
  580.315,380.06 580.315,11.811 
  "/>
<polyline clip-path="url(#clip1302)" style="stroke:#000000; stroke-width:0.5; stroke-opacity:0.1; fill:none" points="
  29.4661,372.884 580.315,372.884 
  "/>
<polyline clip-path="url(#clip1302)" style="stroke:#000000; stroke-width:0.5; stroke-opacity:0.1; fill:none" points="
  29.4661,295.019 580.315,295.019 
  "/>
<polyline clip-path="url(#clip1302)" style="stroke:#000000; stroke-width:0.5; stroke-opacity:0.1; fill:none" points="
  29.4661,217.154 580.315,217.154 
  "/>
<polyline clip-path="url(#clip1302)" style="stroke:#000000; stroke-width:0.5; stroke-opacity:0.1; fill:none" points="
  29.4661,139.289 580.315,139.289 
  "/>
<polyline clip-path="url(#clip1302)" style="stroke:#000000; stroke-width:0.5; stroke-opacity:0.1; fill:none" points="
  29.4661,61.4238 580.315,61.4238 
  "/>
<polyline clip-path="url(#clip1300)" style="stroke:#000000; stroke-width:1; stroke-opacity:1; fill:none" points="
  29.4661,380.06 580.315,380.06 
  "/>
<polyline clip-path="url(#clip1300)" style="stroke:#000000; stroke-width:1; stroke-opacity:1; fill:none" points="
  29.4661,380.06 29.4661,11.811 
  "/>
<polyline clip-path="url(#clip1300)" style="stroke:#000000; stroke-width:1; stroke-opacity:1; fill:none" points="
  29.4661,380.06 29.4661,374.537 
  "/>
<polyline clip-path="url(#clip1300)" style="stroke:#000000; stroke-width:1; stroke-opacity:1; fill:none" points="
  167.178,380.06 167.178,374.537 
  "/>
<polyline clip-path="url(#clip1300)" style="stroke:#000000; stroke-width:1; stroke-opacity:1; fill:none" points="
  304.891,380.06 304.891,374.537 
  "/>
<polyline clip-path="url(#clip1300)" style="stroke:#000000; stroke-width:1; stroke-opacity:1; fill:none" points="
  442.603,380.06 442.603,374.537 
  "/>
<polyline clip-path="url(#clip1300)" style="stroke:#000000; stroke-width:1; stroke-opacity:1; fill:none" points="
  580.315,380.06 580.315,374.537 
  "/>
<polyline clip-path="url(#clip1300)" style="stroke:#000000; stroke-width:1; stroke-opacity:1; fill:none" points="
  29.4661,372.884 37.7289,372.884 
  "/>
<polyline clip-path="url(#clip1300)" style="stroke:#000000; stroke-width:1; stroke-opacity:1; fill:none" points="
  29.4661,295.019 37.7289,295.019 
  "/>
<polyline clip-path="url(#clip1300)" style="stroke:#000000; stroke-width:1; stroke-opacity:1; fill:none" points="
  29.4661,217.154 37.7289,217.154 
  "/>
<polyline clip-path="url(#clip1300)" style="stroke:#000000; stroke-width:1; stroke-opacity:1; fill:none" points="
  29.4661,139.289 37.7289,139.289 
  "/>
<polyline clip-path="url(#clip1300)" style="stroke:#000000; stroke-width:1; stroke-opacity:1; fill:none" points="
  29.4661,61.4238 37.7289,61.4238 
  "/>
<g clip-path="url(#clip1300)">
<text style="fill:#000000; fill-opacity:1; font-family:Arial,Helvetica Neue,Helvetica,sans-serif; font-size:12; text-anchor:middle;" transform="rotate(0, 29.4661, 393.86)" x="29.4661" y="393.86">-1.0</text>
</g>
<g clip-path="url(#clip1300)">
<text style="fill:#000000; fill-opacity:1; font-family:Arial,Helvetica Neue,Helvetica,sans-serif; font-size:12; text-anchor:middle;" transform="rotate(0, 167.178, 393.86)" x="167.178" y="393.86">-0.5</text>
</g>
<g clip-path="url(#clip1300)">
<text style="fill:#000000; fill-opacity:1; font-family:Arial,Helvetica Neue,Helvetica,sans-serif; font-size:12; text-anchor:middle;" transform="rotate(0, 304.891, 393.86)" x="304.891" y="393.86">0.0</text>
</g>
<g clip-path="url(#clip1300)">
<text style="fill:#000000; fill-opacity:1; font-family:Arial,Helvetica Neue,Helvetica,sans-serif; font-size:12; text-anchor:middle;" transform="rotate(0, 442.603, 393.86)" x="442.603" y="393.86">0.5</text>
</g>
<g clip-path="url(#clip1300)">
<text style="fill:#000000; fill-opacity:1; font-family:Arial,Helvetica Neue,Helvetica,sans-serif; font-size:12; text-anchor:middle;" transform="rotate(0, 580.315, 393.86)" x="580.315" y="393.86">1.0</text>
</g>
<g clip-path="url(#clip1300)">
<text style="fill:#000000; fill-opacity:1; font-family:Arial,Helvetica Neue,Helvetica,sans-serif; font-size:12; text-anchor:end;" transform="rotate(0, 23.4661, 377.384)" x="23.4661" y="377.384">-1</text>
</g>
<g clip-path="url(#clip1300)">
<text style="fill:#000000; fill-opacity:1; font-family:Arial,Helvetica Neue,Helvetica,sans-serif; font-size:12; text-anchor:end;" transform="rotate(0, 23.4661, 299.519)" x="23.4661" y="299.519">0</text>
</g>
<g clip-path="url(#clip1300)">
<text style="fill:#000000; fill-opacity:1; font-family:Arial,Helvetica Neue,Helvetica,sans-serif; font-size:12; text-anchor:end;" transform="rotate(0, 23.4661, 221.654)" x="23.4661" y="221.654">1</text>
</g>
<g clip-path="url(#clip1300)">
<text style="fill:#000000; fill-opacity:1; font-family:Arial,Helvetica Neue,Helvetica,sans-serif; font-size:12; text-anchor:end;" transform="rotate(0, 23.4661, 143.789)" x="23.4661" y="143.789">2</text>
</g>
<g clip-path="url(#clip1300)">
<text style="fill:#000000; fill-opacity:1; font-family:Arial,Helvetica Neue,Helvetica,sans-serif; font-size:12; text-anchor:end;" transform="rotate(0, 23.4661, 65.9238)" x="23.4661" y="65.9238">3</text>
</g>
<polyline clip-path="url(#clip1302)" style="stroke:#009af9; stroke-width:1; stroke-opacity:1; fill:none" points="
  29.4661,295.019 30.0175,291.88 30.5689,288.347 31.1203,285.017 31.6717,280.814 32.2231,277.511 32.7745,273.793 33.3259,269.272 33.8773,264.824 34.4287,261.395 
  34.9801,257.806 35.5315,253.921 36.0829,249.901 36.6343,245.113 37.1857,240.256 37.7371,235.405 38.2885,230.864 38.8399,227.236 39.3913,223.55 39.9427,219.814 
  40.4941,215.92 41.0455,211.754 41.5969,207.662 42.1483,203.62 42.6997,199.081 43.2511,194.062 43.8025,188.981 44.3539,183.756 44.9053,178.617 45.4567,173.568 
  46.0081,168.306 46.5595,162.936 47.1109,158.654 47.6623,154.841 48.2137,150.911 48.7651,147.274 49.3165,143.141 49.8679,138.999 50.4193,135.166 50.9707,131.345 
  51.5221,126.89 52.0735,122.413 52.6249,118.036 53.1763,113.48 53.7277,109.306 54.2791,105.105 54.8305,100.746 55.3819,96.3734 55.9333,91.0988 56.4847,85.7531 
  57.0361,80.4295 57.5875,74.9065 58.1389,69.6297 58.6903,64.1352 59.2417,58.4805 59.7931,52.9247 60.3445,47.6001 60.896,42.3072 61.4474,36.8681 61.9988,31.3628 
  62.5502,25.6847 63.1016,19.9418 63.653,14.2702 64.2044,13.2981 64.7558,17.1368 65.3072,21.5383 65.8586,27.1432 66.41,31.8154 66.9614,36.1616 67.5128,42.3814 
  68.0642,49.7169 68.6156,54.5684 69.167,58.4864 69.7184,63.4447 70.2698,68.2124 70.8212,75.202 71.3726,83.0467 71.924,90.4238 72.4754,98.6441 73.0268,102.889 
  73.5782,106.737 74.1296,111.627 74.681,115.504 75.2324,121.086 75.7838,126.538 76.3352,131.285 76.8866,136.635 77.438,144.281 77.9894,152.185 78.5408,160.051 
  79.0922,168.328 79.6436,175.934 80.195,183.817 80.7464,192.271 81.2978,199.397 81.8492,203.273 82.4006,206.924 82.952,210.496 83.5034,214.15 84.0548,218.628 
  84.6062,222.578 85.1576,225.972 85.709,230.233 86.2604,235.413 86.8118,240.527 87.3632,245.677 87.9146,250.317 88.466,254.468 89.0174,258.816 89.5688,263.169 
  90.1202,269.357 90.6716,276.755 91.223,283.936 91.7744,291.656 92.3258,298.85 92.8772,306.102 93.4286,314.068 93.98,322.133 94.5314,328.987 95.0828,335.786 
  95.6342,342.94 96.1856,349.898 96.737,357.664 97.2884,365.482 97.8398,373.11 98.3912,380.06 98.9426,379.117 99.494,377.186 100.045,375.676 100.597,372.487 
  101.148,371.319 101.7,369.002 102.251,364.819 102.802,361.406 103.354,360.511 103.905,359.258 104.457,357.394 105.008,354.854 105.559,350.684 106.111,346.377 
  106.662,342.017 107.214,339.22 107.765,338.357 108.316,337.442 108.868,336.579 109.419,335.14 109.971,333.141 110.522,331.589 111.073,330.224 111.625,327.229 
  112.176,323.219 112.728,319.248 113.279,314.86 113.83,311.1 114.382,307.404 114.933,303.129 115.485,298.726 116.036,298.497 116.587,299.2 117.139,299.378 
  117.69,300.904 118.242,300.598 118.793,300.732 119.344,302.027 119.896,303.124 120.447,302.508 120.999,301.97 121.55,301.782 122.101,301.466 122.653,302.178 
  123.204,302.905 123.756,303.438 124.307,303.455 124.858,301.434 125.41,299.197 125.961,297.061 126.513,294.735 127.064,292.882 127.615,290.699 128.167,288.096 
  128.718,286.11 129.27,284.797 129.821,283.472 130.372,282.138 130.924,280.447 131.475,278.447 132.027,276.526 132.578,274.641 133.129,274.301 133.681,275.07 
  134.232,275.767 134.784,276.892 135.335,277.627 135.886,278.357 136.438,279.67 136.989,281.143 137.541,281.67 138.092,282.078 138.643,282.785 139.195,283.313 
  139.746,284.584 140.298,285.946 140.849,287.134 141.4,288.472 141.952,288.896 142.503,289.281 143.055,289.837 143.606,290.237 144.157,290.952 144.709,291.619 
  145.26,292.141 145.812,292.836 146.363,294.003 146.914,295.222 147.466,296.453 148.017,297.703 148.569,298.806 149.12,299.988 149.671,301.27 150.223,301.857 
  150.774,301.52 151.326,301.041 151.877,300.432 152.428,299.955 152.98,299.634 153.531,299.049 154.083,298.264 154.634,297.854 155.185,297.674 155.737,297.387 
  156.288,297.115 156.84,296.554 157.391,295.835 157.942,295.183 158.494,294.457 159.045,294.458 159.597,294.67 160.148,294.754 160.699,295.048 161.251,295.049 
  161.802,295.09 162.354,295.333 162.905,295.537 163.456,295.282 164.008,295.015 164.559,294.812 165.111,294.53 165.662,294.465 166.213,294.374 166.765,294.198 
  167.316,294.094 167.868,294.148 168.419,294.222 168.97,294.301 169.522,294.393 170.073,294.427 170.625,294.49 171.176,294.59 171.727,294.672 172.279,294.73 
  172.83,294.795 173.382,294.867 173.933,294.96 174.484,295.077 175.036,295.198 175.587,295.323 176.139,295.351 176.69,295.3 177.241,295.254 177.793,295.187 
  178.344,295.151 178.896,295.126 179.447,295.067 179.998,294.999 180.55,294.999 181.101,295.017 181.653,295.023 182.204,295.044 182.755,295.022 183.307,294.996 
  183.858,294.989 184.41,294.973 184.961,294.979 185.512,294.988 186.064,294.992 186.615,295.001 187.167,295.007 187.718,295.015 188.269,295.027 188.821,295.036 
  189.372,295.031 189.924,295.026 190.475,295.022 191.026,295.018 191.578,295.019 192.129,295.02 192.681,295.018 193.232,295.017 193.783,295.018 194.335,295.019 
  194.886,295.02 195.438,295.02 195.989,295.019 196.54,295.019 197.092,295.019 197.643,295.019 198.195,295.019 198.746,295.019 199.297,295.019 199.849,295.019 
  200.4,295.019 200.952,295.019 201.503,295.019 202.054,295.019 202.606,295.019 203.157,295.019 203.709,295.019 204.26,295.019 204.811,295.019 205.363,295.019 
  205.914,295.019 206.466,295.019 207.017,295.019 207.568,295.019 208.12,295.019 208.671,295.019 209.223,295.019 209.774,295.019 210.325,295.019 210.877,295.019 
  211.428,295.019 211.98,295.019 212.531,295.019 213.082,295.019 213.634,295.019 214.185,295.019 214.737,295.019 215.288,295.019 215.839,295.019 216.391,295.019 
  216.942,295.019 217.494,295.019 218.045,295.019 218.596,295.019 219.148,295.019 219.699,295.019 220.251,295.019 220.802,295.019 221.353,295.019 221.905,295.019 
  222.456,295.019 223.008,295.019 223.559,295.019 224.11,295.019 224.662,295.019 225.213,295.019 225.765,295.019 226.316,295.019 226.867,295.019 227.419,295.019 
  227.97,295.019 228.522,295.019 229.073,295.019 229.624,295.019 230.176,295.019 230.727,295.019 231.279,295.019 231.83,295.019 232.381,295.019 232.933,295.019 
  233.484,295.019 234.036,295.019 234.587,295.019 235.138,295.019 235.69,295.019 236.241,295.019 236.793,295.019 237.344,295.019 237.895,295.019 238.447,295.019 
  238.998,295.019 239.55,295.019 240.101,295.019 240.652,295.019 241.204,295.019 241.755,295.019 242.307,295.019 242.858,295.019 243.409,295.019 243.961,295.019 
  244.512,295.019 245.064,295.019 245.615,295.019 246.166,295.019 246.718,295.019 247.269,295.019 247.821,295.019 248.372,295.019 248.923,295.019 249.475,295.019 
  250.026,295.019 250.578,295.019 251.129,295.019 251.68,295.019 252.232,295.019 252.783,295.019 253.335,295.019 253.886,295.019 254.437,295.019 254.989,295.019 
  255.54,295.019 256.092,295.019 256.643,295.019 257.194,295.019 257.746,295.019 258.297,295.019 258.849,295.019 259.4,295.019 259.951,295.019 260.503,295.019 
  261.054,295.019 261.606,295.019 262.157,295.019 262.708,295.019 263.26,295.019 263.811,295.019 264.363,295.019 264.914,295.019 265.465,295.019 266.017,295.019 
  266.568,295.019 267.12,295.019 267.671,295.019 268.222,295.019 268.774,295.019 269.325,295.019 269.877,295.019 270.428,295.019 270.979,295.019 271.531,295.019 
  272.082,295.019 272.634,295.019 273.185,295.019 273.736,295.019 274.288,295.019 274.839,295.019 275.391,295.019 275.942,295.019 276.493,295.019 277.045,295.019 
  277.596,295.019 278.148,295.019 278.699,295.019 279.25,295.019 279.802,295.019 280.353,295.019 280.905,295.019 281.456,295.019 282.007,295.019 282.559,295.019 
  283.11,295.019 283.662,295.019 284.213,295.019 284.764,295.019 285.316,295.019 285.867,295.019 286.419,295.019 286.97,295.019 287.521,295.019 288.073,295.019 
  288.624,295.019 289.176,295.019 289.727,295.019 290.278,295.019 290.83,295.019 291.381,295.019 291.933,295.019 292.484,295.019 293.035,295.019 293.587,295.019 
  294.138,295.019 294.69,295.019 295.241,295.019 295.792,295.019 296.344,295.019 296.895,295.019 297.447,295.019 297.998,295.019 298.549,295.019 299.101,295.019 
  299.652,295.019 300.204,295.019 300.755,295.019 301.306,295.019 301.858,295.019 302.409,295.019 302.961,295.019 303.512,295.019 304.063,295.019 304.615,295.019 
  305.166,293.533 305.718,290.314 306.269,286.782 306.82,282.906 307.372,279.214 307.923,275.67 308.475,271.54 309.026,266.973 309.577,263.129 310.129,259.65 
  310.68,255.83 311.232,252.019 311.783,247.522 312.334,242.673 312.886,237.898 313.437,232.859 313.989,229.07 314.54,225.51 315.091,221.617 315.643,218.029 
  316.194,213.798 316.746,209.611 317.297,205.671 317.848,201.563 318.4,196.585 318.951,191.463 319.503,186.396 320.054,181.122 320.605,176.126 321.157,170.998 
  321.708,165.604 322.26,160.594 322.811,156.712 323.362,152.916 323.914,149.07 324.465,145.24 325.017,141.072 325.568,137.059 326.119,133.251 326.671,129.159 
  327.222,124.68 327.774,120.221 328.325,115.746 328.876,111.408 329.428,107.214 329.979,102.922 330.531,98.6292 331.082,93.7588 331.633,88.4121 332.185,83.1467 
  332.736,77.6366 333.288,72.2818 333.839,66.9188 334.39,61.2875 334.942,55.6527 335.493,50.2806 336.045,44.9876 336.596,39.5688 337.147,34.1603 337.699,28.5404 
  338.25,22.7852 338.802,17.1252 339.353,11.811 339.904,15.3059 340.456,19.8242 341.007,23.8534 341.559,30.0516 342.11,33.8238 342.661,38.8867 343.213,45.9889 
  343.764,52.636 344.316,56.5305 344.867,60.8052 345.418,65.8812 345.97,71.4037 346.521,78.9935 347.073,86.7366 347.624,94.4946 348.175,100.967 348.727,105.077 
  349.278,109.262 349.83,113.483 350.381,118.272 350.932,123.787 351.484,128.915 352.035,133.819 352.587,140.365 353.138,148.148 353.689,156.053 354.241,164.333 
  354.792,172.106 355.344,179.747 355.895,188.017 356.446,196.556 356.998,201.316 357.549,204.901 358.101,208.944 358.652,211.888 359.203,216.528 359.755,220.939 
  360.306,224.196 360.858,227.617 361.409,232.874 361.96,238.134 362.512,243.037 363.063,248.215 363.615,252.364 364.166,256.539 364.717,261.044 365.269,265.911 
  365.82,272.993 366.372,280.371 366.923,287.676 367.474,295.359 368.026,302.498 368.577,310.011 369.129,318.032 369.68,325.611 370.231,332.488 370.783,339.396 
  371.334,346.392 371.886,353.738 372.437,361.501 372.988,369.305 373.54,377.062 374.091,379.834 374.643,378.382 375.194,376.747 375.745,373.808 376.297,371.99 
  376.848,370.447 377.4,366.953 377.951,362.609 378.502,361.047 379.054,360.094 379.605,358.18 380.157,356.632 380.708,352.755 381.259,348.294 381.811,344.353 
  382.362,339.694 382.914,338.894 383.465,338.247 384.016,336.807 384.568,336.162 385.119,334.102 385.671,332.207 386.222,330.954 386.773,329.083 387.325,325.247 
  387.876,321.191 388.428,317.154 388.979,312.883 389.53,309.239 390.082,305.323 390.633,300.95 391.185,298.249 391.736,298.575 392.287,299.226 392.839,300.117 
  393.39,300.715 393.942,300.727 394.493,301.352 395.044,302.589 395.596,302.836 396.147,302.279 396.699,301.914 397.25,301.515 397.801,301.809 398.353,302.572 
  398.904,303.138 399.456,303.804 400.007,302.474 400.558,300.223 401.11,298.262 401.661,295.714 402.213,293.861 402.764,291.948 403.315,289.364 403.867,286.755 
  404.418,285.515 404.97,284.253 405.521,282.739 406.072,281.462 406.624,279.433 407.175,277.416 407.727,275.607 408.278,274.061 408.829,274.646 409.381,275.479 
  409.932,276.235 410.484,277.35 411.035,277.973 411.586,278.935 412.138,280.382 412.689,281.51 413.241,281.922 413.792,282.418 414.343,283.041 414.895,283.927 
  415.446,285.214 415.998,286.527 416.549,287.83 417.1,288.699 417.652,289.115 418.203,289.579 418.755,290.009 419.306,290.599 419.857,291.3 420.409,291.874 
  420.96,292.413 421.512,293.417 422.063,294.63 422.614,295.809 423.166,297.12 423.717,298.236 424.269,299.366 424.82,300.643 425.371,301.926 425.923,301.648 
  426.474,301.157 427.026,300.832 427.577,300.048 428.128,299.832 428.68,299.437 429.231,298.65 429.783,297.937 430.334,297.775 430.886,297.565 431.437,297.236 
  431.988,296.893 432.54,296.202 433.091,295.494 433.643,294.83 434.194,294.37 434.745,294.525 435.297,294.715 435.848,294.894 436.4,295.054 436.951,295.085 
  437.502,295.208 438.054,295.433 438.605,295.419 439.157,295.17 439.708,294.926 440.259,294.656 440.811,294.497 441.362,294.423 441.914,294.283 442.465,294.125 
  443.016,294.117 443.568,294.188 444.119,294.253 444.671,294.362 445.222,294.405 445.773,294.447 446.325,294.543 446.876,294.642 447.428,294.697 447.979,294.757 
  448.53,294.833 449.082,294.904 449.633,295.019 450.185,295.14 450.736,295.258 451.287,295.369 451.839,295.325 452.39,295.269 452.942,295.227 453.493,295.161 
  454.044,295.14 454.596,295.102 455.147,295.033 455.699,294.989 456.25,295.006 456.801,295.021 457.353,295.032 457.904,295.035 458.456,295.011 459.007,294.993 
  459.558,294.98 460.11,294.976 460.661,294.982 461.213,294.989 461.764,294.997 462.315,295.004 462.867,295.011 463.418,295.021 463.97,295.033 464.521,295.034 
  465.072,295.028 465.624,295.025 466.175,295.019 466.727,295.019 467.278,295.02 467.829,295.018 468.381,295.017 468.932,295.018 469.484,295.018 470.035,295.019 
  470.586,295.02 471.138,295.02 471.689,295.019 472.241,295.019 472.792,295.019 473.343,295.019 473.895,295.019 474.446,295.019 474.998,295.019 475.549,295.019 
  476.1,295.019 476.652,295.019 477.203,295.019 477.755,295.019 478.306,295.019 478.857,295.019 479.409,295.019 479.96,295.019 480.512,295.019 481.063,295.019 
  481.614,295.019 482.166,295.019 482.717,295.019 483.269,295.019 483.82,295.019 484.371,295.019 484.923,295.019 485.474,295.019 486.026,295.019 486.577,295.019 
  487.128,295.019 487.68,295.019 488.231,295.019 488.783,295.019 489.334,295.019 489.885,295.019 490.437,295.019 490.988,295.019 491.54,295.019 492.091,295.019 
  492.642,295.019 493.194,295.019 493.745,295.019 494.297,295.019 494.848,295.019 495.399,295.019 495.951,295.019 496.502,295.019 497.054,295.019 497.605,295.019 
  498.156,295.019 498.708,295.019 499.259,295.019 499.811,295.019 500.362,295.019 500.913,295.019 501.465,295.019 502.016,295.019 502.568,295.019 503.119,295.019 
  503.67,295.019 504.222,295.019 504.773,295.019 505.325,295.019 505.876,295.019 506.427,295.019 506.979,295.019 507.53,295.019 508.082,295.019 508.633,295.019 
  509.184,295.019 509.736,295.019 510.287,295.019 510.839,295.019 511.39,295.019 511.941,295.019 512.493,295.019 513.044,295.019 513.596,295.019 514.147,295.019 
  514.698,295.019 515.25,295.019 515.801,295.019 516.353,295.019 516.904,295.019 517.455,295.019 518.007,295.019 518.558,295.019 519.11,295.019 519.661,295.019 
  520.212,295.019 520.764,295.019 521.315,295.019 521.867,295.019 522.418,295.019 522.969,295.019 523.521,295.019 524.072,295.019 524.624,295.019 525.175,295.019 
  525.726,295.019 526.278,295.019 526.829,295.019 527.381,295.019 527.932,295.019 528.483,295.019 529.035,295.019 529.586,295.019 530.138,295.019 530.689,295.019 
  531.24,295.019 531.792,295.019 532.343,295.019 532.895,295.019 533.446,295.019 533.997,295.019 534.549,295.019 535.1,295.019 535.652,295.019 536.203,295.019 
  536.754,295.019 537.306,295.019 537.857,295.019 538.409,295.019 538.96,295.019 539.511,295.019 540.063,295.019 540.614,295.019 541.166,295.019 541.717,295.019 
  542.268,295.019 542.82,295.019 543.371,295.019 543.923,295.019 544.474,295.019 545.025,295.019 545.577,295.019 546.128,295.019 546.68,295.019 547.231,295.019 
  547.782,295.019 548.334,295.019 548.885,295.019 549.437,295.019 549.988,295.019 550.539,295.019 551.091,295.019 551.642,295.019 552.194,295.019 552.745,295.019 
  553.296,295.019 553.848,295.019 554.399,295.019 554.951,295.019 555.502,295.019 556.053,295.019 556.605,295.019 557.156,295.019 557.708,295.019 558.259,295.019 
  558.81,295.019 559.362,295.019 559.913,295.019 560.465,295.019 561.016,295.019 561.567,295.019 562.119,295.019 562.67,295.019 563.222,295.019 563.773,295.019 
  564.324,295.019 564.876,295.019 565.427,295.019 565.979,295.019 566.53,295.019 567.081,295.019 567.633,295.019 568.184,295.019 568.736,295.019 569.287,295.019 
  569.838,295.019 570.39,295.019 570.941,295.019 571.493,295.019 572.044,295.019 572.595,295.019 573.147,295.019 573.698,295.019 574.25,295.019 574.801,295.019 
  575.352,295.019 575.904,295.019 576.455,295.019 577.007,295.019 577.558,295.019 578.109,295.019 578.661,295.019 579.212,295.019 579.764,295.019 580.315,295.019 
  
  "/>
<polyline clip-path="url(#clip1302)" style="stroke:#e26f46; stroke-width:1; stroke-opacity:1; fill:none" points="
  29.4661,295.019 30.0175,295.019 30.5689,295.019 31.1203,295.019 31.6717,295.019 32.2231,295.019 32.7745,295.019 33.3259,295.019 33.8773,295.019 34.4287,295.019 
  34.9801,295.019 35.5315,295.019 36.0829,295.019 36.6343,295.019 37.1857,295.019 37.7371,295.019 38.2885,295.019 38.8399,295.019 39.3913,295.019 39.9427,295.019 
  40.4941,295.019 41.0455,295.019 41.5969,295.019 42.1483,295.019 42.6997,295.019 43.2511,295.019 43.8025,295.019 44.3539,295.019 44.9053,295.019 45.4567,295.019 
  46.0081,295.019 46.5595,295.019 47.1109,295.019 47.6623,295.019 48.2137,295.019 48.7651,295.019 49.3165,295.019 49.8679,295.019 50.4193,295.019 50.9707,295.019 
  51.5221,295.019 52.0735,295.019 52.6249,295.019 53.1763,295.019 53.7277,295.019 54.2791,295.019 54.8305,295.019 55.3819,295.019 55.9333,295.019 56.4847,295.019 
  57.0361,295.019 57.5875,295.019 58.1389,295.019 58.6903,295.019 59.2417,295.019 59.7931,295.019 60.3445,295.019 60.896,295.019 61.4474,295.019 61.9988,295.019 
  62.5502,295.019 63.1016,295.019 63.653,295.019 64.2044,295.019 64.7558,295.019 65.3072,295.019 65.8586,295.019 66.41,295.019 66.9614,295.019 67.5128,295.019 
  68.0642,295.019 68.6156,295.019 69.167,295.019 69.7184,295.019 70.2698,295.019 70.8212,295.019 71.3726,295.019 71.924,295.019 72.4754,295.019 73.0268,295.019 
  73.5782,295.019 74.1296,295.019 74.681,295.019 75.2324,295.019 75.7838,295.019 76.3352,295.019 76.8866,295.019 77.438,295.019 77.9894,295.019 78.5408,295.019 
  79.0922,295.019 79.6436,295.019 80.195,295.019 80.7464,295.019 81.2978,295.019 81.8492,295.019 82.4006,295.019 82.952,295.019 83.5034,295.019 84.0548,295.019 
  84.6062,295.019 85.1576,295.019 85.709,295.019 86.2604,295.019 86.8118,295.019 87.3632,295.019 87.9146,295.019 88.466,295.019 89.0174,295.019 89.5688,295.019 
  90.1202,295.019 90.6716,295.019 91.223,295.019 91.7744,295.019 92.3258,295.019 92.8772,295.019 93.4286,295.019 93.98,295.019 94.5314,295.019 95.0828,295.019 
  95.6342,295.019 96.1856,295.019 96.737,295.019 97.2884,295.019 97.8398,295.019 98.3912,295.019 98.9426,295.019 99.494,295.019 100.045,295.019 100.597,295.019 
  101.148,295.019 101.7,295.019 102.251,295.019 102.802,295.019 103.354,295.019 103.905,295.019 104.457,295.019 105.008,295.019 105.559,295.019 106.111,295.019 
  106.662,295.019 107.214,295.019 107.765,295.019 108.316,295.019 108.868,295.019 109.419,295.019 109.971,295.019 110.522,295.019 111.073,295.019 111.625,295.019 
  112.176,295.019 112.728,295.019 113.279,295.019 113.83,295.019 114.382,295.019 114.933,295.019 115.485,295.019 116.036,295.019 116.587,295.019 117.139,295.019 
  117.69,295.019 118.242,295.019 118.793,295.019 119.344,295.019 119.896,295.019 120.447,295.019 120.999,295.019 121.55,295.019 122.101,295.019 122.653,295.019 
  123.204,295.019 123.756,295.019 124.307,295.019 124.858,295.019 125.41,295.019 125.961,295.019 126.513,295.019 127.064,295.019 127.615,295.019 128.167,295.019 
  128.718,295.019 129.27,295.019 129.821,295.019 130.372,295.019 130.924,295.019 131.475,295.019 132.027,295.019 132.578,295.019 133.129,295.019 133.681,295.019 
  134.232,295.019 134.784,295.019 135.335,295.019 135.886,295.019 136.438,295.019 136.989,295.019 137.541,295.019 138.092,295.019 138.643,295.019 139.195,295.019 
  139.746,295.019 140.298,295.019 140.849,295.019 141.4,295.019 141.952,295.019 142.503,295.019 143.055,295.019 143.606,295.019 144.157,295.019 144.709,295.019 
  145.26,295.019 145.812,295.019 146.363,295.019 146.914,295.019 147.466,295.019 148.017,295.019 148.569,295.019 149.12,295.019 149.671,295.019 150.223,295.019 
  150.774,295.019 151.326,295.019 151.877,295.019 152.428,295.019 152.98,295.019 153.531,295.019 154.083,295.019 154.634,295.019 155.185,295.019 155.737,295.019 
  156.288,295.019 156.84,295.019 157.391,295.019 157.942,295.019 158.494,295.019 159.045,295.019 159.597,295.019 160.148,295.019 160.699,295.019 161.251,295.019 
  161.802,295.019 162.354,295.019 162.905,295.019 163.456,295.019 164.008,295.019 164.559,295.019 165.111,295.019 165.662,295.019 166.213,295.019 166.765,295.019 
  167.316,295.019 167.868,295.019 168.419,295.019 168.97,295.019 169.522,295.019 170.073,295.019 170.625,295.019 171.176,295.019 171.727,295.019 172.279,295.019 
  172.83,295.019 173.382,295.019 173.933,295.019 174.484,295.019 175.036,295.019 175.587,295.019 176.139,295.019 176.69,295.019 177.241,295.019 177.793,295.019 
  178.344,295.019 178.896,295.019 179.447,295.019 179.998,295.019 180.55,295.019 181.101,295.019 181.653,295.019 182.204,295.019 182.755,295.019 183.307,295.019 
  183.858,295.019 184.41,295.019 184.961,295.019 185.512,295.019 186.064,295.019 186.615,295.019 187.167,295.019 187.718,295.019 188.269,295.019 188.821,295.019 
  189.372,295.019 189.924,295.019 190.475,295.019 191.026,295.019 191.578,295.019 192.129,295.019 192.681,295.019 193.232,295.019 193.783,295.019 194.335,295.019 
  194.886,295.019 195.438,295.019 195.989,295.019 196.54,295.019 197.092,295.019 197.643,295.019 198.195,295.019 198.746,295.019 199.297,295.019 199.849,295.019 
  200.4,295.019 200.952,295.019 201.503,295.019 202.054,295.019 202.606,295.019 203.157,295.019 203.709,295.019 204.26,295.019 204.811,295.019 205.363,295.019 
  205.914,295.019 206.466,295.019 207.017,295.019 207.568,295.019 208.12,295.019 208.671,295.019 209.223,295.019 209.774,295.019 210.325,295.019 210.877,295.019 
  211.428,295.019 211.98,295.019 212.531,295.019 213.082,295.019 213.634,295.019 214.185,295.019 214.737,295.019 215.288,295.019 215.839,295.019 216.391,295.019 
  216.942,295.019 217.494,295.019 218.045,295.019 218.596,295.019 219.148,295.019 219.699,295.019 220.251,295.019 220.802,295.019 221.353,295.019 221.905,295.019 
  222.456,295.019 223.008,295.019 223.559,295.019 224.11,295.019 224.662,295.019 225.213,295.019 225.765,295.019 226.316,295.019 226.867,295.019 227.419,295.019 
  227.97,295.019 228.522,295.019 229.073,295.019 229.624,295.019 230.176,295.019 230.727,295.019 231.279,295.019 231.83,295.019 232.381,295.019 232.933,295.019 
  233.484,295.019 234.036,295.019 234.587,295.019 235.138,295.019 235.69,295.019 236.241,295.019 236.793,295.019 237.344,295.019 237.895,295.019 238.447,295.019 
  238.998,295.019 239.55,295.019 240.101,295.019 240.652,295.019 241.204,295.019 241.755,295.019 242.307,295.019 242.858,295.019 243.409,295.019 243.961,295.019 
  244.512,295.019 245.064,295.019 245.615,295.019 246.166,295.019 246.718,295.019 247.269,295.019 247.821,295.019 248.372,295.019 248.923,295.019 249.475,295.019 
  250.026,295.019 250.578,295.019 251.129,295.019 251.68,295.019 252.232,295.019 252.783,295.019 253.335,295.019 253.886,295.019 254.437,295.019 254.989,295.019 
  255.54,295.019 256.092,295.019 256.643,295.019 257.194,295.019 257.746,295.019 258.297,295.019 258.849,295.019 259.4,295.019 259.951,295.019 260.503,295.019 
  261.054,295.019 261.606,295.019 262.157,295.019 262.708,295.019 263.26,295.019 263.811,295.019 264.363,295.019 264.914,295.019 265.465,295.019 266.017,295.019 
  266.568,295.019 267.12,295.019 267.671,295.019 268.222,295.019 268.774,295.019 269.325,295.019 269.877,295.019 270.428,295.019 270.979,295.019 271.531,295.019 
  272.082,295.019 272.634,295.019 273.185,295.019 273.736,295.019 274.288,295.019 274.839,295.019 275.391,295.019 275.942,295.019 276.493,295.019 277.045,295.019 
  277.596,295.019 278.148,295.019 278.699,295.019 279.25,295.019 279.802,295.019 280.353,295.019 280.905,295.019 281.456,295.019 282.007,295.019 282.559,295.019 
  283.11,295.019 283.662,295.019 284.213,295.019 284.764,295.019 285.316,295.019 285.867,295.019 286.419,295.019 286.97,295.019 287.521,295.019 288.073,295.019 
  288.624,295.019 289.176,295.019 289.727,295.019 290.278,295.019 290.83,295.019 291.381,295.019 291.933,295.019 292.484,295.019 293.035,295.019 293.587,295.019 
  294.138,295.019 294.69,295.019 295.241,295.019 295.792,295.019 296.344,295.019 296.895,295.019 297.447,295.019 297.998,295.019 298.549,295.019 299.101,295.019 
  299.652,295.019 300.204,295.019 300.755,295.019 301.306,295.019 301.858,295.019 302.409,295.019 302.961,295.019 303.512,295.019 304.063,295.019 304.615,295.019 
  305.166,293.533 305.718,290.314 306.269,286.782 306.82,282.906 307.372,279.214 307.923,275.67 308.475,271.54 309.026,266.973 309.577,263.129 310.129,259.65 
  310.68,255.83 311.232,252.019 311.783,247.522 312.334,242.673 312.886,237.898 313.437,232.859 313.989,229.07 314.54,225.51 315.091,221.617 315.643,218.029 
  316.194,213.798 316.746,209.611 317.297,205.671 317.848,201.563 318.4,196.585 318.951,191.463 319.503,186.396 320.054,181.122 320.605,176.126 321.157,170.998 
  321.708,165.604 322.26,160.594 322.811,156.712 323.362,152.916 323.914,149.07 324.465,145.24 325.017,141.072 325.568,137.059 326.119,133.251 326.671,129.159 
  327.222,124.68 327.774,120.221 328.325,115.746 328.876,111.408 329.428,107.214 329.979,102.922 330.531,98.6292 331.082,93.7588 331.633,88.4121 332.185,83.1467 
  332.736,77.6366 333.288,72.2818 333.839,66.9188 334.39,61.2875 334.942,55.6527 335.493,50.2806 336.045,44.9876 336.596,39.5688 337.147,34.1603 337.699,28.5404 
  338.25,22.7852 338.802,17.1252 339.353,11.811 339.904,15.3059 340.456,19.8242 341.007,23.8534 341.559,30.0516 342.11,33.8238 342.661,38.8867 343.213,45.9889 
  343.764,52.636 344.316,56.5305 344.867,60.8052 345.418,65.8812 345.97,71.4037 346.521,78.9935 347.073,86.7366 347.624,94.4946 348.175,100.967 348.727,105.077 
  349.278,109.262 349.83,113.483 350.381,118.272 350.932,123.787 351.484,128.915 352.035,133.819 352.587,140.365 353.138,148.148 353.689,156.053 354.241,164.333 
  354.792,172.106 355.344,179.747 355.895,188.017 356.446,196.556 356.998,201.316 357.549,204.901 358.101,208.944 358.652,211.888 359.203,216.528 359.755,220.939 
  360.306,224.196 360.858,227.617 361.409,232.874 361.96,238.134 362.512,243.037 363.063,248.215 363.615,252.364 364.166,256.539 364.717,261.044 365.269,265.911 
  365.82,272.993 366.372,280.371 366.923,287.676 367.474,295.359 368.026,302.498 368.577,310.011 369.129,318.032 369.68,325.611 370.231,332.488 370.783,339.396 
  371.334,346.392 371.886,353.738 372.437,361.501 372.988,369.305 373.54,377.062 374.091,379.834 374.643,378.382 375.194,376.747 375.745,373.808 376.297,371.99 
  376.848,370.447 377.4,366.953 377.951,362.609 378.502,361.047 379.054,360.094 379.605,358.18 380.157,356.632 380.708,352.755 381.259,348.294 381.811,344.353 
  382.362,339.694 382.914,338.894 383.465,338.247 384.016,336.807 384.568,336.162 385.119,334.102 385.671,332.207 386.222,330.954 386.773,329.083 387.325,325.247 
  387.876,321.191 388.428,317.154 388.979,312.883 389.53,309.239 390.082,305.323 390.633,300.95 391.185,298.249 391.736,298.575 392.287,299.226 392.839,300.117 
  393.39,300.715 393.942,300.727 394.493,301.352 395.044,302.589 395.596,302.836 396.147,302.279 396.699,301.914 397.25,301.515 397.801,301.809 398.353,302.572 
  398.904,303.138 399.456,303.804 400.007,302.474 400.558,300.223 401.11,298.262 401.661,295.714 402.213,293.861 402.764,291.948 403.315,289.364 403.867,286.755 
  404.418,285.515 404.97,284.253 405.521,282.739 406.072,281.462 406.624,279.433 407.175,277.416 407.727,275.607 408.278,274.061 408.829,274.646 409.381,275.479 
  409.932,276.235 410.484,277.35 411.035,277.973 411.586,278.935 412.138,280.382 412.689,281.51 413.241,281.922 413.792,282.418 414.343,283.041 414.895,283.927 
  415.446,285.214 415.998,286.527 416.549,287.83 417.1,288.699 417.652,289.115 418.203,289.579 418.755,290.009 419.306,290.599 419.857,291.3 420.409,291.874 
  420.96,292.413 421.512,293.417 422.063,294.63 422.614,295.809 423.166,297.12 423.717,298.236 424.269,299.366 424.82,300.643 425.371,301.926 425.923,301.648 
  426.474,301.157 427.026,300.832 427.577,300.048 428.128,299.832 428.68,299.437 429.231,298.65 429.783,297.937 430.334,297.775 430.886,297.565 431.437,297.236 
  431.988,296.893 432.54,296.202 433.091,295.494 433.643,294.83 434.194,294.37 434.745,294.525 435.297,294.715 435.848,294.894 436.4,295.054 436.951,295.085 
  437.502,295.208 438.054,295.433 438.605,295.419 439.157,295.17 439.708,294.926 440.259,294.656 440.811,294.497 441.362,294.423 441.914,294.283 442.465,294.125 
  443.016,294.117 443.568,294.188 444.119,294.253 444.671,294.362 445.222,294.405 445.773,294.447 446.325,294.543 446.876,294.642 447.428,294.697 447.979,294.757 
  448.53,294.833 449.082,294.904 449.633,295.019 450.185,295.14 450.736,295.258 451.287,295.369 451.839,295.325 452.39,295.269 452.942,295.227 453.493,295.161 
  454.044,295.14 454.596,295.102 455.147,295.033 455.699,294.989 456.25,295.006 456.801,295.021 457.353,295.032 457.904,295.035 458.456,295.011 459.007,294.993 
  459.558,294.98 460.11,294.976 460.661,294.982 461.213,294.989 461.764,294.997 462.315,295.004 462.867,295.011 463.418,295.021 463.97,295.033 464.521,295.034 
  465.072,295.028 465.624,295.025 466.175,295.019 466.727,295.019 467.278,295.02 467.829,295.018 468.381,295.017 468.932,295.018 469.484,295.018 470.035,295.019 
  470.586,295.02 471.138,295.02 471.689,295.019 472.241,295.019 472.792,295.019 473.343,295.019 473.895,295.019 474.446,295.019 474.998,295.019 475.549,295.019 
  476.1,295.019 476.652,295.019 477.203,295.019 477.755,295.019 478.306,295.019 478.857,295.019 479.409,295.019 479.96,295.019 480.512,295.019 481.063,295.019 
  481.614,295.019 482.166,295.019 482.717,295.019 483.269,295.019 483.82,295.019 484.371,295.019 484.923,295.019 485.474,295.019 486.026,295.019 486.577,295.019 
  487.128,295.019 487.68,295.019 488.231,295.019 488.783,295.019 489.334,295.019 489.885,295.019 490.437,295.019 490.988,295.019 491.54,295.019 492.091,295.019 
  492.642,295.019 493.194,295.019 493.745,295.019 494.297,295.019 494.848,295.019 495.399,295.019 495.951,295.019 496.502,295.019 497.054,295.019 497.605,295.019 
  498.156,295.019 498.708,295.019 499.259,295.019 499.811,295.019 500.362,295.019 500.913,295.019 501.465,295.019 502.016,295.019 502.568,295.019 503.119,295.019 
  503.67,295.019 504.222,295.019 504.773,295.019 505.325,295.019 505.876,295.019 506.427,295.019 506.979,295.019 507.53,295.019 508.082,295.019 508.633,295.019 
  509.184,295.019 509.736,295.019 510.287,295.019 510.839,295.019 511.39,295.019 511.941,295.019 512.493,295.019 513.044,295.019 513.596,295.019 514.147,295.019 
  514.698,295.019 515.25,295.019 515.801,295.019 516.353,295.019 516.904,295.019 517.455,295.019 518.007,295.019 518.558,295.019 519.11,295.019 519.661,295.019 
  520.212,295.019 520.764,295.019 521.315,295.019 521.867,295.019 522.418,295.019 522.969,295.019 523.521,295.019 524.072,295.019 524.624,295.019 525.175,295.019 
  525.726,295.019 526.278,295.019 526.829,295.019 527.381,295.019 527.932,295.019 528.483,295.019 529.035,295.019 529.586,295.019 530.138,295.019 530.689,295.019 
  531.24,295.019 531.792,295.019 532.343,295.019 532.895,295.019 533.446,295.019 533.997,295.019 534.549,295.019 535.1,295.019 535.652,295.019 536.203,295.019 
  536.754,295.019 537.306,295.019 537.857,295.019 538.409,295.019 538.96,295.019 539.511,295.019 540.063,295.019 540.614,295.019 541.166,295.019 541.717,295.019 
  542.268,295.019 542.82,295.019 543.371,295.019 543.923,295.019 544.474,295.019 545.025,295.019 545.577,295.019 546.128,295.019 546.68,295.019 547.231,295.019 
  547.782,295.019 548.334,295.019 548.885,295.019 549.437,295.019 549.988,295.019 550.539,295.019 551.091,295.019 551.642,295.019 552.194,295.019 552.745,295.019 
  553.296,295.019 553.848,295.019 554.399,295.019 554.951,295.019 555.502,295.019 556.053,295.019 556.605,295.019 557.156,295.019 557.708,295.019 558.259,295.019 
  558.81,295.019 559.362,295.019 559.913,295.019 560.465,295.019 561.016,295.019 561.567,295.019 562.119,295.019 562.67,295.019 563.222,295.019 563.773,295.019 
  564.324,295.019 564.876,295.019 565.427,295.019 565.979,295.019 566.53,295.019 567.081,295.019 567.633,295.019 568.184,295.019 568.736,295.019 569.287,295.019 
  569.838,295.019 570.39,295.019 570.941,295.019 571.493,295.019 572.044,295.019 572.595,295.019 573.147,295.019 573.698,295.019 574.25,295.019 574.801,295.019 
  575.352,295.019 575.904,295.019 576.455,295.019 577.007,295.019 577.558,295.019 578.109,295.019 578.661,295.019 579.212,295.019 579.764,295.019 580.315,295.019 
  
  "/>
<polygon clip-path="url(#clip1300)" points="
489.608,78.051 562.315,78.051 562.315,32.691 489.608,32.691 
  " fill="#ffffff" fill-opacity="1"/>
<polyline clip-path="url(#clip1300)" style="stroke:#000000; stroke-width:1; stroke-opacity:1; fill:none" points="
  489.608,78.051 562.315,78.051 562.315,32.691 489.608,32.691 489.608,78.051 
  "/>
<polyline clip-path="url(#clip1300)" style="stroke:#009af9; stroke-width:1; stroke-opacity:1; fill:none" points="
  495.608,47.811 531.608,47.811 
  "/>
<g clip-path="url(#clip1300)">
<text style="fill:#000000; fill-opacity:1; font-family:Arial,Helvetica Neue,Helvetica,sans-serif; font-size:12; text-anchor:start;" transform="rotate(0, 537.608, 52.311)" x="537.608" y="52.311">y1</text>
</g>
<polyline clip-path="url(#clip1300)" style="stroke:#e26f46; stroke-width:1; stroke-opacity:1; fill:none" points="
  495.608,62.931 531.608,62.931 
  "/>
<g clip-path="url(#clip1300)">
<text style="fill:#000000; fill-opacity:1; font-family:Arial,Helvetica Neue,Helvetica,sans-serif; font-size:12; text-anchor:start;" transform="rotate(0, 537.608, 67.431)" x="537.608" y="67.431">y2</text>
</g>
</svg>
