<?xml version="1.0" encoding="utf-8"?>
<svg xmlns="http://www.w3.org/2000/svg" xmlns:xlink="http://www.w3.org/1999/xlink" width="600" height="400" viewBox="0 0 600 400">
<defs>
  <clipPath id="clip0800">
    <rect x="0" y="0" width="600" height="400"/>
  </clipPath>
</defs>
<polygon clip-path="url(#clip0800)" points="
0,400 600,400 600,0 0,0 
  " fill="#ffffff" fill-opacity="1"/>
<defs>
  <clipPath id="clip0801">
    <rect x="120" y="0" width="421" height="400"/>
  </clipPath>
</defs>
<polygon clip-path="url(#clip0800)" points="
29.4661,375.869 580.315,375.869 580.315,11.811 29.4661,11.811 
  " fill="#ffffff" fill-opacity="1"/>
<defs>
  <clipPath id="clip0802">
    <rect x="29" y="11" width="552" height="365"/>
  </clipPath>
</defs>
<polyline clip-path="url(#clip0802)" style="stroke:#000000; stroke-width:0.5; stroke-opacity:0.1; fill:none" points="
  29.4661,375.869 29.4661,11.811 
  "/>
<polyline clip-path="url(#clip0802)" style="stroke:#000000; stroke-width:0.5; stroke-opacity:0.1; fill:none" points="
  108.159,375.869 108.159,11.811 
  "/>
<polyline clip-path="url(#clip0802)" style="stroke:#000000; stroke-width:0.5; stroke-opacity:0.1; fill:none" points="
  186.852,375.869 186.852,11.811 
  "/>
<polyline clip-path="url(#clip0802)" style="stroke:#000000; stroke-width:0.5; stroke-opacity:0.1; fill:none" points="
  265.544,375.869 265.544,11.811 
  "/>
<polyline clip-path="url(#clip0802)" style="stroke:#000000; stroke-width:0.5; stroke-opacity:0.1; fill:none" points="
  344.237,375.869 344.237,11.811 
  "/>
<polyline clip-path="url(#clip0802)" style="stroke:#000000; stroke-width:0.5; stroke-opacity:0.1; fill:none" points="
  422.93,375.869 422.93,11.811 
  "/>
<polyline clip-path="url(#clip0802)" style="stroke:#000000; stroke-width:0.5; stroke-opacity:0.1; fill:none" points="
  501.622,375.869 501.622,11.811 
  "/>
<polyline clip-path="url(#clip0802)" style="stroke:#000000; stroke-width:0.5; stroke-opacity:0.1; fill:none" points="
  580.315,375.869 580.315,11.811 
  "/>
<polyline clip-path="url(#clip0802)" style="stroke:#000000; stroke-width:0.5; stroke-opacity:0.1; fill:none" points="
  29.4661,352.415 580.315,352.415 
  "/>
<polyline clip-path="url(#clip0802)" style="stroke:#000000; stroke-width:0.5; stroke-opacity:0.1; fill:none" points="
  29.4661,273.128 580.315,273.128 
  "/>
<polyline clip-path="url(#clip0802)" style="stroke:#000000; stroke-width:0.5; stroke-opacity:0.1; fill:none" points="
  29.4661,193.84 580.315,193.84 
  "/>
<polyline clip-path="url(#clip0802)" style="stroke:#000000; stroke-width:0.5; stroke-opacity:0.1; fill:none" points="
  29.4661,114.552 580.315,114.552 
  "/>
<polyline clip-path="url(#clip0802)" style="stroke:#000000; stroke-width:0.5; stroke-opacity:0.1; fill:none" points="
  29.4661,35.2644 580.315,35.2644 
  "/>
<polyline clip-path="url(#clip0800)" style="stroke:#000000; stroke-width:1; stroke-opacity:1; fill:none" points="
  29.4661,375.869 580.315,375.869 
  "/>
<polyline clip-path="url(#clip0800)" style="stroke:#000000; stroke-width:1; stroke-opacity:1; fill:none" points="
  29.4661,375.869 29.4661,11.811 
  "/>
<polyline clip-path="url(#clip0800)" style="stroke:#000000; stroke-width:1; stroke-opacity:1; fill:none" points="
  29.4661,375.869 29.4661,370.408 
  "/>
<polyline clip-path="url(#clip0800)" style="stroke:#000000; stroke-width:1; stroke-opacity:1; fill:none" points="
  108.159,375.869 108.159,370.408 
  "/>
<polyline clip-path="url(#clip0800)" style="stroke:#000000; stroke-width:1; stroke-opacity:1; fill:none" points="
  186.852,375.869 186.852,370.408 
  "/>
<polyline clip-path="url(#clip0800)" style="stroke:#000000; stroke-width:1; stroke-opacity:1; fill:none" points="
  265.544,375.869 265.544,370.408 
  "/>
<polyline clip-path="url(#clip0800)" style="stroke:#000000; stroke-width:1; stroke-opacity:1; fill:none" points="
  344.237,375.869 344.237,370.408 
  "/>
<polyline clip-path="url(#clip0800)" style="stroke:#000000; stroke-width:1; stroke-opacity:1; fill:none" points="
  422.93,375.869 422.93,370.408 
  "/>
<polyline clip-path="url(#clip0800)" style="stroke:#000000; stroke-width:1; stroke-opacity:1; fill:none" points="
  501.622,375.869 501.622,370.408 
  "/>
<polyline clip-path="url(#clip0800)" style="stroke:#000000; stroke-width:1; stroke-opacity:1; fill:none" points="
  580.315,375.869 580.315,370.408 
  "/>
<polyline clip-path="url(#clip0800)" style="stroke:#000000; stroke-width:1; stroke-opacity:1; fill:none" points="
  29.4661,352.415 37.7289,352.415 
  "/>
<polyline clip-path="url(#clip0800)" style="stroke:#000000; stroke-width:1; stroke-opacity:1; fill:none" points="
  29.4661,273.128 37.7289,273.128 
  "/>
<polyline clip-path="url(#clip0800)" style="stroke:#000000; stroke-width:1; stroke-opacity:1; fill:none" points="
  29.4661,193.84 37.7289,193.84 
  "/>
<polyline clip-path="url(#clip0800)" style="stroke:#000000; stroke-width:1; stroke-opacity:1; fill:none" points="
  29.4661,114.552 37.7289,114.552 
  "/>
<polyline clip-path="url(#clip0800)" style="stroke:#000000; stroke-width:1; stroke-opacity:1; fill:none" points="
  29.4661,35.2644 37.7289,35.2644 
  "/>
<g clip-path="url(#clip0800)">
<text style="fill:#000000; fill-opacity:1; font-family:Arial,Helvetica Neue,Helvetica,sans-serif; font-size:12; text-anchor:middle;" transform="rotate(0, 29.4661, 389.669)" x="29.4661" y="389.669">-3</text>
</g>
<g clip-path="url(#clip0800)">
<text style="fill:#000000; fill-opacity:1; font-family:Arial,Helvetica Neue,Helvetica,sans-serif; font-size:12; text-anchor:middle;" transform="rotate(0, 108.159, 389.669)" x="108.159" y="389.669">-2</text>
</g>
<g clip-path="url(#clip0800)">
<text style="fill:#000000; fill-opacity:1; font-family:Arial,Helvetica Neue,Helvetica,sans-serif; font-size:12; text-anchor:middle;" transform="rotate(0, 186.852, 389.669)" x="186.852" y="389.669">-1</text>
</g>
<g clip-path="url(#clip0800)">
<text style="fill:#000000; fill-opacity:1; font-family:Arial,Helvetica Neue,Helvetica,sans-serif; font-size:12; text-anchor:middle;" transform="rotate(0, 265.544, 389.669)" x="265.544" y="389.669">0</text>
</g>
<g clip-path="url(#clip0800)">
<text style="fill:#000000; fill-opacity:1; font-family:Arial,Helvetica Neue,Helvetica,sans-serif; font-size:12; text-anchor:middle;" transform="rotate(0, 344.237, 389.669)" x="344.237" y="389.669">1</text>
</g>
<g clip-path="url(#clip0800)">
<text style="fill:#000000; fill-opacity:1; font-family:Arial,Helvetica Neue,Helvetica,sans-serif; font-size:12; text-anchor:middle;" transform="rotate(0, 422.93, 389.669)" x="422.93" y="389.669">2</text>
</g>
<g clip-path="url(#clip0800)">
<text style="fill:#000000; fill-opacity:1; font-family:Arial,Helvetica Neue,Helvetica,sans-serif; font-size:12; text-anchor:middle;" transform="rotate(0, 501.622, 389.669)" x="501.622" y="389.669">3</text>
</g>
<g clip-path="url(#clip0800)">
<text style="fill:#000000; fill-opacity:1; font-family:Arial,Helvetica Neue,Helvetica,sans-serif; font-size:12; text-anchor:middle;" transform="rotate(0, 580.315, 389.669)" x="580.315" y="389.669">4</text>
</g>
<g clip-path="url(#clip0800)">
<text style="fill:#000000; fill-opacity:1; font-family:Arial,Helvetica Neue,Helvetica,sans-serif; font-size:12; text-anchor:end;" transform="rotate(0, 23.4661, 356.915)" x="23.4661" y="356.915">-4</text>
</g>
<g clip-path="url(#clip0800)">
<text style="fill:#000000; fill-opacity:1; font-family:Arial,Helvetica Neue,Helvetica,sans-serif; font-size:12; text-anchor:end;" transform="rotate(0, 23.4661, 277.628)" x="23.4661" y="277.628">-2</text>
</g>
<g clip-path="url(#clip0800)">
<text style="fill:#000000; fill-opacity:1; font-family:Arial,Helvetica Neue,Helvetica,sans-serif; font-size:12; text-anchor:end;" transform="rotate(0, 23.4661, 198.34)" x="23.4661" y="198.34">0</text>
</g>
<g clip-path="url(#clip0800)">
<text style="fill:#000000; fill-opacity:1; font-family:Arial,Helvetica Neue,Helvetica,sans-serif; font-size:12; text-anchor:end;" transform="rotate(0, 23.4661, 119.052)" x="23.4661" y="119.052">2</text>
</g>
<g clip-path="url(#clip0800)">
<text style="fill:#000000; fill-opacity:1; font-family:Arial,Helvetica Neue,Helvetica,sans-serif; font-size:12; text-anchor:end;" transform="rotate(0, 23.4661, 39.7644)" x="23.4661" y="39.7644">4</text>
</g>
<polyline clip-path="url(#clip0802)" style="stroke:#009af9; stroke-width:1; stroke-opacity:1; fill:none" points="
  186.852,193.84 187.159,193.84 187.466,193.839 187.774,193.837 188.081,193.835 188.388,193.832 188.696,193.829 189.003,193.825 189.311,193.82 189.618,193.815 
  189.925,193.81 190.233,193.803 190.54,193.796 190.848,193.789 191.155,193.781 191.462,193.772 191.77,193.762 192.077,193.752 192.385,193.742 192.692,193.731 
  192.999,193.719 193.307,193.706 193.614,193.693 193.922,193.68 194.229,193.666 194.536,193.651 194.844,193.635 195.151,193.619 195.459,193.603 195.766,193.585 
  196.073,193.568 196.381,193.549 196.688,193.53 196.995,193.51 197.303,193.49 197.61,193.469 197.918,193.448 198.225,193.426 198.532,193.403 198.84,193.38 
  199.147,193.356 199.455,193.331 199.762,193.306 200.069,193.281 200.377,193.254 200.684,193.227 200.992,193.2 201.299,193.172 201.606,193.143 201.914,193.114 
  202.221,193.084 202.529,193.053 202.836,193.022 203.143,192.99 203.451,192.958 203.758,192.925 204.066,192.891 204.373,192.857 204.68,192.822 204.988,192.787 
  205.295,192.751 205.603,192.714 205.91,192.677 206.217,192.639 206.525,192.601 206.832,192.562 207.139,192.522 207.447,192.482 207.754,192.441 208.062,192.4 
  208.369,192.358 208.676,192.315 208.984,192.272 209.291,192.228 209.599,192.184 209.906,192.139 210.213,192.093 210.521,192.047 210.828,192 211.136,191.952 
  211.443,191.904 211.75,191.855 212.058,191.806 212.365,191.756 212.673,191.706 212.98,191.655 213.287,191.603 213.595,191.551 213.902,191.498 214.21,191.444 
  214.517,191.39 214.824,191.335 215.132,191.28 215.439,191.224 215.746,191.167 216.054,191.11 216.361,191.052 216.669,190.994 216.976,190.935 217.283,190.875 
  217.591,190.815 217.898,190.754 218.206,190.693 218.513,190.631 218.82,190.568 219.128,190.505 219.435,190.441 219.743,190.377 220.05,190.312 220.357,190.246 
  220.665,190.18 220.972,190.113 221.28,190.046 221.587,189.978 221.894,189.909 222.202,189.84 222.509,189.77 222.817,189.699 223.124,189.628 223.431,189.557 
  223.739,189.484 224.046,189.412 224.354,189.338 224.661,189.264 224.968,189.189 225.276,189.114 225.583,189.038 225.89,188.961 226.198,188.884 226.505,188.807 
  226.813,188.728 227.12,188.649 227.427,188.57 227.735,188.49 228.042,188.409 228.35,188.328 228.657,188.246 228.964,188.163 229.272,188.08 229.579,187.996 
  229.887,187.912 230.194,187.827 230.501,187.741 230.809,187.655 231.116,187.568 231.424,187.481 231.731,187.393 232.038,187.304 232.346,187.215 232.653,187.125 
  232.961,187.035 233.268,186.943 233.575,186.852 233.883,186.76 234.19,186.667 234.497,186.573 234.805,186.479 235.112,186.385 235.42,186.289 235.727,186.193 
  236.034,186.097 236.342,186 236.649,185.902 236.957,185.804 237.264,185.705 237.571,185.605 237.879,185.505 238.186,185.405 238.494,185.303 238.801,185.201 
  239.108,185.099 239.416,184.996 239.723,184.892 240.031,184.788 240.338,184.683 240.645,184.577 240.953,184.471 241.26,184.364 241.568,184.257 241.875,184.149 
  242.182,184.04 242.49,183.931 242.797,183.821 243.104,183.711 243.412,183.6 243.719,183.488 244.027,183.376 244.334,183.263 244.641,183.15 244.949,183.036 
  245.256,182.921 245.564,182.806 245.871,182.69 246.178,182.574 246.486,182.457 246.793,182.339 247.101,182.221 247.408,182.102 247.715,181.982 248.023,181.862 
  248.33,181.742 248.638,181.62 248.945,181.498 249.252,181.376 249.56,181.253 249.867,181.129 250.175,181.005 250.482,180.88 250.789,180.754 251.097,180.628 
  251.404,180.501 251.712,180.374 252.019,180.246 252.326,180.118 252.634,179.988 252.941,179.859 253.248,179.728 253.556,179.597 253.863,179.466 254.171,179.334 
  254.478,179.201 254.785,179.067 255.093,178.933 255.4,178.799 255.708,178.664 256.015,178.528 256.322,178.391 256.63,178.254 256.937,178.117 257.245,177.979 
  257.552,177.84 257.859,177.7 258.167,177.56 258.474,177.42 258.782,177.278 259.089,177.137 259.396,176.994 259.704,176.851 260.011,176.707 260.319,176.563 
  260.626,176.418 260.933,176.273 261.241,176.127 261.548,175.98 261.855,175.833 262.163,175.685 262.47,175.536 262.778,175.387 263.085,175.237 263.392,175.087 
  263.7,174.936 264.007,174.785 264.315,174.633 264.622,174.48 264.929,174.326 265.237,174.172 265.544,174.018 265.852,173.864 266.159,173.711 266.466,173.559 
  266.774,173.408 267.081,173.259 267.389,173.111 267.696,172.964 268.003,172.818 268.311,172.673 268.618,172.53 268.926,172.388 269.233,172.247 269.54,172.107 
  269.848,171.968 270.155,171.831 270.462,171.695 270.77,171.56 271.077,171.426 271.385,171.294 271.692,171.163 271.999,171.033 272.307,170.904 272.614,170.776 
  272.922,170.65 273.229,170.525 273.536,170.401 273.844,170.278 274.151,170.156 274.459,170.036 274.766,169.917 275.073,169.799 275.381,169.682 275.688,169.566 
  275.996,169.452 276.303,169.339 276.61,169.227 276.918,169.116 277.225,169.007 277.533,168.899 277.84,168.791 278.147,168.686 278.455,168.581 278.762,168.477 
  279.07,168.375 279.377,168.274 279.684,168.174 279.992,168.076 280.299,167.978 280.606,167.882 280.914,167.787 281.221,167.694 281.529,167.601 281.836,167.51 
  282.143,167.419 282.451,167.331 282.758,167.243 283.066,167.156 283.373,167.071 283.68,166.987 283.988,166.904 284.295,166.822 284.603,166.742 284.91,166.663 
  285.217,166.585 285.525,166.508 285.832,166.432 286.14,166.358 286.447,166.285 286.754,166.213 287.062,166.142 287.369,166.072 287.677,166.004 287.984,165.937 
  288.291,165.871 288.599,165.806 288.906,165.743 289.213,165.68 289.521,165.619 289.828,165.559 290.136,165.501 290.443,165.443 290.75,165.387 291.058,165.332 
  291.365,165.278 291.673,165.225 291.98,165.174 292.287,165.124 292.595,165.075 292.902,165.027 293.21,164.98 293.517,164.935 293.824,164.891 294.132,164.848 
  294.439,164.806 294.747,164.766 295.054,164.726 295.361,164.688 295.669,164.651 295.976,164.616 296.284,164.581 296.591,164.548 296.898,164.516 297.206,164.485 
  297.513,164.455 297.821,164.427 298.128,164.4 298.435,164.374 298.743,164.349 299.05,164.325 299.357,164.303 299.665,164.282 299.972,164.262 300.28,164.243 
  300.587,164.226 300.894,164.209 301.202,164.194 301.509,164.18 301.817,164.167 302.124,164.156 302.431,164.146 302.739,164.137 303.046,164.129 303.354,164.122 
  303.661,164.117 303.968,164.112 304.276,164.109 304.583,164.108 304.891,164.107 305.198,164.108 305.505,164.109 305.813,164.112 306.12,164.117 306.428,164.122 
  306.735,164.129 307.042,164.137 307.35,164.146 307.657,164.156 307.964,164.167 308.272,164.18 308.579,164.194 308.887,164.209 309.194,164.226 309.501,164.243 
  309.809,164.262 310.116,164.282 310.424,164.303 310.731,164.325 311.038,164.349 311.346,164.374 311.653,164.4 311.961,164.427 312.268,164.455 312.575,164.485 
  312.883,164.516 313.19,164.548 313.498,164.581 313.805,164.616 314.112,164.651 314.42,164.688 314.727,164.726 315.035,164.766 315.342,164.806 315.649,164.848 
  315.957,164.891 316.264,164.935 316.571,164.98 316.879,165.027 317.186,165.075 317.494,165.124 317.801,165.174 318.108,165.225 318.416,165.278 318.723,165.332 
  319.031,165.387 319.338,165.443 319.645,165.501 319.953,165.559 320.26,165.619 320.568,165.68 320.875,165.743 321.182,165.806 321.49,165.871 321.797,165.937 
  322.105,166.004 322.412,166.072 322.719,166.142 323.027,166.213 323.334,166.285 323.642,166.358 323.949,166.432 324.256,166.508 324.564,166.585 324.871,166.663 
  325.179,166.742 325.486,166.822 325.793,166.904 326.101,166.987 326.408,167.071 326.715,167.156 327.023,167.243 327.33,167.331 327.638,167.419 327.945,167.51 
  328.252,167.601 328.56,167.694 328.867,167.787 329.175,167.882 329.482,167.978 329.789,168.076 330.097,168.174 330.404,168.274 330.712,168.375 331.019,168.477 
  331.326,168.581 331.634,168.686 331.941,168.791 332.249,168.899 332.556,169.007 332.863,169.116 333.171,169.227 333.478,169.339 333.786,169.452 334.093,169.566 
  334.4,169.682 334.708,169.799 335.015,169.917 335.322,170.036 335.63,170.156 335.937,170.278 336.245,170.401 336.552,170.525 336.859,170.65 337.167,170.776 
  337.474,170.904 337.782,171.033 338.089,171.163 338.396,171.294 338.704,171.426 339.011,171.56 339.319,171.695 339.626,171.831 339.933,171.968 340.241,172.107 
  340.548,172.247 340.856,172.388 341.163,172.53 341.47,172.673 341.778,172.818 342.085,172.964 342.393,173.111 342.7,173.259 343.007,173.408 343.315,173.559 
  343.622,173.711 343.93,173.864 344.237,174.018 344.544,174.172 344.852,174.326 345.159,174.48 345.466,174.633 345.774,174.785 346.081,174.936 346.389,175.087 
  346.696,175.237 347.003,175.387 347.311,175.536 347.618,175.685 347.926,175.833 348.233,175.98 348.54,176.127 348.848,176.273 349.155,176.418 349.463,176.563 
  349.77,176.707 350.077,176.851 350.385,176.994 350.692,177.137 351,177.278 351.307,177.42 351.614,177.56 351.922,177.7 352.229,177.84 352.537,177.979 
  352.844,178.117 353.151,178.254 353.459,178.391 353.766,178.528 354.073,178.664 354.381,178.799 354.688,178.933 354.996,179.067 355.303,179.201 355.61,179.334 
  355.918,179.466 356.225,179.597 356.533,179.728 356.84,179.859 357.147,179.988 357.455,180.118 357.762,180.246 358.07,180.374 358.377,180.501 358.684,180.628 
  358.992,180.754 359.299,180.88 359.607,181.005 359.914,181.129 360.221,181.253 360.529,181.376 360.836,181.498 361.144,181.62 361.451,181.742 361.758,181.862 
  362.066,181.982 362.373,182.102 362.68,182.221 362.988,182.339 363.295,182.457 363.603,182.574 363.91,182.69 364.217,182.806 364.525,182.921 364.832,183.036 
  365.14,183.15 365.447,183.263 365.754,183.376 366.062,183.488 366.369,183.6 366.677,183.711 366.984,183.821 367.291,183.931 367.599,184.04 367.906,184.149 
  368.214,184.257 368.521,184.364 368.828,184.471 369.136,184.577 369.443,184.683 369.751,184.788 370.058,184.892 370.365,184.996 370.673,185.099 370.98,185.201 
  371.288,185.303 371.595,185.405 371.902,185.505 372.21,185.605 372.517,185.705 372.824,185.804 373.132,185.902 373.439,186 373.747,186.097 374.054,186.193 
  374.361,186.289 374.669,186.385 374.976,186.479 375.284,186.573 375.591,186.667 375.898,186.76 376.206,186.852 376.513,186.943 376.821,187.035 377.128,187.125 
  377.435,187.215 377.743,187.304 378.05,187.393 378.358,187.481 378.665,187.568 378.972,187.655 379.28,187.741 379.587,187.827 379.895,187.912 380.202,187.996 
  380.509,188.08 380.817,188.163 381.124,188.246 381.431,188.328 381.739,188.409 382.046,188.49 382.354,188.57 382.661,188.649 382.968,188.728 383.276,188.807 
  383.583,188.884 383.891,188.961 384.198,189.038 384.505,189.114 384.813,189.189 385.12,189.264 385.428,189.338 385.735,189.412 386.042,189.484 386.35,189.557 
  386.657,189.628 386.965,189.699 387.272,189.77 387.579,189.84 387.887,189.909 388.194,189.978 388.502,190.046 388.809,190.113 389.116,190.18 389.424,190.246 
  389.731,190.312 390.038,190.377 390.346,190.441 390.653,190.505 390.961,190.568 391.268,190.631 391.575,190.693 391.883,190.754 392.19,190.815 392.498,190.875 
  392.805,190.935 393.112,190.994 393.42,191.052 393.727,191.11 394.035,191.167 394.342,191.224 394.649,191.28 394.957,191.335 395.264,191.39 395.572,191.444 
  395.879,191.498 396.186,191.551 396.494,191.603 396.801,191.655 397.109,191.706 397.416,191.756 397.723,191.806 398.031,191.855 398.338,191.904 398.646,191.952 
  398.953,192 399.26,192.047 399.568,192.093 399.875,192.139 400.182,192.184 400.49,192.228 400.797,192.272 401.105,192.315 401.412,192.358 401.719,192.4 
  402.027,192.441 402.334,192.482 402.642,192.522 402.949,192.562 403.256,192.601 403.564,192.639 403.871,192.677 404.179,192.714 404.486,192.751 404.793,192.787 
  405.101,192.822 405.408,192.857 405.716,192.891 406.023,192.925 406.33,192.958 406.638,192.99 406.945,193.022 407.253,193.053 407.56,193.084 407.867,193.114 
  408.175,193.143 408.482,193.172 408.789,193.2 409.097,193.227 409.404,193.254 409.712,193.281 410.019,193.306 410.326,193.331 410.634,193.356 410.941,193.38 
  411.249,193.403 411.556,193.426 411.863,193.448 412.171,193.469 412.478,193.49 412.786,193.51 413.093,193.53 413.4,193.549 413.708,193.568 414.015,193.585 
  414.323,193.603 414.63,193.619 414.937,193.635 415.245,193.651 415.552,193.666 415.86,193.68 416.167,193.693 416.474,193.706 416.782,193.719 417.089,193.731 
  417.397,193.742 417.704,193.752 418.011,193.762 418.319,193.772 418.626,193.781 418.933,193.789 419.241,193.796 419.548,193.803 419.856,193.81 420.163,193.815 
  420.47,193.82 420.778,193.825 421.085,193.829 421.393,193.832 421.7,193.835 422.007,193.837 422.315,193.839 422.622,193.84 422.93,193.84 
  "/>
<polyline clip-path="url(#clip0802)" style="stroke:#e26f46; stroke-width:1; stroke-opacity:1; fill:none" points="
  108.159,193.84 108.466,193.84 108.774,193.84 109.081,193.841 109.388,193.842 109.696,193.843 110.003,193.844 110.311,193.845 110.618,193.847 110.925,193.849 
  111.233,193.851 111.54,193.854 111.848,193.856 112.155,193.859 112.462,193.862 112.77,193.865 113.077,193.869 113.385,193.873 113.692,193.877 113.999,193.881 
  114.307,193.885 114.614,193.89 114.921,193.895 115.229,193.9 115.536,193.905 115.844,193.911 116.151,193.917 116.458,193.923 116.766,193.929 117.073,193.935 
  117.381,193.942 117.688,193.949 117.995,193.956 118.303,193.963 118.61,193.971 118.918,193.979 119.225,193.987 119.532,193.995 119.84,194.004 120.147,194.012 
  120.455,194.021 120.762,194.031 121.069,194.04 121.377,194.05 121.684,194.059 121.992,194.07 122.299,194.08 122.606,194.09 122.914,194.101 123.221,194.112 
  123.528,194.123 123.836,194.135 124.143,194.147 124.451,194.158 124.758,194.171 125.065,194.183 125.373,194.196 125.68,194.208 125.988,194.221 126.295,194.235 
  126.602,194.248 126.91,194.262 127.217,194.276 127.525,194.29 127.832,194.304 128.139,194.319 128.447,194.334 128.754,194.349 129.062,194.364 129.369,194.38 
  129.676,194.396 129.984,194.412 130.291,194.428 130.599,194.444 130.906,194.461 131.213,194.478 131.521,194.495 131.828,194.512 132.136,194.53 132.443,194.548 
  132.75,194.566 133.058,194.584 133.365,194.603 133.672,194.621 133.98,194.64 134.287,194.659 134.595,194.679 134.902,194.698 135.209,194.718 135.517,194.738 
  135.824,194.759 136.132,194.779 136.439,194.8 136.746,194.821 137.054,194.842 137.361,194.863 137.669,194.885 137.976,194.907 138.283,194.929 138.591,194.952 
  138.898,194.974 139.206,194.997 139.513,195.02 139.82,195.043 140.128,195.067 140.435,195.09 140.743,195.114 141.05,195.138 141.357,195.163 141.665,195.187 
  141.972,195.212 142.279,195.237 142.587,195.263 142.894,195.288 143.202,195.314 143.509,195.34 143.816,195.366 144.124,195.392 144.431,195.419 144.739,195.446 
  145.046,195.473 145.353,195.5 145.661,195.528 145.968,195.556 146.276,195.584 146.583,195.612 146.89,195.641 147.198,195.669 147.505,195.698 147.813,195.727 
  148.12,195.757 148.427,195.786 148.735,195.816 149.042,195.846 149.35,195.876 149.657,195.907 149.964,195.938 150.272,195.969 150.579,196 150.886,196.031 
  151.194,196.063 151.501,196.095 151.809,196.127 152.116,196.159 152.423,196.192 152.731,196.225 153.038,196.258 153.346,196.291 153.653,196.324 153.96,196.358 
  154.268,196.392 154.575,196.426 154.883,196.46 155.19,196.495 155.497,196.53 155.805,196.565 156.112,196.6 156.42,196.636 156.727,196.671 157.034,196.707 
  157.342,196.743 157.649,196.78 157.957,196.816 158.264,196.853 158.571,196.89 158.879,196.928 159.186,196.965 159.494,197.003 159.801,197.041 160.108,197.079 
  160.416,197.118 160.723,197.156 161.03,197.195 161.338,197.234 161.645,197.274 161.953,197.313 162.26,197.353 162.567,197.393 162.875,197.434 163.182,197.474 
  163.49,197.515 163.797,197.556 164.104,197.597 164.412,197.638 164.719,197.68 165.027,197.722 165.334,197.764 165.641,197.806 165.949,197.849 166.256,197.891 
  166.564,197.934 166.871,197.978 167.178,198.021 167.486,198.065 167.793,198.109 168.101,198.153 168.408,198.197 168.715,198.242 169.023,198.286 169.33,198.331 
  169.637,198.377 169.945,198.422 170.252,198.468 170.56,198.514 170.867,198.56 171.174,198.606 171.482,198.653 171.789,198.7 172.097,198.747 172.404,198.794 
  172.711,198.842 173.019,198.89 173.326,198.937 173.634,198.986 173.941,199.034 174.248,199.083 174.556,199.132 174.863,199.181 175.171,199.23 175.478,199.28 
  175.785,199.329 176.093,199.379 176.4,199.43 176.708,199.48 177.015,199.531 177.322,199.582 177.63,199.633 177.937,199.684 178.245,199.736 178.552,199.788 
  178.859,199.84 179.167,199.892 179.474,199.945 179.781,199.997 180.089,200.05 180.396,200.104 180.704,200.157 181.011,200.211 181.318,200.265 181.626,200.319 
  181.933,200.373 182.241,200.428 182.548,200.482 182.855,200.537 183.163,200.593 183.47,200.648 183.778,200.704 184.085,200.76 184.392,200.816 184.7,200.872 
  185.007,200.929 185.315,200.986 185.622,201.043 185.929,201.1 186.237,201.157 186.544,201.215 186.852,201.273 187.159,201.33 187.466,201.386 187.774,201.44 
  188.081,201.492 188.388,201.543 188.696,201.592 189.003,201.639 189.311,201.684 189.618,201.728 189.925,201.771 190.233,201.811 190.54,201.85 190.848,201.887 
  191.155,201.923 191.462,201.957 191.77,201.989 192.077,202.02 192.385,202.049 192.692,202.076 192.999,202.102 193.307,202.126 193.614,202.148 193.922,202.169 
  194.229,202.188 194.536,202.205 194.844,202.221 195.151,202.235 195.459,202.247 195.766,202.258 196.073,202.267 196.381,202.274 196.688,202.28 196.995,202.284 
  197.303,202.286 197.61,202.287 197.918,202.286 198.225,202.283 198.532,202.279 198.84,202.273 199.147,202.265 199.455,202.256 199.762,202.245 200.069,202.232 
  200.377,202.218 200.684,202.202 200.992,202.184 201.299,202.165 201.606,202.144 201.914,202.122 202.221,202.097 202.529,202.071 202.836,202.044 203.143,202.014 
  203.451,201.984 203.758,201.951 204.066,201.917 204.373,201.881 204.68,201.843 204.988,201.804 205.295,201.763 205.603,201.72 205.91,201.676 206.217,201.63 
  206.525,201.583 206.832,201.534 207.139,201.483 207.447,201.43 207.754,201.376 208.062,201.32 208.369,201.262 208.676,201.203 208.984,201.142 209.291,201.08 
  209.599,201.016 209.906,200.95 210.213,200.882 210.521,200.813 210.828,200.742 211.136,200.67 211.443,200.596 211.75,200.52 212.058,200.442 212.365,200.363 
  212.673,200.282 212.98,200.2 213.287,200.116 213.595,200.03 213.902,199.942 214.21,199.853 214.517,199.762 214.824,199.67 215.132,199.576 215.439,199.48 
  215.746,199.382 216.054,199.283 216.361,199.182 216.669,199.08 216.976,198.976 217.283,198.87 217.591,198.763 217.898,198.654 218.206,198.543 218.513,198.43 
  218.82,198.316 219.128,198.2 219.435,198.083 219.743,197.964 220.05,197.843 220.357,197.721 220.665,197.597 220.972,197.471 221.28,197.344 221.587,197.214 
  221.894,197.084 222.202,196.951 222.509,196.817 222.817,196.682 223.124,196.544 223.431,196.405 223.739,196.264 224.046,196.122 224.354,195.978 224.661,195.832 
  224.968,195.685 225.276,195.536 225.583,195.385 225.89,195.233 226.198,195.079 226.505,194.923 226.813,194.766 227.12,194.607 227.427,194.446 227.735,194.284 
  228.042,194.12 228.35,193.954 228.657,193.787 228.964,193.618 229.272,193.447 229.579,193.275 229.887,193.101 230.194,192.925 230.501,192.748 230.809,192.569 
  231.116,192.388 231.424,192.206 231.731,192.022 232.038,191.836 232.346,191.649 232.653,191.46 232.961,191.269 233.268,191.077 233.575,190.883 233.883,190.687 
  234.19,190.49 234.497,190.291 234.805,190.091 235.112,189.888 235.42,189.684 235.727,189.479 236.034,189.272 236.342,189.063 236.649,188.852 236.957,188.64 
  237.264,188.426 237.571,188.21 237.879,187.993 238.186,187.774 238.494,187.554 238.801,187.331 239.108,187.107 239.416,186.882 239.723,186.655 240.031,186.426 
  240.338,186.195 240.645,185.963 240.953,185.729 241.26,185.494 241.568,185.256 241.875,185.018 242.182,184.777 242.49,184.535 242.797,184.291 243.104,184.045 
  243.412,183.798 243.719,183.549 244.027,183.299 244.334,183.047 244.641,182.793 244.949,182.537 245.256,182.28 245.564,182.021 245.871,181.761 246.178,181.499 
  246.486,181.235 246.793,180.969 247.101,180.702 247.408,180.433 247.715,180.163 248.023,179.891 248.33,179.617 248.638,179.342 248.945,179.064 249.252,178.786 
  249.56,178.505 249.867,178.223 250.175,177.939 250.482,177.654 250.789,177.367 251.097,177.078 251.404,176.788 251.712,176.495 252.019,176.202 252.326,175.906 
  252.634,175.609 252.941,175.31 253.248,175.01 253.556,174.708 253.863,174.404 254.171,174.099 254.478,173.792 254.785,173.483 255.093,173.173 255.4,172.86 
  255.708,172.547 256.015,172.231 256.322,171.914 256.63,171.596 256.937,171.275 257.245,170.953 257.552,170.629 257.859,170.304 258.167,169.977 258.474,169.648 
  258.782,169.318 259.089,168.986 259.396,168.652 259.704,168.317 260.011,167.98 260.319,167.641 260.626,167.301 260.933,166.959 261.241,166.615 261.548,166.27 
  261.855,165.923 262.163,165.574 262.47,165.224 262.778,164.872 263.085,164.518 263.392,164.163 263.7,163.806 264.007,163.447 264.315,163.087 264.622,162.725 
  264.929,162.361 265.237,161.996 265.544,161.629 265.852,161.266 266.159,160.913 266.466,160.569 266.774,160.235 267.081,159.911 267.389,159.597 267.696,159.292 
  268.003,158.997 268.311,158.711 268.618,158.435 268.926,158.169 269.233,157.913 269.54,157.666 269.848,157.429 270.155,157.201 270.462,156.983 270.77,156.775 
  271.077,156.577 271.385,156.388 271.692,156.209 271.999,156.04 272.307,155.88 272.614,155.73 272.922,155.59 273.229,155.459 273.536,155.338 273.844,155.227 
  274.151,155.125 274.459,155.033 274.766,154.951 275.073,154.878 275.381,154.815 275.688,154.762 275.996,154.719 276.303,154.685 276.61,154.661 276.918,154.646 
  277.225,154.641 277.533,154.646 277.84,154.661 278.147,154.685 278.455,154.719 278.762,154.762 279.07,154.815 279.377,154.878 279.684,154.951 279.992,155.033 
  280.299,155.125 280.606,155.227 280.914,155.338 281.221,155.459 281.529,155.59 281.836,155.73 282.143,155.88 282.451,156.04 282.758,156.209 283.066,156.388 
  283.373,156.577 283.68,156.775 283.988,156.983 284.295,157.201 284.603,157.429 284.91,157.666 285.217,157.913 285.525,158.169 285.832,158.435 286.14,158.711 
  286.447,158.997 286.754,159.292 287.062,159.597 287.369,159.911 287.677,160.235 287.984,160.569 288.291,160.913 288.599,161.266 288.906,161.629 289.213,162.002 
  289.521,162.384 289.828,162.776 290.136,163.178 290.443,163.589 290.75,164.01 291.058,164.441 291.365,164.881 291.673,165.331 291.98,165.791 292.287,166.26 
  292.595,166.74 292.902,167.228 293.21,167.727 293.517,168.235 293.824,168.753 294.132,169.28 294.439,169.817 294.747,170.364 295.054,170.921 295.361,171.487 
  295.669,172.063 295.976,172.648 296.284,173.244 296.591,173.849 296.898,174.463 297.206,175.087 297.513,175.721 297.821,176.365 298.128,177.018 298.435,177.681 
  298.743,178.354 299.05,179.036 299.357,179.728 299.665,180.43 299.972,181.141 300.28,181.862 300.587,182.593 300.894,183.334 301.202,184.084 301.509,184.844 
  301.817,185.613 302.124,186.392 302.431,187.181 302.739,187.979 303.046,188.788 303.354,189.605 303.661,190.433 303.968,191.27 304.276,192.117 304.583,192.974 
  304.891,193.84 305.198,194.706 305.505,195.563 305.813,196.41 306.12,197.247 306.428,198.074 306.735,198.892 307.042,199.7 307.35,200.499 307.657,201.288 
  307.964,202.067 308.272,202.836 308.579,203.596 308.887,204.346 309.194,205.086 309.501,205.817 309.809,206.538 310.116,207.25 310.424,207.951 310.731,208.643 
  311.038,209.326 311.346,209.998 311.653,210.661 311.961,211.315 312.268,211.958 312.575,212.592 312.883,213.217 313.19,213.831 313.498,214.436 313.805,215.031 
  314.112,215.617 314.42,216.193 314.727,216.759 315.035,217.315 315.342,217.862 315.649,218.399 315.957,218.927 316.264,219.445 316.571,219.953 316.879,220.451 
  317.186,220.94 317.494,221.419 317.801,221.889 318.108,222.348 318.416,222.798 318.723,223.239 319.031,223.67 319.338,224.091 319.645,224.502 319.953,224.904 
  320.26,225.296 320.568,225.678 320.875,226.05 321.182,226.413 321.49,226.767 321.797,227.11 322.105,227.444 322.412,227.768 322.719,228.083 323.027,228.388 
  323.334,228.683 323.642,228.969 323.949,229.244 324.256,229.511 324.564,229.767 324.871,230.014 325.179,230.251 325.486,230.478 325.793,230.696 326.101,230.904 
  326.408,231.103 326.715,231.291 327.023,231.471 327.33,231.64 327.638,231.8 327.945,231.95 328.252,232.09 328.56,232.221 328.867,232.342 329.175,232.453 
  329.482,232.555 329.789,232.647 330.097,232.729 330.404,232.801 330.712,232.864 331.019,232.918 331.326,232.961 331.634,232.995 331.941,233.019 332.249,233.034 
  332.556,233.038 332.863,233.034 333.171,233.019 333.478,232.995 333.786,232.961 334.093,232.918 334.4,232.864 334.708,232.801 335.015,232.729 335.322,232.647 
  335.63,232.555 335.937,232.453 336.245,232.342 336.552,232.221 336.859,232.09 337.167,231.95 337.474,231.8 337.782,231.64 338.089,231.471 338.396,231.291 
  338.704,231.103 339.011,230.904 339.319,230.696 339.626,230.478 339.933,230.251 340.241,230.014 340.548,229.767 340.856,229.511 341.163,229.244 341.47,228.969 
  341.778,228.683 342.085,228.388 342.393,228.083 342.7,227.768 343.007,227.444 343.315,227.11 343.622,226.767 343.93,226.413 344.237,226.05 344.544,225.684 
  344.852,225.318 345.159,224.955 345.466,224.593 345.774,224.232 346.081,223.874 346.389,223.517 346.696,223.161 347.003,222.808 347.311,222.456 347.618,222.105 
  347.926,221.757 348.233,221.41 348.54,221.064 348.848,220.721 349.155,220.379 349.463,220.038 349.77,219.7 350.077,219.363 350.385,219.027 350.692,218.694 
  351,218.362 351.307,218.031 351.614,217.703 351.922,217.376 352.229,217.05 352.537,216.727 352.844,216.404 353.151,216.084 353.459,215.765 353.766,215.448 
  354.073,215.133 354.381,214.819 354.688,214.507 354.996,214.197 355.303,213.888 355.61,213.581 355.918,213.276 356.225,212.972 356.533,212.67 356.84,212.369 
  357.147,212.071 357.455,211.773 357.762,211.478 358.07,211.184 358.377,210.892 358.684,210.602 358.992,210.313 359.299,210.026 359.607,209.74 359.914,209.457 
  360.221,209.175 360.529,208.894 360.836,208.615 361.144,208.338 361.451,208.063 361.758,207.789 362.066,207.517 362.373,207.246 362.68,206.977 362.988,206.71 
  363.295,206.445 363.603,206.181 363.91,205.919 364.217,205.658 364.525,205.4 364.832,205.142 365.14,204.887 365.447,204.633 365.754,204.381 366.062,204.13 
  366.369,203.881 366.677,203.634 366.984,203.389 367.291,203.145 367.599,202.903 367.906,202.662 368.214,202.423 368.521,202.186 368.828,201.951 369.136,201.717 
  369.443,201.484 369.751,201.254 370.058,201.025 370.365,200.798 370.673,200.572 370.98,200.348 371.288,200.126 371.595,199.906 371.902,199.687 372.21,199.469 
  372.517,199.254 372.824,199.04 373.132,198.828 373.439,198.617 373.747,198.408 374.054,198.201 374.361,197.995 374.669,197.791 374.976,197.589 375.284,197.389 
  375.591,197.19 375.898,196.992 376.206,196.797 376.513,196.603 376.821,196.41 377.128,196.22 377.435,196.031 377.743,195.844 378.05,195.658 378.358,195.474 
  378.665,195.292 378.972,195.111 379.28,194.932 379.587,194.755 379.895,194.579 380.202,194.405 380.509,194.233 380.817,194.062 381.124,193.893 381.431,193.726 
  381.739,193.56 382.046,193.396 382.354,193.234 382.661,193.073 382.968,192.914 383.276,192.757 383.583,192.601 383.891,192.447 384.198,192.295 384.505,192.144 
  384.813,191.995 385.12,191.847 385.428,191.702 385.735,191.558 386.042,191.415 386.35,191.275 386.657,191.136 386.965,190.998 387.272,190.862 387.579,190.728 
  387.887,190.596 388.194,190.465 388.502,190.336 388.809,190.209 389.116,190.083 389.424,189.959 389.731,189.837 390.038,189.716 390.346,189.597 390.653,189.479 
  390.961,189.363 391.268,189.249 391.575,189.137 391.883,189.026 392.19,188.917 392.498,188.81 392.805,188.704 393.112,188.6 393.42,188.497 393.727,188.396 
  394.035,188.297 394.342,188.2 394.649,188.104 394.957,188.01 395.264,187.917 395.572,187.827 395.879,187.737 396.186,187.65 396.494,187.564 396.801,187.48 
  397.109,187.397 397.416,187.317 397.723,187.237 398.031,187.16 398.338,187.084 398.646,187.01 398.953,186.937 399.26,186.867 399.568,186.797 399.875,186.73 
  400.182,186.664 400.49,186.6 400.797,186.537 401.105,186.476 401.412,186.417 401.719,186.36 402.027,186.304 402.334,186.25 402.642,186.197 402.949,186.146 
  403.256,186.097 403.564,186.049 403.871,186.003 404.179,185.959 404.486,185.917 404.793,185.876 405.101,185.836 405.408,185.799 405.716,185.763 406.023,185.729 
  406.33,185.696 406.638,185.665 406.945,185.636 407.253,185.608 407.56,185.582 407.867,185.558 408.175,185.536 408.482,185.515 408.789,185.495 409.097,185.478 
  409.404,185.462 409.712,185.447 410.019,185.435 410.326,185.424 410.634,185.415 410.941,185.407 411.249,185.401 411.556,185.397 411.863,185.394 412.171,185.393 
  412.478,185.394 412.786,185.396 413.093,185.4 413.4,185.406 413.708,185.413 414.015,185.422 414.323,185.433 414.63,185.445 414.937,185.459 415.245,185.475 
  415.552,185.492 415.86,185.511 416.167,185.532 416.474,185.554 416.782,185.578 417.089,185.604 417.397,185.631 417.704,185.66 418.011,185.69 418.319,185.723 
  418.626,185.757 418.933,185.792 419.241,185.83 419.548,185.868 419.856,185.909 420.163,185.951 420.47,185.995 420.778,186.041 421.085,186.088 421.393,186.137 
  421.7,186.188 422.007,186.24 422.315,186.294 422.622,186.349 422.93,186.407 423.237,186.465 423.544,186.522 423.852,186.58 424.159,186.637 424.467,186.694 
  424.774,186.751 425.081,186.808 425.389,186.864 425.696,186.92 426.004,186.976 426.311,187.032 426.618,187.087 426.926,187.142 427.233,187.197 427.54,187.252 
  427.848,187.307 428.155,187.361 428.463,187.415 428.77,187.469 429.077,187.523 429.385,187.576 429.692,187.629 430,187.682 430.307,187.735 430.614,187.788 
  430.922,187.84 431.229,187.892 431.537,187.944 431.844,187.995 432.151,188.047 432.459,188.098 432.766,188.149 433.074,188.199 433.381,188.25 433.688,188.3 
  433.996,188.35 434.303,188.4 434.611,188.45 434.918,188.499 435.225,188.548 435.533,188.597 435.84,188.646 436.147,188.694 436.455,188.742 436.762,188.79 
  437.07,188.838 437.377,188.885 437.684,188.933 437.992,188.98 438.299,189.027 438.607,189.073 438.914,189.12 439.221,189.166 439.529,189.212 439.836,189.257 
  440.144,189.303 440.451,189.348 440.758,189.393 441.066,189.438 441.373,189.483 441.681,189.527 441.988,189.571 442.295,189.615 442.603,189.659 442.91,189.702 
  443.218,189.745 443.525,189.788 443.832,189.831 444.14,189.874 444.447,189.916 444.755,189.958 445.062,190 445.369,190.041 445.677,190.083 445.984,190.124 
  446.291,190.165 446.599,190.206 446.906,190.246 447.214,190.286 447.521,190.326 447.828,190.366 448.136,190.406 448.443,190.445 448.751,190.484 449.058,190.523 
  449.365,190.562 449.673,190.6 449.98,190.639 450.288,190.677 450.595,190.714 450.902,190.752 451.21,190.789 451.517,190.826 451.825,190.863 452.132,190.9 
  452.439,190.936 452.747,190.972 453.054,191.008 453.362,191.044 453.669,191.08 453.976,191.115 454.284,191.15 454.591,191.185 454.898,191.219 455.206,191.254 
  455.513,191.288 455.821,191.322 456.128,191.355 456.435,191.389 456.743,191.422 457.05,191.455 457.358,191.488 457.665,191.52 457.972,191.553 458.28,191.585 
  458.587,191.617 458.895,191.648 459.202,191.68 459.509,191.711 459.817,191.742 460.124,191.773 460.432,191.803 460.739,191.834 461.046,191.864 461.354,191.893 
  461.661,191.923 461.969,191.952 462.276,191.982 462.583,192.01 462.891,192.039 463.198,192.068 463.506,192.096 463.813,192.124 464.12,192.152 464.428,192.179 
  464.735,192.207 465.042,192.234 465.35,192.261 465.657,192.287 465.965,192.314 466.272,192.34 466.579,192.366 466.887,192.392 467.194,192.417 467.502,192.442 
  467.809,192.467 468.116,192.492 468.424,192.517 468.731,192.541 469.039,192.565 469.346,192.589 469.653,192.613 469.961,192.637 470.268,192.66 470.576,192.683 
  470.883,192.706 471.19,192.728 471.498,192.751 471.805,192.773 472.113,192.795 472.42,192.816 472.727,192.838 473.035,192.859 473.342,192.88 473.649,192.901 
  473.957,192.921 474.264,192.941 474.572,192.962 474.879,192.981 475.186,193.001 475.494,193.02 475.801,193.04 476.109,193.058 476.416,193.077 476.723,193.096 
  477.031,193.114 477.338,193.132 477.646,193.15 477.953,193.167 478.26,193.185 478.568,193.202 478.875,193.219 479.183,193.235 479.49,193.252 479.797,193.268 
  480.105,193.284 480.412,193.3 480.72,193.315 481.027,193.331 481.334,193.346 481.642,193.361 481.949,193.375 482.256,193.39 482.564,193.404 482.871,193.418 
  483.179,193.432 483.486,193.445 483.793,193.458 484.101,193.471 484.408,193.484 484.716,193.497 485.023,193.509 485.33,193.521 485.638,193.533 485.945,193.545 
  486.253,193.556 486.56,193.568 486.867,193.579 487.175,193.589 487.482,193.6 487.79,193.61 488.097,193.62 488.404,193.63 488.712,193.64 489.019,193.649 
  489.327,193.658 489.634,193.667 489.941,193.676 490.249,193.685 490.556,193.693 490.864,193.701 491.171,193.709 491.478,193.716 491.786,193.724 492.093,193.731 
  492.4,193.738 492.708,193.744 493.015,193.751 493.323,193.757 493.63,193.763 493.937,193.769 494.245,193.775 494.552,193.78 494.86,193.785 495.167,193.79 
  495.474,193.794 495.782,193.799 496.089,193.803 496.397,193.807 496.704,193.811 497.011,193.814 497.319,193.818 497.626,193.821 497.934,193.824 498.241,193.826 
  498.548,193.829 498.856,193.831 499.163,193.833 499.471,193.834 499.778,193.836 500.085,193.837 500.393,193.838 500.7,193.839 501.007,193.839 501.315,193.84 
  501.622,193.84 
  "/>
<polyline clip-path="url(#clip0802)" style="stroke:#3da44d; stroke-width:1; stroke-opacity:1; fill:none" points="
  29.4661,193.84 29.7735,193.84 30.0809,193.84 30.3883,193.84 30.6957,193.84 31.0031,193.84 31.3105,193.84 31.6179,193.84 31.9253,193.84 32.2327,193.84 
  32.5401,193.84 32.8475,193.84 33.1549,193.84 33.4623,193.84 33.7696,193.84 34.077,193.84 34.3844,193.84 34.6918,193.84 34.9992,193.84 35.3066,193.84 
  35.614,193.84 35.9214,193.84 36.2288,193.84 36.5362,193.84 36.8436,193.84 37.151,193.839 37.4584,193.839 37.7658,193.839 38.0732,193.839 38.3805,193.839 
  38.6879,193.839 38.9953,193.839 39.3027,193.84 39.6101,193.841 39.9175,193.842 40.2249,193.842 40.5323,193.84 40.8397,193.838 41.1471,193.838 41.4545,193.838 
  41.7619,193.842 42.0693,193.847 42.3767,193.844 42.684,193.842 42.9914,193.845 43.2988,193.846 43.6062,193.847 43.9136,193.849 44.221,193.837 44.5284,193.826 
  44.8358,193.827 45.1432,193.827 45.4506,193.83 45.758,193.835 46.0654,193.833 46.3728,193.831 46.6802,193.832 46.9876,193.831 47.2949,193.834 47.6023,193.837 
  47.9097,193.831 48.2171,193.826 48.5245,193.827 48.8319,193.826 49.1393,193.842 49.4467,193.861 49.7541,193.855 50.0615,193.849 50.3689,193.859 50.6763,193.864 
  50.9837,193.868 51.2911,193.875 51.5985,193.843 51.9058,193.81 52.2132,193.822 52.5206,193.833 52.828,193.825 53.1354,193.826 53.4428,193.819 53.7502,193.808 
  54.0576,193.864 54.365,193.916 54.6724,193.914 54.9798,193.919 55.2872,193.889 55.5946,193.856 55.902,193.865 56.2094,193.866 56.5167,193.894 56.8241,193.93 
  57.1315,193.903 57.4389,193.873 57.7463,193.912 58.0537,193.93 58.3611,193.933 58.6685,193.95 58.9759,193.809 59.2833,193.666 59.5907,193.687 59.8981,193.696 
  60.2055,193.701 60.5129,193.73 60.8203,193.7 61.1276,193.669 61.435,193.736 61.7424,193.796 62.0498,193.786 62.3572,193.785 62.6646,193.763 62.972,193.733 
  63.2794,193.747 63.5868,193.758 63.8942,193.752 64.2016,193.755 64.509,193.744 64.8164,193.728 65.1238,193.773 65.4312,193.809 65.7385,193.812 66.0459,193.829 
  66.3533,193.743 66.6607,193.65 66.9681,193.696 67.2755,193.739 67.5829,193.704 67.8903,193.705 68.1977,193.691 68.5051,193.66 68.8125,193.868 69.1199,194.066 
  69.4273,194.063 69.7347,194.087 70.0421,193.999 70.3494,193.897 70.6568,193.939 70.9642,193.956 71.2716,194.048 71.579,194.165 71.8864,194.097 72.1938,194.022 
  72.5012,194.139 72.8086,194.195 73.116,194.219 73.4234,194.284 73.7308,193.878 74.0382,193.483 74.3456,193.521 74.653,193.51 74.9603,193.654 75.2677,193.84 
  75.5751,193.768 75.8825,193.729 76.1899,193.676 76.4973,193.578 76.8047,193.694 77.1121,193.835 77.4195,193.62 77.7269,193.494 78.0343,193.497 78.3417,193.426 
  78.6491,194.094 78.9565,194.782 79.2639,194.651 79.5712,194.573 79.8786,194.628 80.186,194.548 80.4934,194.688 80.8008,194.86 81.1082,194.366 81.4156,193.883 
  81.723,194.012 82.0304,194.091 82.3378,194.108 82.6452,194.229 82.9526,194.121 83.26,193.99 83.5674,194.418 83.8748,194.788 84.1821,194.801 84.4895,194.887 
  84.7969,194.514 85.1043,194.149 85.4117,194.197 85.7191,194.146 86.0265,194.61 86.3339,195.16 86.6413,194.804 86.9487,194.436 87.2561,194.832 87.5635,194.966 
  87.8709,195.015 88.1783,195.229 88.4857,193.506 88.793,191.794 89.1004,191.981 89.4078,191.994 89.7152,192.213 90.0226,192.673 90.33,192.308 90.6374,191.981 
  90.9448,192.358 91.2522,192.632 91.5596,192.664 91.867,192.791 92.1744,192.35 92.4818,191.968 92.7892,192.02 93.0966,191.965 93.4039,192.728 93.7113,193.533 
  94.0187,193.376 94.3261,193.291 94.6335,193.265 94.9409,193.099 95.2483,193.253 95.5557,193.419 95.8631,193.017 96.1705,192.651 96.4779,192.701 96.7853,192.696 
  97.0927,192.85 97.4001,193.043 97.7075,192.968 98.0148,192.92 98.3222,192.903 98.6296,192.837 98.937,192.931 99.2444,193.049 99.5518,192.813 99.8592,192.648 
  100.167,192.645 100.474,192.566 100.781,193.13 101.089,193.74 101.396,193.508 101.704,193.299 102.011,193.547 102.318,193.591 102.626,193.729 102.933,193.972 
  103.241,192.812 103.548,191.709 103.855,191.81 104.163,191.757 104.47,192.301 104.777,192.939 105.085,192.763 105.392,192.716 105.7,192.395 106.007,191.923 
  106.314,192.399 106.622,192.941 106.929,192.251 107.237,191.898 107.544,191.917 107.851,191.677 108.159,194.137 108.466,196.658 108.774,196.248 109.081,196.037 
  109.388,196.217 109.696,195.925 110.003,196.476 110.311,197.123 110.618,195.533 110.925,193.993 111.233,194.454 111.54,194.746 111.848,194.898 112.155,195.378 
  112.462,195.083 112.77,194.725 113.077,196.065 113.385,197.233 113.692,197.312 113.999,197.603 114.307,196.587 114.614,195.58 114.921,195.789 115.229,195.716 
  115.536,197.028 115.844,198.601 116.151,197.622 116.458,196.587 116.766,197.88 117.073,198.42 117.381,198.571 117.688,199.224 117.995,194.248 118.303,189.212 
  118.61,190.035 118.918,190.418 119.225,190.44 119.532,191.349 119.84,190.313 120.147,189.174 120.455,191.868 120.762,194.399 121.069,193.852 121.377,193.635 
  121.684,193.086 121.992,192.12 122.299,192.682 122.606,193.236 122.914,192.085 123.221,191.252 123.528,191.003 123.836,190.492 124.143,192.259 124.451,193.82 
  124.758,193.764 125.065,194.206 125.373,191.471 125.68,188.363 125.988,190.128 126.295,191.887 126.602,190.154 126.91,189.733 127.217,189.386 127.525,188.275 
  127.832,196.555 128.139,204.712 128.447,203.938 128.754,204.045 129.062,202.552 129.369,200.011 129.676,201.74 129.984,203.149 130.291,202.259 130.599,201.943 
  130.906,201.345 131.213,200.326 131.521,202.843 131.828,204.718 132.136,204.66 132.443,205.297 132.75,199.526 133.058,193.66 133.365,194.523 133.672,194.763 
  133.98,195.821 134.287,197.702 134.595,196.592 134.902,195.655 135.209,196.862 135.517,197.622 135.824,198.182 136.132,199.113 136.439,197.059 136.746,195.438 
  137.054,195.725 137.361,195.412 137.669,199.912 137.976,204.728 138.283,203.497 138.591,202.537 138.898,203.68 139.206,203.672 139.513,204.586 139.82,205.969 
  140.128,200.714 140.435,195.371 140.743,196.972 141.05,198.163 141.357,197.42 141.665,198.059 141.972,196.825 142.279,195.086 142.587,201.789 142.894,207.905 
  143.202,207.633 143.509,208.359 143.816,203.93 144.124,199.257 144.431,200.116 144.739,199.853 145.046,204.136 145.353,209.505 145.661,205.424 145.968,201.048 
  146.276,205.969 146.583,207.957 146.89,208.205 147.198,210.437 147.505,190.365 147.813,170.204 148.12,172.683 148.427,173.265 148.735,174.487 149.042,178.834 
  149.35,174.447 149.657,170.124 149.964,177.113 150.272,183.162 150.579,182.171 150.886,182.361 151.194,178.395 151.501,174.064 151.809,175.148 152.116,175.547 
  152.423,178.144 152.731,181.498 153.038,180.003 153.346,178.555 153.653,180.745 153.96,181.833 154.268,182.432 154.575,183.822 154.883,177.455 155.19,170.73 
  155.497,173.437 155.805,175.863 156.112,173.764 156.42,173.808 156.727,172.809 157.034,170.78 157.342,182.744 157.649,194.541 157.957,193.001 158.264,192.667 
  158.571,191.254 158.879,188.08 159.186,190.528 159.494,192.814 159.801,189.284 160.108,186.401 160.416,186.458 160.723,185.848 161.03,188.38 161.338,190.844 
  161.645,190.197 161.953,190.111 162.26,186.794 162.567,183.064 162.875,184.042 163.182,184.824 163.49,183.711 163.797,183.489 164.104,182.708 164.412,181.511 
  164.719,185.587 165.027,189.743 165.334,188.236 165.641,187.025 165.949,187.519 166.256,186.869 166.564,187.554 166.871,188.658 167.178,182.848 167.486,177.371 
  167.793,177.568 168.101,177.029 168.408,179.264 168.715,181.933 169.023,180.804 169.33,180.255 169.637,178.44 169.945,176.005 170.252,177.604 170.56,179.409 
  170.867,176.627 171.174,175.236 171.482,174.796 171.789,173.393 172.097,182.928 172.404,192.271 172.711,191.381 173.019,191.635 173.326,188.58 173.634,184.524 
  173.941,186.309 174.248,187.385 174.556,188.245 174.863,190.114 175.171,187.767 175.478,184.869 175.785,189.687 176.093,192.658 176.4,192.635 176.708,194.22 
  177.015,180.063 177.322,165.438 177.63,168.387 177.937,170.219 178.245,169.104 178.552,170.902 178.859,168.043 179.167,164.49 179.474,175.296 179.781,185.887 
  180.089,183.236 180.396,181.654 180.704,181.476 181.011,179.04 181.318,181.522 181.626,184.521 181.933,175.342 182.241,167.396 182.548,167.303 182.855,165.653 
  183.163,173.856 183.47,181.916 183.778,181.02 184.085,182.275 184.392,172.554 184.7,160.972 185.007,168.805 185.315,176.933 185.622,168.563 185.929,165.825 
  186.237,165.002 186.544,160.625 186.852,197.903 187.159,234.998 187.466,231.131 187.774,230.996 188.081,226.66 188.388,217.09 188.696,225.188 189.003,232.505 
  189.311,224.273 189.618,218.203 189.925,217.928 190.233,215.623 190.54,225.134 190.848,233.522 191.155,232.591 191.462,233.865 191.77,218.579 192.077,202.405 
  192.385,205.886 192.692,207.9 192.999,208.631 193.307,212.204 193.614,209.351 193.922,206.212 194.229,214.687 194.536,222.454 194.844,221.586 195.151,221.805 
  195.459,219.216 195.766,215.756 196.073,217.469 196.381,218.726 196.688,218.803 196.995,219.675 197.303,218.623 197.61,217.201 197.918,220.679 198.225,223.222 
  198.532,223.394 198.84,224.591 199.147,217.231 199.455,209.241 199.762,212.445 200.069,215.328 200.377,212.382 200.684,212.116 200.992,210.394 201.299,207.331 
  201.606,222.582 201.914,236.948 202.221,236.088 202.529,237.306 202.836,229.417 203.143,220.568 203.451,222.901 203.758,223.247 204.066,229.805 204.373,238.414 
  204.68,231.539 204.988,223.978 205.295,233.229 205.603,237.374 205.91,237.875 206.217,241.935 206.525,206.343 206.832,170.748 207.139,174.81 207.447,175.313 
  207.754,179.441 208.062,188.678 208.369,181.109 208.676,174.221 208.984,182.846 209.291,189.419 209.599,189.744 209.906,192.057 210.213,183.193 210.521,175.279 
  210.828,176.487 211.136,175.617 211.443,189.925 211.75,205.127 212.058,202.023 212.365,200.248 212.673,200.032 212.98,197.12 213.287,199.972 213.595,203.167 
  213.902,194.992 214.21,187.434 214.517,188.663 214.824,188.859 215.132,191.32 215.439,194.772 215.746,193.27 216.054,192.114 216.361,193.269 216.669,193.587 
  216.976,194.849 217.283,196.628 217.591,192.775 217.898,189.822 218.206,190.042 218.513,189.074 218.82,197.358 219.128,206.433 219.435,202.903 219.743,199.656 
  220.05,203.596 220.357,204.417 220.665,206.486 220.972,210.188 221.28,192.216 221.587,175.167 221.894,176.574 222.202,175.578 222.509,184.359 222.817,194.477 
  223.124,191.773 223.431,191.193 223.739,185.187 224.046,176.835 224.354,184.456 224.661,192.99 224.968,182.403 225.276,177.317 225.583,177.235 225.89,173.12 
  226.198,212.445 226.505,252.213 226.813,246.855 227.12,245.091 227.427,243.865 227.735,236.167 228.042,244.75 228.35,253.593 228.657,237.079 228.964,222.174 
  229.272,225.26 229.579,225.925 229.887,232.474 230.194,240.755 230.501,237.95 230.809,235.973 231.116,236.65 231.424,235.558 231.731,238.02 232.038,241.152 
  232.346,234.173 232.653,228.899 232.961,228.63 233.268,226.169 233.575,240.339 233.883,255.956 234.19,248.331 234.497,240.944 234.805,248.513 235.112,250.202 
  235.42,252.152 235.727,257.403 236.034,221.795 236.342,186.25 236.649,191.298 236.957,192.967 237.264,195.207 237.571,203.171 237.879,195.73 238.186,188.22 
  238.494,202.537 238.801,215.275 239.108,213.296 239.416,213.464 239.723,207.444 240.031,200.188 240.338,202.928 240.645,204.723 240.953,206.293 241.26,209.553 
  241.568,207.033 241.875,203.99 242.182,211.338 242.49,216.575 242.797,217.53 243.104,220.757 243.412,205.219 243.719,188.354 244.027,196.326 244.334,203.798 
  244.641,197.298 244.949,196.867 245.256,194.497 245.564,188.996 245.871,224.855 246.178,259.776 246.486,256.829 246.793,257.904 247.101,249.332 247.408,236.692 
  247.715,243.925 248.023,249.185 248.33,249.14 248.638,251.942 248.945,247.268 249.252,240.91 249.56,253.352 249.867,261.471 250.175,261.844 250.482,266.015 
  250.789,231.834 251.097,197.663 251.404,201.711 251.712,201.896 252.019,210.127 252.326,222.615 252.634,215.989 252.941,211.079 253.248,213.326 253.556,212.491 
  253.863,217.962 254.171,225.517 254.478,210.911 254.785,200.716 255.093,201.487 255.4,197.713 255.708,235.118 256.015,274.281 256.322,265.385 256.63,259.199 
  256.937,264.359 257.245,261.107 257.552,268.529 257.859,278.543 258.167,244.176 258.474,209.912 258.782,219.037 259.089,225.109 259.396,223.008 259.704,228.892 
  260.011,220.764 260.319,210.244 260.626,245.768 260.933,277.414 261.241,276.587 261.548,281.41 261.855,253.868 262.163,225.867 262.47,229.752 262.778,226.58 
  263.085,255.984 263.392,291.82 263.7,265.96 264.007,238.724 264.315,267.533 264.622,277.89 264.929,279.88 265.237,293.887 265.544,169.657 265.852,45.5499 
  266.159,59.2176 266.466,60.7491 266.774,72.1717 267.081,101.781 267.389,74.5673 267.696,49.053 268.003,82.6569 268.311,109.628 268.618,107.477 268.926,112.305 
  269.233,83.338 269.54,55.6759 269.848,60.0226 270.155,58.2867 270.462,94.8295 270.77,135.019 271.077,124.181 271.385,116.369 271.692,120.147 271.999,115.549 
  272.307,122.472 272.614,131.928 272.922,99.0784 273.229,66.7412 273.536,74.9702 273.844,80.3467 274.151,80.0244 274.459,86.7546 274.766,80.6524 275.073,72.8904 
  275.381,102.261 275.688,129.654 275.996,127.644 276.303,129.355 276.61,118.828 276.918,105.743 277.225,111.26 277.533,114.376 277.84,119.705 278.147,127.866 
  278.455,121.542 278.762,114.191 279.07,125.951 279.377,132.332 279.684,133.845 279.992,139.352 280.299,101.24 280.606,63.8381 280.914,67.6577 281.221,66.9357 
  281.529,79.4 281.836,95.9021 282.143,89.2014 282.451,85.3715 282.758,82.1901 283.066,75.2059 283.373,84.6984 283.68,96.2342 283.988,79.2118 284.295,69.3743 
  284.603,69.769 284.91,64.2587 285.217,119.285 285.525,175.032 285.832,167.566 286.14,165.326 286.447,161.732 286.754,149.423 287.062,161.151 287.369,172.733 
  287.677,152.871 287.984,135.648 288.291,137.888 288.599,136.807 288.906,147.812 289.213,159.71 289.521,156.392 289.828,155.109 290.136,146.415 290.443,135.707 
  290.75,139.529 291.058,143.043 291.365,137.561 291.673,135.153 291.98,133.04 292.287,128.988 292.595,145.299 292.902,162.356 293.21,155.541 293.517,149.59 
  293.824,153.855 294.132,152.888 294.439,155.357 294.747,160.186 295.054,131.613 295.361,103.645 295.669,106.745 295.976,106.871 296.284,111.182 296.591,119.37 
  296.898,113.444 297.206,108.259 297.513,113.957 297.821,117.914 298.128,118.743 298.435,121.059 298.743,113.883 299.05,107.81 299.357,108.633 299.665,107.664 
  299.972,120.805 300.28,134.605 300.587,131.968 300.894,130.557 301.202,130.166 301.509,127.384 301.817,130.006 302.124,132.859 302.431,125.928 302.739,119.572 
  303.046,120.523 303.354,120.56 303.661,122.808 303.968,125.814 304.276,124.504 304.583,123.535 304.891,123.881 305.198,123.535 305.505,124.504 305.813,125.814 
  306.12,122.808 306.428,120.56 306.735,120.523 307.042,119.572 307.35,125.928 307.657,132.859 307.964,130.006 308.272,127.384 308.579,130.166 308.887,130.557 
  309.194,131.968 309.501,134.605 309.809,120.805 310.116,107.664 310.424,108.633 310.731,107.81 311.038,113.883 311.346,121.059 311.653,118.743 311.961,117.914 
  312.268,113.957 312.575,108.259 312.883,113.444 313.19,119.37 313.498,111.182 313.805,106.871 314.112,106.745 314.42,103.645 314.727,131.613 315.035,160.186 
  315.342,155.357 315.649,152.888 315.957,153.855 316.264,149.59 316.571,155.541 316.879,162.356 317.186,145.299 317.494,128.988 317.801,133.04 318.108,135.153 
  318.416,137.561 318.723,143.043 319.031,139.529 319.338,135.707 319.645,146.415 319.953,155.109 320.26,156.392 320.568,159.71 320.875,147.812 321.182,136.807 
  321.49,137.888 321.797,135.648 322.105,152.871 322.412,172.733 322.719,161.151 323.027,149.423 323.334,161.732 323.642,165.326 323.949,167.566 324.256,175.032 
  324.564,119.285 324.871,64.2587 325.179,69.769 325.486,69.3743 325.793,79.2118 326.101,96.2342 326.408,84.6984 326.715,75.2059 327.023,82.1901 327.33,85.3715 
  327.638,89.2014 327.945,95.9021 328.252,79.4 328.56,66.9357 328.867,67.6577 329.175,63.8381 329.482,101.24 329.789,139.352 330.097,133.845 330.404,132.332 
  330.712,125.951 331.019,114.191 331.326,121.542 331.634,127.866 331.941,119.705 332.249,114.376 332.556,111.26 332.863,105.743 333.171,118.828 333.478,129.355 
  333.786,127.644 334.093,129.654 334.4,102.261 334.708,72.8904 335.015,80.6524 335.322,86.7546 335.63,80.0244 335.937,80.3467 336.245,74.9702 336.552,66.7412 
  336.859,99.0784 337.167,131.928 337.474,122.472 337.782,115.549 338.089,120.147 338.396,116.369 338.704,124.181 339.011,135.019 339.319,94.8295 339.626,58.2867 
  339.933,60.0226 340.241,55.6759 340.548,83.338 340.856,112.305 341.163,107.477 341.47,109.628 341.778,82.6569 342.085,49.053 342.393,74.5673 342.7,101.781 
  343.007,72.1717 343.315,60.7491 343.622,59.2176 343.93,45.5499 344.237,169.657 344.544,293.887 344.852,279.88 345.159,277.89 345.466,267.533 345.774,238.724 
  346.081,265.96 346.389,291.82 346.696,255.984 347.003,226.58 347.311,229.752 347.618,225.867 347.926,253.868 348.233,281.41 348.54,276.587 348.848,277.414 
  349.155,245.768 349.463,210.244 349.77,220.764 350.077,228.892 350.385,223.008 350.692,225.109 351,219.037 351.307,209.912 351.614,244.176 351.922,278.543 
  352.229,268.529 352.537,261.107 352.844,264.359 353.151,259.199 353.459,265.385 353.766,274.281 354.073,235.118 354.381,197.713 354.688,201.487 354.996,200.716 
  355.303,210.911 355.61,225.517 355.918,217.962 356.225,212.491 356.533,213.326 356.84,211.079 357.147,215.989 357.455,222.615 357.762,210.127 358.07,201.896 
  358.377,201.711 358.684,197.663 358.992,231.834 359.299,266.015 359.607,261.844 359.914,261.471 360.221,253.352 360.529,240.91 360.836,247.268 361.144,251.942 
  361.451,249.14 361.758,249.185 362.066,243.925 362.373,236.692 362.68,249.332 362.988,257.904 363.295,256.829 363.603,259.776 363.91,224.855 364.217,188.996 
  364.525,194.497 364.832,196.867 365.14,197.298 365.447,203.798 365.754,196.326 366.062,188.354 366.369,205.219 366.677,220.757 366.984,217.53 367.291,216.575 
  367.599,211.338 367.906,203.99 368.214,207.033 368.521,209.553 368.828,206.293 369.136,204.723 369.443,202.928 369.751,200.188 370.058,207.444 370.365,213.464 
  370.673,213.296 370.98,215.275 371.288,202.537 371.595,188.22 371.902,195.73 372.21,203.171 372.517,195.207 372.824,192.967 373.132,191.298 373.439,186.25 
  373.747,221.795 374.054,257.403 374.361,252.152 374.669,250.202 374.976,248.513 375.284,240.944 375.591,248.331 375.898,255.956 376.206,240.339 376.513,226.169 
  376.821,228.63 377.128,228.899 377.435,234.173 377.743,241.152 378.05,238.02 378.358,235.558 378.665,236.65 378.972,235.973 379.28,237.95 379.587,240.755 
  379.895,232.474 380.202,225.925 380.509,225.26 380.817,222.174 381.124,237.079 381.431,253.593 381.739,244.75 382.046,236.167 382.354,243.865 382.661,245.091 
  382.968,246.855 383.276,252.213 383.583,212.445 383.891,173.12 384.198,177.235 384.505,177.317 384.813,182.403 385.12,192.99 385.428,184.456 385.735,176.835 
  386.042,185.187 386.35,191.193 386.657,191.773 386.965,194.477 387.272,184.359 387.579,175.578 387.887,176.574 388.194,175.167 388.502,192.216 388.809,210.188 
  389.116,206.486 389.424,204.417 389.731,203.596 390.038,199.656 390.346,202.903 390.653,206.433 390.961,197.358 391.268,189.074 391.575,190.042 391.883,189.822 
  392.19,192.775 392.498,196.628 392.805,194.849 393.112,193.587 393.42,193.269 393.727,192.114 394.035,193.27 394.342,194.772 394.649,191.32 394.957,188.859 
  395.264,188.663 395.572,187.434 395.879,194.992 396.186,203.167 396.494,199.972 396.801,197.12 397.109,200.032 397.416,200.248 397.723,202.023 398.031,205.127 
  398.338,189.925 398.646,175.617 398.953,176.487 399.26,175.279 399.568,183.193 399.875,192.057 400.182,189.744 400.49,189.419 400.797,182.846 401.105,174.221 
  401.412,181.109 401.719,188.678 402.027,179.441 402.334,175.313 402.642,174.81 402.949,170.748 403.256,206.343 403.564,241.935 403.871,237.875 404.179,237.374 
  404.486,233.229 404.793,223.978 405.101,231.539 405.408,238.414 405.716,229.805 406.023,223.247 406.33,222.901 406.638,220.568 406.945,229.417 407.253,237.306 
  407.56,236.088 407.867,236.948 408.175,222.582 408.482,207.331 408.789,210.394 409.097,212.116 409.404,212.382 409.712,215.328 410.019,212.445 410.326,209.241 
  410.634,217.231 410.941,224.591 411.249,223.394 411.556,223.222 411.863,220.679 412.171,217.201 412.478,218.623 412.786,219.675 413.093,218.803 413.4,218.726 
  413.708,217.469 414.015,215.756 414.323,219.216 414.63,221.805 414.937,221.586 415.245,222.454 415.552,214.687 415.86,206.212 416.167,209.351 416.474,212.204 
  416.782,208.631 417.089,207.9 417.397,205.886 417.704,202.405 418.011,218.579 418.319,233.865 418.626,232.591 418.933,233.522 419.241,225.134 419.548,215.623 
  419.856,217.928 420.163,218.203 420.47,224.273 420.778,232.505 421.085,225.188 421.393,217.09 421.7,226.66 422.007,230.996 422.315,231.131 422.622,234.998 
  422.93,197.903 423.237,160.625 423.544,165.002 423.852,165.825 424.159,168.563 424.467,176.933 424.774,168.805 425.081,160.972 425.389,172.554 425.696,182.275 
  426.004,181.02 426.311,181.916 426.618,173.856 426.926,165.653 427.233,167.303 427.54,167.396 427.848,175.342 428.155,184.521 428.463,181.522 428.77,179.04 
  429.077,181.476 429.385,181.654 429.692,183.236 430,185.887 430.307,175.296 430.614,164.49 430.922,168.043 431.229,170.902 431.537,169.104 431.844,170.219 
  432.151,168.387 432.459,165.438 432.766,180.063 433.074,194.22 433.381,192.635 433.688,192.658 433.996,189.687 434.303,184.869 434.611,187.767 434.918,190.114 
  435.225,188.245 435.533,187.385 435.84,186.309 436.147,184.524 436.455,188.58 436.762,191.635 437.07,191.381 437.377,192.271 437.684,182.928 437.992,173.393 
  438.299,174.796 438.607,175.236 438.914,176.627 439.221,179.409 439.529,177.604 439.836,176.005 440.144,178.44 440.451,180.255 440.758,180.804 441.066,181.933 
  441.373,179.264 441.681,177.029 441.988,177.568 442.295,177.371 442.603,182.848 442.91,188.658 443.218,187.554 443.525,186.869 443.832,187.519 444.14,187.025 
  444.447,188.236 444.755,189.743 445.062,185.587 445.369,181.511 445.677,182.708 445.984,183.489 446.291,183.711 446.599,184.824 446.906,184.042 447.214,183.064 
  447.521,186.794 447.828,190.111 448.136,190.197 448.443,190.844 448.751,188.38 449.058,185.848 449.365,186.458 449.673,186.401 449.98,189.284 450.288,192.814 
  450.595,190.528 450.902,188.08 451.21,191.254 451.517,192.667 451.825,193.001 452.132,194.541 452.439,182.744 452.747,170.78 453.054,172.809 453.362,173.808 
  453.669,173.764 453.976,175.863 454.284,173.437 454.591,170.73 454.898,177.455 455.206,183.822 455.513,182.432 455.821,181.833 456.128,180.745 456.435,178.555 
  456.743,180.003 457.05,181.498 457.358,178.144 457.665,175.547 457.972,175.148 458.28,174.064 458.587,178.395 458.895,182.361 459.202,182.171 459.509,183.162 
  459.817,177.113 460.124,170.124 460.432,174.447 460.739,178.834 461.046,174.487 461.354,173.265 461.661,172.683 461.969,170.204 462.276,190.365 462.583,210.437 
  462.891,208.205 463.198,207.957 463.506,205.969 463.813,201.048 464.12,205.424 464.428,209.505 464.735,204.136 465.042,199.853 465.35,200.116 465.657,199.257 
  465.965,203.93 466.272,208.359 466.579,207.633 466.887,207.905 467.194,201.789 467.502,195.086 467.809,196.825 468.116,198.059 468.424,197.42 468.731,198.163 
  469.039,196.972 469.346,195.371 469.653,200.714 469.961,205.969 470.268,204.586 470.576,203.672 470.883,203.68 471.19,202.537 471.498,203.497 471.805,204.728 
  472.113,199.912 472.42,195.412 472.727,195.725 473.035,195.438 473.342,197.059 473.649,199.113 473.957,198.182 474.264,197.622 474.572,196.862 474.879,195.655 
  475.186,196.592 475.494,197.702 475.801,195.821 476.109,194.763 476.416,194.523 476.723,193.66 477.031,199.526 477.338,205.297 477.646,204.66 477.953,204.718 
  478.26,202.843 478.568,200.326 478.875,201.345 479.183,201.943 479.49,202.259 479.797,203.149 480.105,201.74 480.412,200.011 480.72,202.552 481.027,204.045 
  481.334,203.938 481.642,204.712 481.949,196.555 482.256,188.275 482.564,189.386 482.871,189.733 483.179,190.154 483.486,191.887 483.793,190.128 484.101,188.363 
  484.408,191.471 484.716,194.206 485.023,193.764 485.33,193.82 485.638,192.259 485.945,190.492 486.253,191.003 486.56,191.252 486.867,192.085 487.175,193.236 
  487.482,192.682 487.79,192.12 488.097,193.086 488.404,193.635 488.712,193.852 489.019,194.399 489.327,191.868 489.634,189.174 489.941,190.313 490.249,191.349 
  490.556,190.44 490.864,190.418 491.171,190.035 491.478,189.212 491.786,194.248 492.093,199.224 492.4,198.571 492.708,198.42 493.015,197.88 493.323,196.587 
  493.63,197.622 493.937,198.601 494.245,197.028 494.552,195.716 494.86,195.789 495.167,195.58 495.474,196.587 495.782,197.603 496.089,197.312 496.397,197.233 
  496.704,196.065 497.011,194.725 497.319,195.083 497.626,195.378 497.934,194.898 498.241,194.746 498.548,194.454 498.856,193.993 499.163,195.533 499.471,197.123 
  499.778,196.476 500.085,195.925 500.393,196.217 500.7,196.037 501.007,196.248 501.315,196.658 501.622,194.137 501.93,191.677 502.237,191.917 502.544,191.898 
  502.852,192.251 503.159,192.941 503.467,192.399 503.774,191.923 504.081,192.395 504.389,192.716 504.696,192.763 505.004,192.939 505.311,192.301 505.618,191.757 
  505.926,191.81 506.233,191.709 506.541,192.812 506.848,193.972 507.155,193.729 507.463,193.591 507.77,193.547 508.078,193.299 508.385,193.508 508.692,193.74 
  509,193.13 509.307,192.566 509.614,192.645 509.922,192.648 510.229,192.813 510.537,193.049 510.844,192.931 511.151,192.837 511.459,192.903 511.766,192.92 
  512.074,192.968 512.381,193.043 512.688,192.85 512.996,192.696 513.303,192.701 513.611,192.651 513.918,193.017 514.225,193.419 514.533,193.253 514.84,193.099 
  515.148,193.265 515.455,193.291 515.762,193.376 516.07,193.533 516.377,192.728 516.685,191.965 516.992,192.02 517.299,191.968 517.607,192.35 517.914,192.791 
  518.222,192.664 518.529,192.632 518.836,192.358 519.144,191.981 519.451,192.308 519.758,192.673 520.066,192.213 520.373,191.994 520.681,191.981 520.988,191.794 
  521.295,193.506 521.603,195.229 521.91,195.015 522.218,194.966 522.525,194.832 522.832,194.436 523.14,194.804 523.447,195.16 523.755,194.61 524.062,194.146 
  524.369,194.197 524.677,194.149 524.984,194.514 525.292,194.887 525.599,194.801 525.906,194.788 526.214,194.418 526.521,193.99 526.829,194.121 527.136,194.229 
  527.443,194.108 527.751,194.091 528.058,194.012 528.365,193.883 528.673,194.366 528.98,194.86 529.288,194.688 529.595,194.548 529.902,194.628 530.21,194.573 
  530.517,194.651 530.825,194.782 531.132,194.094 531.439,193.426 531.747,193.497 532.054,193.494 532.362,193.62 532.669,193.835 532.976,193.694 533.284,193.578 
  533.591,193.676 533.899,193.729 534.206,193.768 534.513,193.84 534.821,193.654 535.128,193.51 535.436,193.521 535.743,193.483 536.05,193.878 536.358,194.284 
  536.665,194.219 536.973,194.195 537.28,194.139 537.587,194.022 537.895,194.097 538.202,194.165 538.509,194.048 538.817,193.956 539.124,193.939 539.432,193.897 
  539.739,193.999 540.046,194.087 540.354,194.063 540.661,194.066 540.969,193.868 541.276,193.66 541.583,193.691 541.891,193.705 542.198,193.704 542.506,193.739 
  542.813,193.696 543.12,193.65 543.428,193.743 543.735,193.829 544.043,193.812 544.35,193.809 544.657,193.773 544.965,193.728 545.272,193.744 545.58,193.755 
  545.887,193.752 546.194,193.758 546.502,193.747 546.809,193.733 547.116,193.763 547.424,193.785 547.731,193.786 548.039,193.796 548.346,193.736 548.653,193.669 
  548.961,193.7 549.268,193.73 549.576,193.701 549.883,193.696 550.19,193.687 550.498,193.666 550.805,193.809 551.113,193.95 551.42,193.933 551.727,193.93 
  552.035,193.912 552.342,193.873 552.65,193.903 552.957,193.93 553.264,193.894 553.572,193.866 553.879,193.865 554.187,193.856 554.494,193.889 554.801,193.919 
  555.109,193.914 555.416,193.916 555.723,193.864 556.031,193.808 556.338,193.819 556.646,193.826 556.953,193.825 557.26,193.833 557.568,193.822 557.875,193.81 
  558.183,193.843 558.49,193.875 558.797,193.868 559.105,193.864 559.412,193.859 559.72,193.849 560.027,193.855 560.334,193.861 560.642,193.842 560.949,193.826 
  561.257,193.827 561.564,193.826 561.871,193.831 562.179,193.837 562.486,193.834 562.794,193.831 563.101,193.832 563.408,193.831 563.716,193.833 564.023,193.835 
  564.331,193.83 564.638,193.827 564.945,193.827 565.253,193.826 565.56,193.837 565.867,193.849 566.175,193.847 566.482,193.846 566.79,193.845 567.097,193.842 
  567.404,193.844 567.712,193.847 568.019,193.842 568.327,193.838 568.634,193.838 568.941,193.838 569.249,193.84 569.556,193.842 569.864,193.842 570.171,193.841 
  570.478,193.84 570.786,193.839 571.093,193.839 571.401,193.839 571.708,193.839 572.015,193.839 572.323,193.839 572.63,193.839 572.938,193.84 573.245,193.84 
  573.552,193.84 573.86,193.84 574.167,193.84 574.474,193.84 574.782,193.84 575.089,193.84 575.397,193.84 575.704,193.84 576.011,193.84 576.319,193.84 
  576.626,193.84 576.934,193.84 577.241,193.84 577.548,193.84 577.856,193.84 578.163,193.84 578.471,193.84 578.778,193.84 579.085,193.84 579.393,193.84 
  579.7,193.84 580.008,193.84 580.315,193.84 
  "/>
<polyline clip-path="url(#clip0802)" style="stroke:#c271d2; stroke-width:1; stroke-opacity:1; fill:none" points="
  108.159,193.84 108.466,193.84 108.774,193.84 109.081,193.84 109.388,193.84 109.696,193.84 110.003,193.84 110.311,193.84 110.618,193.84 110.925,193.84 
  111.233,193.84 111.54,193.84 111.848,193.84 112.155,193.84 112.462,193.84 112.77,193.84 113.077,193.84 113.385,193.839 113.692,193.84 113.999,193.84 
  114.307,193.839 114.614,193.839 114.921,193.839 115.229,193.838 115.536,193.841 115.844,193.843 116.151,193.842 116.458,193.842 116.766,193.842 117.073,193.841 
  117.381,193.842 117.688,193.843 117.995,193.839 118.303,193.836 118.61,193.835 118.918,193.833 119.225,193.839 119.532,193.844 119.84,193.844 120.147,193.845 
  120.455,193.834 120.762,193.821 121.069,193.828 121.377,193.834 121.684,193.826 121.992,193.824 122.299,193.822 122.606,193.817 122.914,193.848 123.221,193.878 
  123.528,193.875 123.836,193.875 124.143,193.866 124.451,193.853 124.758,193.859 125.065,193.863 125.373,193.862 125.68,193.864 125.988,193.857 126.295,193.847 
  126.602,193.864 126.91,193.876 127.217,193.874 127.525,193.877 127.832,193.833 128.139,193.784 128.447,193.8 128.754,193.815 129.062,193.788 129.369,193.775 
  129.676,193.765 129.984,193.745 130.291,193.83 130.599,193.92 130.906,193.886 131.213,193.858 131.521,193.881 131.828,193.876 132.136,193.895 132.443,193.926 
  132.75,193.776 133.058,193.637 133.365,193.643 133.672,193.628 133.98,193.708 134.287,193.797 134.595,193.773 134.902,193.769 135.209,193.695 135.517,193.599 
  135.824,193.671 136.132,193.751 136.439,193.647 136.746,193.599 137.054,193.592 137.361,193.546 137.669,193.923 137.976,194.305 138.283,194.247 138.591,194.223 
  138.898,194.21 139.206,194.134 139.513,194.212 139.82,194.295 140.128,194.118 140.435,193.956 140.743,193.984 141.05,193.987 141.357,194.046 141.665,194.125 
  141.972,194.087 142.279,194.058 142.587,194.074 142.894,194.067 143.202,194.097 143.509,194.139 143.816,194.017 144.124,193.923 144.431,193.913 144.739,193.868 
  145.046,194.097 145.353,194.347 145.661,194.225 145.968,194.109 146.276,194.201 146.583,194.2 146.89,194.237 147.198,194.321 147.505,193.766 147.813,193.238 
  148.12,193.246 148.427,193.181 148.735,193.417 149.042,193.686 149.35,193.575 149.657,193.529 149.964,193.283 150.272,192.972 150.579,193.153 150.886,193.353 
  151.194,193.042 151.501,192.894 151.809,192.829 152.116,192.656 152.423,193.738 152.731,194.792 153.038,194.69 153.346,194.721 153.653,194.334 153.96,193.84 
  154.268,194.032 154.575,194.134 154.883,194.276 155.19,194.539 155.497,194.228 155.805,193.853 156.112,194.426 156.42,194.763 156.727,194.755 157.034,194.944 
  157.342,193.163 157.649,191.326 157.957,191.676 158.264,191.886 158.571,191.738 158.879,191.951 159.186,191.577 159.494,191.119 159.801,192.436 160.108,193.725 
  160.416,193.381 160.723,193.171 161.03,193.125 161.338,192.802 161.645,193.089 161.953,193.438 162.26,192.298 162.567,191.311 162.875,191.276 163.182,191.049 
  163.49,192.043 163.797,193.016 164.104,192.887 164.412,193.024 164.719,191.787 165.027,190.319 165.334,191.267 165.641,192.25 165.949,191.194 166.256,190.836 
  166.564,190.706 166.871,190.137 167.178,194.73 167.486,199.296 167.793,198.797 168.101,198.762 168.408,198.178 168.715,196.95 169.023,197.925 169.33,198.797 
  169.637,197.792 169.945,197.06 170.252,196.974 170.56,196.638 170.867,197.813 171.174,198.831 171.482,198.694 171.789,198.84 172.097,196.804 172.404,194.658 
  172.711,195.077 173.019,195.304 173.326,195.374 173.634,195.814 173.941,195.406 174.248,194.962 174.556,196.035 174.863,197.01 175.171,196.877 175.478,196.891 
  175.785,196.481 176.093,195.964 176.4,196.164 176.708,196.293 177.015,196.338 177.322,196.514 177.63,196.264 177.937,195.95 178.245,196.578 178.552,197.017 
  178.859,197.025 179.167,197.235 179.474,195.734 179.781,194.106 180.089,194.724 180.396,195.282 180.704,194.621 181.011,194.504 181.318,194.135 181.626,193.487 
  181.933,196.582 182.241,199.521 182.548,199.254 182.855,199.393 183.163,197.943 183.47,196.242 183.778,196.711 184.085,196.836 184.392,197.693 184.7,198.951 
  185.007,197.682 185.315,196.237 185.622,198.078 185.929,199.018 186.237,198.967 186.544,199.607 186.852,193.047 187.159,186.323 187.466,187.417 187.774,187.98 
  188.081,187.502 188.388,188.278 188.696,186.81 189.003,185.084 189.311,189.324 189.618,193.432 189.925,192.202 190.233,191.424 190.54,191.02 190.848,189.74 
  191.155,190.526 191.462,191.482 191.77,187.905 192.077,184.789 192.385,184.58 192.692,183.807 192.999,186.512 193.307,189.194 193.614,188.635 193.922,188.828 
  194.229,185.341 194.536,181.16 194.844,183.767 195.151,186.523 195.459,183.078 195.766,181.636 196.073,181.235 196.381,179.5 196.688,192.749 196.995,206.16 
  197.303,203.959 197.61,202.927 197.918,202.9 198.225,200.505 198.532,203.266 198.84,206.308 199.147,199.065 199.455,192.251 199.762,193.741 200.069,194.352 
  200.377,195.778 200.684,198.343 200.992,196.83 201.299,195.326 201.606,198.56 201.914,200.945 202.221,201.59 202.529,202.954 202.836,198.194 203.143,193.964 
  203.451,194.144 203.758,192.987 204.066,200.274 204.373,208.573 204.68,203.827 204.988,199.084 205.295,203.797 205.603,204.983 205.91,205.897 206.217,208.877 
  206.525,186.561 206.832,164.551 207.139,166.7 207.447,166.494 207.754,170.328 208.062,177.04 208.369,172.373 208.676,168.509 208.984,171.337 209.291,172.656 
  209.599,174.075 209.906,176.641 210.213,170.049 210.521,165.024 210.828,165.28 211.136,163.746 211.443,178.338 211.75,193.238 212.058,190.968 212.365,190.247 
  212.673,187.854 212.98,183.311 213.287,186.143 213.595,188.625 213.902,185.009 214.21,182.472 214.517,181.363 214.824,179.301 215.132,184.228 215.439,188.292 
  215.746,187.49 216.054,188.079 216.361,178.092 216.669,167.283 216.976,170.256 217.283,172.691 217.591,169.576 217.898,169.187 218.206,167.17 218.513,163.922 
  218.82,176.991 219.128,190.376 219.435,186.254 219.743,183.095 220.05,185.39 220.357,184.109 220.665,187.2 220.972,191.678 221.28,173.89 221.587,157.546 
  221.894,158.428 222.202,156.716 222.509,167.881 222.817,179.836 223.124,177.494 223.431,177.954 223.739,167.755 224.046,154.773 224.354,164.999 224.661,176.055 
  224.968,163.423 225.276,158.114 225.583,157.65 225.89,152.143 226.198,202.71 226.505,253.657 226.813,247.09 227.12,245.192 227.427,243.19 227.735,233.036 
  228.042,244.143 228.35,255.425 228.657,235.478 228.964,217.685 229.272,221.296 229.579,221.854 229.887,230.774 230.194,241.53 230.501,238.295 230.809,236.31 
  231.116,235.151 231.424,231.83 231.731,235.272 232.038,239.295 232.346,231.396 232.653,225.86 232.961,225.286 233.268,222.124 233.575,239.861 233.883,259.196 
  234.19,250.315 234.497,241.85 234.805,250.501 235.112,252.182 235.42,254.801 235.727,261.221 236.034,219.82 236.342,178.566 236.649,184.538 236.957,186.546 
  237.264,189.523 237.571,199.123 237.879,190.605 238.186,182.067 238.494,198.502 238.801,213.061 239.108,211.08 239.416,211.581 239.723,204.586 240.031,196.292 
  240.338,199.55 240.645,201.643 240.953,204.407 241.26,209.089 241.568,206.291 241.875,202.996 242.182,211.268 242.49,217.049 242.797,218.442 243.104,222.364 
  243.412,204.897 243.719,185.99 244.027,195.064 244.334,203.534 244.641,196.583 244.949,196.406 245.256,193.89 245.564,187.909 245.871,227.896 246.178,266.859 
  246.486,263.671 246.793,264.921 247.101,255.845 247.408,242.18 247.715,250.392 248.023,256.504 248.33,255.987 248.638,258.575 248.945,253.854 249.252,247.245 
  249.56,260.933 249.867,270.073 250.175,270.511 250.482,275.035 250.789,238.749 251.097,202.386 251.404,206.997 251.712,207.528 252.019,216.046 252.326,229.211 
  252.634,222.274 252.941,217.036 253.248,220.465 253.556,220.685 253.863,226.235 254.171,234.034 254.478,218.999 254.785,208.321 255.093,209.45 255.4,205.91 
  255.708,243.9 256.015,283.839 256.322,274.64 256.63,268.083 256.937,274.407 257.245,271.953 257.552,279.621 257.859,290.216 258.167,253.392 258.474,216.47 
  258.782,226.829 259.089,234.028 259.396,230.978 259.704,236.847 260.011,228.264 260.319,216.81 260.626,257.792 260.933,294.658 261.241,293.479 261.548,298.623 
  261.855,269.012 262.163,238.45 262.47,243.339 262.778,240.659 263.085,271.155 263.392,308.75 263.7,281.09 264.007,251.71 264.315,283.847 264.622,296.164 
  264.929,298.088 265.237,313.173 265.544,178.775 265.852,43.9972 266.159,60.1443 266.466,63.5035 266.774,72.5153 267.081,102.177 267.389,72.7502 267.696,44.0379 
  268.003,88.6019 268.311,126.698 268.618,120.871 268.926,122.868 269.233,95.3467 269.54,66.1509 269.848,72.8265 270.155,74.5238 270.462,96.2154 270.77,122.742 
  271.077,112.334 271.385,102.827 271.692,115.331 271.999,120.129 272.307,124.756 272.614,134.171 272.922,92.8966 273.229,49.807 273.536,66.0541 273.844,80.1893 
  274.151,68.7113 274.459,70.2602 274.766,63.5323 275.073,50.8996 275.381,121.472 275.688,190.767 275.996,181.872 276.303,180.225 276.61,170.618 276.918,150.901 
  277.225,165.18 277.533,178.175 277.84,159.515 278.147,144.868 278.455,144.081 278.762,139.465 279.07,155.151 279.377,169.611 279.684,166.204 279.992,166.512 
  280.299,142.126 280.606,115.598 280.914,121.437 281.221,125.455 281.529,121.383 281.836,122.805 282.143,117.367 282.451,110.152 282.758,131.567 283.066,152.805 
  283.373,146.059 283.68,141.228 283.988,141.159 284.295,136.059 284.603,139.67 284.91,144.629 285.217,121.897 285.525,100.939 285.832,101.068 286.14,98.1672 
  286.447,108.458 286.754,119.998 287.062,115.618 287.369,113.996 287.677,103.438 287.984,90.1789 288.291,97.9094 288.599,106.307 288.906,94.0778 289.213,88.5231 
  289.521,86.089 289.828,79.2746 290.136,123.571 290.443,166.817 290.75,162.809 291.058,164.164 291.365,149.484 291.673,130.27 291.98,138.515 292.287,143.334 
  292.595,148.149 292.902,157.748 293.21,146.325 293.517,132.349 293.824,155.264 294.132,169.24 294.439,169.185 294.747,176.828 295.054,108.789 295.361,38.4677 
  295.669,52.7588 295.976,61.7363 296.284,55.786 296.591,63.9659 296.898,50.1782 297.206,32.8774 297.513,85.9809 297.821,138.187 298.128,124.757 298.435,116.471 
  298.743,116.378 299.05,104.906 299.357,117.029 299.665,131.96 299.972,84.512 300.28,43.0196 300.587,43.0607 300.894,35.2846 301.202,75.1692 301.509,114.887 
  301.817,109.905 302.124,115.311 302.431,69.8268 302.739,15.0949 303.046,53.1227 303.354,92.9066 303.661,50.9147 303.968,36.1997 304.276,32.7943 304.583,11.811 
  304.891,193.84 305.198,375.869 305.505,354.885 305.813,351.48 306.12,336.765 306.428,294.773 306.735,334.557 307.042,372.585 307.35,317.853 307.657,272.368 
  307.964,277.775 308.272,272.793 308.579,312.511 308.887,352.395 309.194,344.619 309.501,344.66 309.809,303.168 310.116,255.72 310.424,270.651 310.731,282.773 
  311.038,271.302 311.346,271.209 311.653,262.923 311.961,249.493 312.268,301.699 312.575,354.802 312.883,337.501 313.19,323.714 313.498,331.894 313.805,325.943 
  314.112,334.921 314.42,349.212 314.727,278.891 315.035,210.852 315.342,218.495 315.649,218.439 315.957,232.416 316.264,255.331 316.571,241.355 316.879,229.931 
  317.186,239.531 317.494,244.345 317.801,249.165 318.108,257.41 318.416,238.196 318.723,223.516 319.031,224.87 319.338,220.862 319.645,264.108 319.953,308.405 
  320.26,301.591 320.568,299.157 320.875,293.602 321.182,281.373 321.49,289.77 321.797,297.501 322.105,284.241 322.412,273.683 322.719,272.062 323.027,267.681 
  323.334,279.222 323.642,289.513 323.949,286.611 324.256,286.741 324.564,265.783 324.871,243.05 325.179,248.01 325.486,251.621 325.793,246.52 326.101,246.451 
  326.408,241.621 326.715,234.874 327.023,256.113 327.33,277.528 327.638,270.313 327.945,264.874 328.252,266.297 328.56,262.225 328.867,266.243 329.175,272.081 
  329.482,245.553 329.789,221.168 330.097,221.476 330.404,218.069 330.712,232.529 331.019,248.215 331.326,243.598 331.634,242.812 331.941,228.164 332.249,209.504 
  332.556,222.5 332.863,236.778 333.171,217.061 333.478,207.455 333.786,205.808 334.093,196.913 334.4,266.208 334.708,336.78 335.015,324.147 335.322,317.42 
  335.63,318.968 335.937,307.49 336.245,321.626 336.552,337.873 336.859,294.783 337.167,253.509 337.474,262.924 337.782,267.551 338.089,272.349 338.396,284.853 
  338.704,275.346 339.011,264.938 339.319,291.464 339.626,313.156 339.933,314.853 340.241,321.529 340.548,292.333 340.856,264.811 341.163,266.808 341.47,260.982 
  341.778,299.078 342.085,343.642 342.393,314.929 342.7,285.503 343.007,315.164 343.315,324.176 343.622,327.535 343.93,343.683 344.237,208.905 344.544,74.5065 
  344.852,89.5922 345.159,91.5157 345.466,103.833 345.774,135.969 346.081,106.59 346.389,78.9302 346.696,116.525 347.003,147.021 347.311,144.34 347.618,149.23 
  347.926,118.667 348.233,89.0563 348.54,94.2012 348.848,93.0215 349.155,129.888 349.463,170.87 349.77,159.416 350.077,150.833 350.385,156.702 350.692,153.652 
  351,160.851 351.307,171.21 351.614,134.288 351.922,97.4638 352.229,108.059 352.537,115.726 352.844,113.273 353.151,119.597 353.459,113.039 353.766,103.841 
  354.073,143.779 354.381,181.77 354.688,178.23 354.996,179.359 355.303,168.681 355.61,153.646 355.918,161.444 356.225,166.995 356.533,167.215 356.84,170.644 
  357.147,165.405 357.455,158.469 357.762,171.633 358.07,180.151 358.377,180.682 358.684,185.294 358.992,148.931 359.299,112.645 359.607,117.169 359.914,117.607 
  360.221,126.747 360.529,140.435 360.836,133.826 361.144,129.105 361.451,131.692 361.758,131.175 362.066,137.288 362.373,145.5 362.68,131.835 362.988,122.759 
  363.295,124.009 363.603,120.821 363.91,159.783 364.217,199.771 364.525,193.79 364.832,191.273 365.14,191.097 365.447,184.145 365.754,192.616 366.062,201.69 
  366.369,182.783 366.677,165.316 366.984,169.238 367.291,170.631 367.599,176.412 367.906,184.684 368.214,181.389 368.521,178.591 368.828,183.273 369.136,186.037 
  369.443,188.13 369.751,191.388 370.058,183.094 370.365,176.099 370.673,176.6 370.98,174.618 371.288,189.178 371.595,205.613 371.902,197.074 372.21,188.556 
  372.517,198.157 372.824,201.134 373.132,203.141 373.439,209.114 373.747,167.86 374.054,126.459 374.361,132.879 374.669,135.498 374.976,137.179 375.284,145.83 
  375.591,137.364 375.898,128.484 376.206,147.818 376.513,165.556 376.821,162.394 377.128,161.82 377.435,156.283 377.743,148.384 378.05,152.408 378.358,155.849 
  378.665,152.528 378.972,151.37 379.28,149.384 379.587,146.149 379.895,156.906 380.202,165.826 380.509,166.383 380.817,169.994 381.124,152.202 381.431,132.255 
  381.739,143.537 382.046,154.644 382.354,144.49 382.661,142.488 382.968,140.59 383.276,134.022 383.583,184.97 383.891,235.536 384.198,230.029 384.505,229.566 
  384.813,224.257 385.12,211.625 385.428,222.681 385.735,232.907 386.042,219.924 386.35,209.726 386.657,210.185 386.965,207.843 387.272,219.799 387.579,230.964 
  387.887,229.251 388.194,230.134 388.502,213.79 388.809,196.001 389.116,200.48 389.424,203.571 389.731,202.29 390.038,204.585 390.346,201.425 390.653,197.304 
  390.961,210.689 391.268,223.758 391.575,220.51 391.883,218.492 392.19,218.104 392.498,214.989 392.805,217.424 393.112,220.397 393.42,209.587 393.727,199.6 
  394.035,200.19 394.342,199.388 394.649,203.452 394.957,208.379 395.264,206.316 395.572,205.207 395.879,202.671 396.186,199.055 396.494,201.537 396.801,204.369 
  397.109,199.826 397.416,197.433 397.723,196.712 398.031,194.442 398.338,209.341 398.646,223.934 398.953,222.4 399.26,222.656 399.568,217.631 399.875,211.039 
  400.182,213.605 400.49,215.023 400.797,216.343 401.105,219.171 401.412,215.306 401.719,210.64 402.027,217.351 402.334,221.186 402.642,220.98 402.949,223.128 
  403.256,201.118 403.564,178.803 403.871,181.782 404.179,182.697 404.486,183.883 404.793,188.595 405.101,183.852 405.408,179.107 405.716,187.406 406.023,194.693 
  406.33,193.536 406.638,193.716 406.945,189.486 407.253,184.726 407.56,186.089 407.867,186.735 408.175,189.12 408.482,192.353 408.789,190.849 409.097,189.337 
  409.404,191.902 409.712,193.328 410.019,193.939 410.326,195.429 410.634,188.615 410.941,181.371 411.249,184.414 411.556,187.174 411.863,184.779 412.171,184.753 
  412.478,183.72 412.786,181.52 413.093,194.931 413.4,208.179 413.708,206.445 414.015,206.044 414.323,204.602 414.63,201.156 414.937,203.912 415.245,206.52 
  415.552,202.339 415.86,198.852 416.167,199.045 416.474,198.485 416.782,201.168 417.089,203.873 417.397,203.099 417.704,202.891 418.011,199.775 418.319,196.198 
  418.626,197.153 418.933,197.939 419.241,196.66 419.548,196.256 419.856,195.478 420.163,194.247 420.47,198.356 420.778,202.595 421.085,200.87 421.393,199.401 
  421.7,200.178 422.007,199.7 422.315,200.262 422.622,201.356 422.93,194.633 423.237,188.072 423.544,188.712 423.852,188.662 424.159,189.602 424.467,191.443 
  424.774,189.998 425.081,188.728 425.389,189.986 425.696,190.844 426.004,190.969 426.311,191.438 426.618,189.737 426.926,188.287 427.233,188.426 427.54,188.158 
  427.848,191.098 428.155,194.192 428.463,193.544 428.77,193.176 429.077,193.059 429.385,192.398 429.692,192.956 430,193.573 430.307,191.946 430.614,190.444 
  430.922,190.654 431.229,190.662 431.537,191.101 431.844,191.73 432.151,191.416 432.459,191.166 432.766,191.342 433.074,191.387 433.381,191.515 433.688,191.715 
  433.996,191.199 434.303,190.789 434.611,190.802 434.918,190.669 435.225,191.645 435.533,192.718 435.84,192.274 436.147,191.866 436.455,192.306 436.762,192.376 
  437.07,192.602 437.377,193.022 437.684,190.875 437.992,188.839 438.299,188.986 438.607,188.848 438.914,189.866 439.221,191.042 439.529,190.705 439.836,190.62 
  440.144,189.887 440.451,188.883 440.758,189.754 441.066,190.729 441.373,189.502 441.681,188.917 441.988,188.883 442.295,188.383 442.603,192.95 442.91,197.543 
  443.218,196.974 443.525,196.844 443.832,196.486 444.14,195.429 444.447,196.412 444.755,197.36 445.062,195.893 445.369,194.656 445.677,194.793 445.984,194.663 
  446.291,195.637 446.599,196.631 446.906,196.404 447.214,196.369 447.521,195.381 447.828,194.241 448.136,194.591 448.443,194.878 448.751,194.555 449.058,194.509 
  449.365,194.298 449.673,193.955 449.98,195.244 450.288,196.56 450.595,196.102 450.902,195.729 451.21,195.942 451.517,195.794 451.825,196.003 452.132,196.353 
  452.439,194.517 452.747,192.736 453.054,192.925 453.362,192.917 453.669,193.254 453.976,193.826 454.284,193.452 454.591,193.14 454.898,193.403 455.206,193.545 
  455.513,193.648 455.821,193.839 456.128,193.345 456.435,192.959 456.743,192.99 457.05,192.887 457.358,193.942 457.665,195.023 457.972,194.85 458.28,194.786 
  458.587,194.637 458.895,194.327 459.202,194.526 459.509,194.708 459.817,194.396 460.124,194.151 460.432,194.104 460.739,193.993 461.046,194.263 461.354,194.499 
  461.661,194.434 461.969,194.442 462.276,193.914 462.583,193.359 462.891,193.443 463.198,193.48 463.506,193.479 463.813,193.571 464.12,193.455 464.428,193.332 
  464.735,193.583 465.042,193.812 465.35,193.767 465.657,193.757 465.965,193.662 466.272,193.541 466.579,193.583 466.887,193.613 467.194,193.606 467.502,193.622 
  467.809,193.592 468.116,193.555 468.424,193.634 468.731,193.693 469.039,193.696 469.346,193.724 469.653,193.562 469.961,193.385 470.268,193.467 470.576,193.546 
  470.883,193.469 471.19,193.457 471.498,193.433 471.805,193.375 472.113,193.756 472.42,194.134 472.727,194.088 473.035,194.081 473.342,194.032 473.649,193.929 
  473.957,194.008 474.264,194.08 474.572,193.984 474.879,193.91 475.186,193.907 475.494,193.883 475.801,193.971 476.109,194.052 476.416,194.037 476.723,194.043 
  477.031,193.903 477.338,193.754 477.646,193.785 477.953,193.803 478.26,193.799 478.568,193.822 478.875,193.793 479.183,193.76 479.49,193.849 479.797,193.935 
  480.105,193.915 480.412,193.904 480.72,193.892 481.027,193.865 481.334,193.88 481.642,193.896 481.949,193.847 482.256,193.803 482.564,193.806 482.871,193.804 
  483.179,193.816 483.486,193.833 483.793,193.823 484.101,193.816 484.408,193.818 484.716,193.817 485.023,193.821 485.33,193.826 485.638,193.814 485.945,193.805 
  486.253,193.805 486.56,193.802 486.867,193.832 487.175,193.863 487.482,193.858 487.79,193.856 488.097,193.853 488.404,193.846 488.712,193.852 489.019,193.858 
  489.327,193.846 489.634,193.835 489.941,193.836 490.249,193.836 490.556,193.841 490.864,193.847 491.171,193.845 491.478,193.844 491.786,193.841 492.093,193.837 
  492.4,193.838 492.708,193.838 493.015,193.838 493.323,193.838 493.63,193.837 493.937,193.837 494.245,193.839 494.552,193.842 494.86,193.841 495.167,193.841 
  495.474,193.84 495.782,193.839 496.089,193.84 496.397,193.84 496.704,193.84 497.011,193.84 497.319,193.84 497.626,193.84 497.934,193.84 498.241,193.84 
  498.548,193.84 498.856,193.84 499.163,193.84 499.471,193.84 499.778,193.84 500.085,193.84 500.393,193.84 500.7,193.84 501.007,193.84 501.315,193.84 
  501.622,193.84 
  "/>
<polygon clip-path="url(#clip0800)" points="
379.261,108.291 562.315,108.291 562.315,32.691 379.261,32.691 
  " fill="#ffffff" fill-opacity="1"/>
<polyline clip-path="url(#clip0800)" style="stroke:#000000; stroke-width:1; stroke-opacity:1; fill:none" points="
  379.261,108.291 562.315,108.291 562.315,32.691 379.261,32.691 379.261,108.291 
  "/>
<polyline clip-path="url(#clip0800)" style="stroke:#009af9; stroke-width:1; stroke-opacity:1; fill:none" points="
  385.261,47.811 421.261,47.811 
  "/>
<g clip-path="url(#clip0800)">
<text style="fill:#000000; fill-opacity:1; font-family:Arial,Helvetica Neue,Helvetica,sans-serif; font-size:12; text-anchor:start;" transform="rotate(0, 427.261, 52.311)" x="427.261" y="52.311">primal scaling of cdf33</text>
</g>
<polyline clip-path="url(#clip0800)" style="stroke:#e26f46; stroke-width:1; stroke-opacity:1; fill:none" points="
  385.261,62.931 421.261,62.931 
  "/>
<g clip-path="url(#clip0800)">
<text style="fill:#000000; fill-opacity:1; font-family:Arial,Helvetica Neue,Helvetica,sans-serif; font-size:12; text-anchor:start;" transform="rotate(0, 427.261, 67.431)" x="427.261" y="67.431">primal wavelet of cdf33</text>
</g>
<polyline clip-path="url(#clip0800)" style="stroke:#3da44d; stroke-width:1; stroke-opacity:1; fill:none" points="
  385.261,78.051 421.261,78.051 
  "/>
<g clip-path="url(#clip0800)">
<text style="fill:#000000; fill-opacity:1; font-family:Arial,Helvetica Neue,Helvetica,sans-serif; font-size:12; text-anchor:start;" transform="rotate(0, 427.261, 82.551)" x="427.261" y="82.551">dual scaling of cdf33</text>
</g>
<polyline clip-path="url(#clip0800)" style="stroke:#c271d2; stroke-width:1; stroke-opacity:1; fill:none" points="
  385.261,93.171 421.261,93.171 
  "/>
<g clip-path="url(#clip0800)">
<text style="fill:#000000; fill-opacity:1; font-family:Arial,Helvetica Neue,Helvetica,sans-serif; font-size:12; text-anchor:start;" transform="rotate(0, 427.261, 97.671)" x="427.261" y="97.671">dual wavelet of cdf33</text>
</g>
</svg>
